<svg width="1440" height="680" viewBox="0 0 1440 680" fill="none" xmlns="http://www.w3.org/2000/svg">
<g clip-path="url(#clip0_2201_214)">
<rect width="1440" height="680" fill="#1D1717"/>
<path d="M907.429 813.905C902.119 813.905 897.252 812.576 892.828 809.919C888.403 806.376 886.19 801.947 886.19 796.633C886.19 789.547 888.403 783.79 892.828 779.361C897.252 774.933 903.004 771.832 910.084 770.061C933.092 764.747 949.021 758.989 957.871 752.789C967.605 745.703 972.472 735.075 972.472 720.903V433.925C972.472 403.81 967.605 382.553 957.871 370.152C949.021 356.866 934.862 348.895 915.394 346.237C910.084 345.352 906.102 342.694 903.447 338.266C900.792 333.837 899.465 328.523 899.465 322.323C899.465 309.037 904.332 301.508 914.066 299.736C960.083 290.879 1000.79 278.479 1036.19 262.536C1072.47 246.592 1100.35 234.192 1119.82 225.335C1133.97 218.249 1142.82 214.706 1146.36 214.706C1157.87 214.706 1163.62 220.02 1163.62 230.649C1162.74 245.707 1160.52 264.75 1156.98 287.779C1154.33 309.922 1151.67 332.951 1149.02 356.866C1147.25 380.781 1146.36 403.81 1146.36 425.954V719.574C1146.36 731.975 1150.79 741.718 1159.64 748.803C1169.37 755.889 1186.19 762.975 1210.08 770.061C1217.16 772.718 1222.91 775.818 1227.34 779.361C1231.76 782.904 1233.97 788.219 1233.97 795.304C1233.97 806.819 1227.34 812.576 1214.06 812.576C1197.25 812.576 1179.55 812.133 1160.97 811.248C1142.38 810.362 1124.24 809.476 1106.54 808.59C1089.73 807.705 1073.36 807.262 1057.43 807.262C1042.38 807.262 1026.45 807.705 1009.64 808.59C993.711 809.476 976.897 810.362 959.198 811.248C942.384 813.019 925.128 813.905 907.429 813.905ZM1053.44 154.919C1026.01 154.919 1001.68 144.733 980.437 124.361C960.083 103.989 949.906 79.6315 949.906 51.288C949.906 21.1731 960.083 -4.07028 980.437 -24.4422C1001.68 -44.814 1026.01 -55 1053.44 -55C1084.42 -55 1110.08 -44.814 1130.43 -24.4422C1150.79 -4.07028 1160.97 21.1731 1160.97 51.288C1160.97 79.6315 1150.79 103.989 1130.43 124.361C1110.08 144.733 1084.42 154.919 1053.44 154.919Z" fill="#FEFDFA"/>
<path d="M720.538 662.647C699.857 662.647 679.803 660.131 660.376 655.099C640.949 650.067 623.402 641.89 607.735 630.567C602.095 621.132 598.022 606.35 595.515 586.222C593.008 566.093 592.068 545.021 592.695 523.005C592.695 515.457 598.962 511.683 611.495 511.683C616.509 511.683 620.895 513.256 624.656 516.401C628.416 519.546 630.609 522.691 631.236 525.836C643.143 552.255 656.93 574.899 672.597 593.77C688.264 612.011 707.064 621.132 728.998 621.132C745.918 621.132 758.765 616.1 767.539 606.036C776.313 595.342 780.699 583.391 780.699 570.182C780.699 553.827 774.119 540.303 760.959 529.61C748.425 518.288 733.071 507.909 714.898 498.474C696.724 489.039 679.49 478.345 663.196 466.394C646.903 454.443 633.429 440.29 622.775 423.935C612.749 406.952 607.735 386.823 607.735 363.55C607.735 339.018 614.315 317.631 627.476 299.39C641.263 281.149 659.436 266.996 681.997 256.931C705.184 246.238 730.878 240.891 759.079 240.891C779.759 240.891 798.873 243.407 816.42 248.44C833.967 252.843 845.874 257.246 852.141 261.649C857.154 267.939 861.228 279.89 864.361 297.503C867.495 314.486 869.061 333.357 869.061 354.114C869.061 361.034 863.421 364.493 852.141 364.493C847.754 364.493 843.054 362.921 838.041 359.776C833.654 356.631 830.834 353.485 829.58 350.34C821.434 325.809 810.78 307.567 797.62 295.616C785.086 283.036 770.986 276.745 755.319 276.745C741.532 276.745 728.998 281.149 717.718 289.955C706.437 298.761 700.797 310.712 700.797 325.809C700.797 339.018 706.751 350.969 718.658 361.663C731.191 371.727 746.545 381.791 764.719 391.855C805.453 413.242 834.594 434 852.141 454.128C869.688 473.628 878.462 499.732 878.462 532.441C878.462 573.327 864.988 605.407 838.041 628.68C811.72 651.325 772.552 662.647 720.538 662.647Z" fill="#FEFDFA"/>
<path d="M1269.14 232.767C1319.55 232.767 1361.57 249.09 1395.1 281.766L1396.69 283.334L1396.72 283.362L1396.74 283.391C1402.41 289.681 1405.5 295.602 1405.5 301.106C1405.5 303.303 1404.69 305.87 1403.25 308.74C1401.8 311.634 1399.65 314.962 1396.83 318.716L1396.81 318.742L1396.79 318.766C1391.15 325.651 1384.87 331.91 1377.98 337.543C1371.07 343.18 1364.84 346.236 1359.36 346.236C1353.49 346.236 1347.66 344.606 1341.89 341.407L1341.8 341.357L1341.72 341.295C1336.72 337.558 1331.74 333.512 1326.75 329.157H1326.75C1310.72 315.62 1294.4 304.867 1277.79 296.887L1277.76 296.872L1277.73 296.857C1261.72 288.251 1248.02 284.039 1236.59 284.039C1213.54 284.039 1196.04 293.68 1183.92 313.041C1172.37 331.857 1166.47 363.06 1166.47 406.933C1166.47 437.097 1171.1 463.187 1180.3 485.238C1190.11 506.659 1203.89 523.13 1221.6 534.713C1239.29 546.285 1260.7 552.106 1285.88 552.106C1304.32 552.106 1320.23 549.346 1333.65 543.874C1347.13 537.754 1361.27 528.558 1376.07 516.249L1376.16 516.175L1376.26 516.116C1379.29 514.3 1381.66 512.515 1383.41 510.771L1383.48 510.696L1383.57 510.631C1386.31 508.58 1389.42 507.547 1392.84 507.547C1396.92 507.547 1400.21 508.929 1402.41 511.86C1404.55 514.709 1405.5 518.805 1405.5 523.901C1405.5 526.559 1404.85 530.401 1403.61 535.343C1402.94 539.882 1401.01 544.964 1397.9 550.569C1392.2 563.183 1381.2 577.244 1365.05 592.749C1349.43 608.334 1330.7 621.722 1308.89 632.919C1286.96 644.178 1262.54 649.794 1235.66 649.794C1202.52 649.794 1172.47 641.051 1145.56 623.559L1145.54 623.548L1145.52 623.536C1119.27 605.442 1098.34 581.424 1082.73 551.515L1082.72 551.498L1082.71 551.482C1067.72 520.928 1060.24 486.66 1060.24 448.707C1060.24 408.239 1069.6 371.772 1088.34 339.344C1107.06 306.953 1132.04 281.087 1163.26 261.769L1163.27 261.762C1195.13 242.429 1230.44 232.767 1269.14 232.767Z" fill="#FEFDFA" stroke="#1D1717" stroke-width="3"/>
<path d="M514.625 461.706C506.162 461.706 497.954 460.685 490.003 458.643C482.052 456.601 474.871 453.283 468.459 448.689C466.151 444.861 464.484 438.863 463.458 430.696C462.432 422.528 462.047 413.978 462.304 405.045C462.304 401.982 464.868 400.451 469.998 400.451C472.05 400.451 473.845 401.089 475.384 402.365C476.923 403.641 477.821 404.917 478.077 406.194C482.95 416.913 488.593 426.101 495.005 433.758C501.417 441.16 509.111 444.861 518.088 444.861C525.013 444.861 530.271 442.819 533.861 438.735C537.452 434.396 539.247 429.547 539.247 424.187C539.247 417.551 536.554 412.064 531.168 407.725C526.039 403.131 519.755 398.92 512.317 395.091C504.879 391.263 497.826 386.924 491.157 382.074C484.489 377.225 478.975 371.482 474.615 364.846C470.511 357.955 468.459 349.788 468.459 340.344C468.459 330.39 471.152 321.713 476.538 314.311C482.181 306.909 489.619 301.167 498.852 297.083C508.342 292.744 518.857 290.575 530.399 290.575C538.863 290.575 546.685 291.596 553.867 293.637C561.048 295.424 565.921 297.211 568.486 298.997C570.538 301.55 572.205 306.399 573.487 313.545C574.77 320.437 575.411 328.093 575.411 336.516C575.411 339.323 573.103 340.727 568.486 340.727C566.691 340.727 564.767 340.089 562.715 338.813C560.92 337.537 559.766 336.261 559.253 334.985C555.919 325.031 551.558 317.629 546.172 312.78C541.043 307.675 535.272 305.123 528.86 305.123C523.217 305.123 518.088 306.909 513.471 310.483C508.855 314.056 506.546 318.905 506.546 325.031C506.546 330.39 508.983 335.24 513.856 339.579C518.986 343.662 525.269 347.746 532.707 351.83C549.378 360.508 561.305 368.93 568.486 377.097C575.668 385.01 579.258 395.602 579.258 408.873C579.258 425.463 573.744 438.48 562.715 447.924C551.943 457.112 535.913 461.706 514.625 461.706Z" fill="#FEFDFA"/>
<path d="M649.392 286.158C635.774 286.158 623.165 282.908 611.564 276.407C599.964 269.907 590.633 261.406 583.572 250.905C577.016 240.404 573.737 228.903 573.737 216.401C573.737 199.4 579.033 185.148 589.625 173.647C600.721 162.146 616.86 151.895 638.044 142.894L705.376 113.641C715.463 109.14 721.515 105.14 723.533 101.64C726.055 98.1393 727.316 91.6386 727.316 82.1377L728.072 39.3833C728.577 25.3819 726.055 14.3808 720.507 6.37996C714.959 -2.12089 706.637 -6.37132 695.541 -6.37132C688.984 -6.37132 682.427 -4.87117 675.871 -1.87086C669.314 0.629391 664.27 3.62971 660.74 7.13006C659.227 9.13027 657.966 11.6305 656.957 14.6308C656.453 17.1311 656.201 19.8814 656.201 22.8817C656.201 25.882 656.453 29.6323 656.957 34.1328C657.461 38.1332 657.714 41.6335 657.714 44.6338C657.714 47.6342 653.679 51.6346 645.609 56.6351C637.539 61.1355 628.208 65.386 617.617 69.3864C607.025 72.8867 597.947 74.6369 590.381 74.6369C586.851 74.6369 583.572 73.1368 580.546 70.1364C578.024 67.1361 576.763 63.3858 576.763 58.8853C576.763 50.8845 579.537 43.1337 585.085 35.633C590.633 27.6321 599.712 18.6312 612.321 8.63023C625.434 -2.3709 639.809 -12.1219 655.444 -20.6227C671.079 -29.1236 686.462 -35.8743 701.593 -40.8748C717.228 -45.8753 730.342 -48.3756 740.933 -48.3756C768.169 -48.3756 789.857 -39.6247 805.996 -22.1229C822.136 -5.12117 829.701 17.6311 828.692 46.134L824.91 197.649C824.405 209.151 826.423 218.902 830.962 226.902C835.501 234.903 841.049 238.904 847.606 238.904C857.189 238.904 865.511 235.653 872.572 229.153C874.085 227.652 875.598 226.902 877.111 226.902C879.633 226.902 881.651 227.652 883.164 229.153C885.181 230.653 886.19 232.653 886.19 235.153C886.19 241.154 881.651 248.905 872.572 258.406C862.989 267.406 852.902 274.157 842.31 278.658C831.719 283.658 820.623 286.158 809.022 286.158C780.778 286.158 757.325 271.907 738.664 243.404H737.151C720.507 258.406 705.376 269.157 691.758 275.657C678.645 282.658 664.523 286.158 649.392 286.158ZM694.784 237.403C700.332 237.403 704.872 236.653 708.402 235.153C711.933 233.153 715.463 230.153 718.994 226.152C720.507 224.152 721.768 221.652 722.776 218.652C723.785 215.151 724.289 211.151 724.289 206.65L726.559 152.645C726.559 147.644 725.803 144.394 724.289 142.894C722.776 141.394 721.011 140.644 718.994 140.644C717.985 140.644 716.724 140.894 715.211 141.394C713.698 141.894 711.933 142.644 709.915 143.644C695.289 150.645 684.445 157.895 677.384 165.396C670.323 172.397 666.792 183.898 666.792 199.9C666.792 214.401 669.818 224.402 675.871 229.903C681.923 234.903 688.228 237.403 694.784 237.403Z" fill="#FEFDFA"/>
<path d="M257.547 765.326C197.547 765.326 143.207 749.43 94.5281 717.638C46.981 684.71 9.05653 640.996 -19.2453 586.496C-46.4151 530.86 -60 468.411 -60 399.15C-60 325.347 -43.0189 258.925 -9.05666 199.882C24.9056 140.84 70.1885 93.7197 126.792 58.5214C184.528 23.3231 248.49 5.72398 318.679 5.72398C411.509 5.72398 488.49 36.3806 549.622 97.6937C559.811 109.048 564.905 119.267 564.905 128.35C564.905 135.163 559.811 145.382 549.622 159.007C539.433 171.497 528.113 182.851 515.66 193.07C503.207 203.289 492.452 208.398 483.396 208.398C473.207 208.398 463.018 205.559 452.83 199.882C443.773 193.07 434.716 185.689 425.66 177.741C396.226 152.762 366.226 132.892 335.66 118.131C306.226 102.235 280.754 94.2874 259.245 94.2874C216.226 94.2874 183.396 112.454 160.754 148.788C139.245 183.986 128.49 241.893 128.49 322.509C128.49 378.145 136.981 426.4 153.962 467.276C172.075 507.016 197.547 537.672 230.377 559.246C263.207 580.819 302.83 591.605 349.245 591.605C383.207 591.605 412.641 586.496 437.547 576.277C462.452 564.923 488.49 547.891 515.66 525.183C521.32 521.776 525.848 518.37 529.245 514.964C533.773 511.558 538.867 509.854 544.528 509.854C558.113 509.854 564.905 518.938 564.905 537.105C564.905 541.646 563.773 548.459 561.509 557.542C560.377 565.49 556.98 574.574 551.32 584.793C541.131 607.501 521.32 633.048 491.886 661.434C463.584 689.82 429.622 714.231 390 734.669C350.377 755.107 306.226 765.326 257.547 765.326Z" fill="#FEFDFA"/>
<path d="M425.352 237.183C427.928 237.183 430.076 238.061 431.188 240.193C432.124 241.637 432.524 243.44 432.524 245.476C432.524 248.248 431.938 253.252 430.81 260.39C430.06 267.501 429.498 275.555 429.121 284.553V597.572C429.121 605.696 431.158 610.198 434.514 612.068C438.43 613.694 442.778 615.324 447.562 616.956L449.652 617.66L449.671 617.666L449.69 617.673C453.903 619.201 457.242 620.759 459.653 622.363C462.391 624.184 463.726 626.947 463.727 630.404C463.727 633.567 462.325 636.104 459.653 637.881L459.624 637.9L459.594 637.919C457.376 639.246 454.42 639.83 450.881 639.83C443.669 639.83 436.456 639.64 429.244 639.261H429.239C422.459 638.886 415.679 638.697 408.899 638.697H408.855L408.812 638.695C402.413 638.319 395.824 638.132 389.044 638.132C382.644 638.132 376.243 638.319 369.843 638.695L369.842 638.694C363.802 639.071 357.575 639.447 351.159 639.824C344.677 640.583 337.638 640.962 330.044 640.962C326.484 640.962 323.4 640.37 320.864 639.105L320.722 639.035L320.598 638.935C318.315 637.113 317.197 634.587 317.197 631.537C317.197 628.105 318.513 625.357 321.21 623.536C323.686 621.5 327.079 619.937 331.294 618.784C336.894 616.92 341.718 614.88 345.778 612.671L345.802 612.658L345.826 612.646C349.603 610.762 351.803 606.412 351.803 598.705V326.424C351.803 316.38 350.311 307.708 347.372 300.377L347.36 300.346L347.35 300.315C344.916 293.378 339.378 288.947 330.317 287.138C328.093 286.694 326.305 285.602 325.108 283.811C323.941 282.063 323.438 279.801 323.438 277.176C323.438 274.574 323.885 272.337 324.929 270.601C326.004 268.812 327.64 267.681 329.719 267.22L329.739 267.215L329.761 267.212C339.531 265.337 350.065 262.71 361.364 259.328C372.682 255.563 383.432 251.8 393.614 248.037C403.813 243.891 411.776 240.862 417.489 238.962C420.565 237.814 423.206 237.183 425.352 237.183Z" fill="#FEFDFA" stroke="#1D1717" stroke-width="3"/>
</g>
<defs>
<clipPath id="clip0_2201_214">
<rect width="1440" height="680" fill="white"/>
</clipPath>
</defs>
</svg>
