<svg width="1440" height="172" viewBox="0 0 1440 172" fill="none" xmlns="http://www.w3.org/2000/svg">
<g clip-path="url(#clip0_2201_73)">
<rect width="1440" height="177" fill="#FEFDFA"/>
<path d="M0 170.66C562.355 170.66 877.645 170.66 1440 170.66" stroke="#1D1717" stroke-width="3"/>
<line y1="1.5" x2="1440" y2="1.5" stroke="#1D1717" stroke-width="3"/>
<path d="M40.419 169.578C31.0795 169.578 22.2279 167.99 13.8642 164.814C5.50042 161.776 -1.88755 157.358 -8.29975 151.558C-14.7119 145.759 -19.7999 138.924 -23.5636 131.054C-27.1879 123.183 -29 114.484 -29 104.956C-29 93.9099 -26.9788 84.1752 -22.9363 75.7523C-18.7544 67.3294 -13.1089 60.2874 -5.99972 54.6261C1.24885 48.9648 9.4035 44.6843 18.4642 41.7846C27.5249 38.8849 37.0735 37.4351 47.11 37.4351C54.9162 37.4351 62.3738 38.9539 69.483 41.9917C76.5922 44.8914 82.9347 48.9648 88.5105 54.2118C94.0863 59.3208 98.4773 65.2582 101.683 72.0242C105.029 78.7901 106.702 86.0393 106.702 93.7718C106.702 101.78 104.611 108.754 100.429 114.691C96.3864 120.49 91.0894 124.978 84.5378 128.154C77.9862 131.192 70.9467 132.71 63.4193 132.71C60.6314 132.71 58.5405 132.089 57.1465 130.846C55.7526 129.466 54.7071 128.154 54.0101 126.911C53.4525 125.668 52.8252 125.047 52.1283 125.047C51.4313 125.047 49.9676 125.668 47.7373 126.911C45.6464 128.154 42.9281 129.466 39.5827 130.846C36.2372 132.089 32.3341 132.71 27.8734 132.71C21.043 132.71 15.1884 130.777 10.3096 126.911C5.57012 122.907 3.20039 117.315 3.20039 110.134C3.20039 101.711 5.29133 94.4622 9.4732 88.3867C13.6551 82.1731 19.0915 77.4093 25.7825 74.0954C32.4735 70.6434 39.6524 68.9174 47.3191 68.9174C49.41 68.9174 51.8495 69.1245 54.6374 69.5387C57.5647 69.8149 59.6556 70.1601 60.9102 70.5743C62.4435 71.1267 63.489 71.4719 64.0466 71.6099C64.7436 71.748 65.3011 71.8171 65.7193 71.8171C66.4163 71.8171 67.0436 71.4719 67.6012 70.7815C68.1588 70.0911 68.6467 69.4697 69.0648 68.9174C69.6224 68.227 70.2497 67.8818 70.9467 67.8818C71.2255 67.8818 71.7133 67.9508 72.4103 68.0889C73.1073 68.227 73.7346 68.4341 74.2922 68.7103C74.8498 68.9864 74.9891 69.2626 74.7103 69.5387C73.7346 72.0242 72.7588 74.9929 71.783 78.4449C70.9467 81.8969 70.3891 84.4514 70.1103 86.1084L65.7193 113.448C65.5799 114.415 65.4405 115.381 65.3012 116.348C65.1618 117.176 65.092 118.074 65.092 119.041C65.092 120.559 65.3708 121.94 65.9284 123.183C66.486 124.426 67.4618 125.047 68.8557 125.047C73.7346 125.047 78.2649 123.942 82.4468 121.733C86.7681 119.386 90.253 116.072 92.9015 111.791C95.55 107.511 96.8743 102.54 96.8743 96.8786C96.8743 87.213 94.3651 78.583 89.3469 70.9886C84.468 63.2561 77.9164 57.1115 69.6921 52.5549C61.6072 47.9982 52.6858 45.7199 42.9282 45.7199C34.7038 45.7199 26.8279 47.0317 19.3006 49.6552C11.9126 52.2787 5.29133 56.1449 -0.563293 61.2539C-6.27851 66.2248 -10.8089 72.2313 -14.1544 79.2734C-17.4999 86.3155 -19.1726 94.1861 -19.1726 102.885C-19.1726 111.17 -17.5696 118.833 -14.3635 125.876C-11.018 132.918 -6.48761 139.062 -0.772386 144.309C5.08223 149.694 11.7035 153.837 19.0915 156.736C26.4795 159.774 34.3553 161.293 42.719 161.293C47.3191 161.293 52.2677 160.534 57.5647 159.015C63.0011 157.634 68.2285 155.701 73.2467 153.215C78.2649 150.868 82.5165 148.245 86.0014 145.345C86.6984 144.793 87.3257 144.309 87.8832 143.895C88.5802 143.481 89.2075 143.274 89.7651 143.274C91.7166 143.274 92.6924 144.171 92.6924 145.966C92.6924 147.209 91.0196 149.073 87.6742 151.558C84.4681 154.182 80.2165 156.875 74.9194 159.636C69.7618 162.398 64.1163 164.745 57.9829 166.678C51.9889 168.611 46.1342 169.578 40.419 169.578ZM35.4008 125.668C37.9099 125.668 40.0705 125.254 41.8827 124.426C43.8342 123.597 45.8555 122.493 47.9464 121.112C49.201 120.283 50.3161 119.179 51.2919 117.798C52.2677 116.417 53.0343 114.139 53.5919 110.963L57.5647 89.6294C57.7041 89.2152 57.7738 88.8009 57.7738 88.3867C57.7738 87.9725 57.7738 87.5582 57.7738 87.144C57.7738 83.2777 56.3798 80.309 53.5919 78.2378C50.804 76.1666 47.1797 75.131 42.719 75.131C38.816 75.131 34.9129 76.3047 31.0098 78.652C27.2461 80.9994 24.1097 84.5205 21.6006 89.2152C19.2309 93.7718 18.046 99.4331 18.046 106.199C18.046 111.17 18.9521 115.105 20.7642 118.005C22.5764 120.767 24.8067 122.769 27.4552 124.011C30.1037 125.116 32.7523 125.668 35.4008 125.668Z" fill="#1D1717"/>
<path d="M144.531 169.578C143.973 169.578 143.484 169.302 143.065 168.749C142.646 168.196 142.437 167.643 142.437 167.09V166.468L151.654 129.774L138.456 130.396C137.758 130.396 137.06 130.189 136.361 129.774C135.803 129.221 135.523 128.599 135.523 127.908C135.523 127.217 135.593 126.112 135.733 124.591C136.012 122.933 136.501 121.412 137.199 120.03C138.037 118.648 139.154 117.957 140.551 117.957L154.587 117.335L161.71 88.7263L148.302 89.3482C147.604 89.3482 146.906 89.1409 146.207 88.7263C145.649 88.1734 145.369 87.5515 145.369 86.8605C145.369 86.1694 145.439 85.0638 145.579 83.5435C145.858 81.885 146.347 80.3647 147.045 78.9826C147.883 77.6005 149.001 76.9095 150.397 76.9095L164.852 76.2875L173.651 40.8372C173.93 39.3169 174.768 38.3495 176.165 37.9348C177.701 37.5202 179.168 37.3129 180.564 37.3129C181.123 37.3129 181.542 37.5893 181.821 38.1422C182.101 38.5568 182.24 39.1096 182.24 39.8006C182.24 39.9389 182.17 40.0771 182.031 40.2153C182.031 40.3535 182.031 40.5608 182.031 40.8372L173.442 75.8729L197.114 74.6291L206.123 38.5568C206.402 37.0365 207.24 36.069 208.636 35.6544C210.173 35.2398 211.639 35.0325 213.036 35.0325C213.595 35.0325 214.013 35.3089 214.293 35.8617C214.572 36.2763 214.712 36.8292 214.712 37.5202C214.712 37.6584 214.642 37.7966 214.502 37.9348C214.502 38.073 214.502 38.2804 214.502 38.5568L205.704 74.2144L218.064 73.5925C218.762 73.5925 219.39 73.7998 219.949 74.2144C220.508 74.629 220.787 75.1819 220.787 75.8729C220.787 76.564 220.578 77.7387 220.159 79.3972C219.74 80.9175 219.041 82.3687 218.064 83.7508C217.086 85.1329 215.829 85.893 214.293 86.0312L202.561 86.6531L195.438 115.262L208.217 114.64C208.916 114.64 209.544 114.917 210.103 115.47C210.662 115.884 210.941 116.437 210.941 117.128C210.941 117.819 210.731 118.994 210.312 120.652C209.893 122.173 209.195 123.624 208.217 125.006C207.24 126.25 205.983 126.941 204.447 127.079L192.296 127.701L183.288 164.188C183.008 165.57 182.24 166.399 180.983 166.676C179.726 167.09 178.4 167.297 177.003 167.297C176.444 167.297 175.956 167.021 175.537 166.468C175.118 165.915 174.908 165.363 174.908 164.81V164.188L183.916 128.116L160.034 129.359L150.816 166.468C150.537 167.85 149.769 168.68 148.512 168.956C147.255 169.371 145.928 169.578 144.531 169.578ZM163.176 116.921L187.059 115.677L193.972 87.0678L170.299 88.3116L163.176 116.921Z" fill="#1D1717"/>
<path d="M286.131 169.578C278.995 169.578 272.628 168.322 267.03 165.81C261.573 163.158 257.305 159.599 254.226 155.133C251.148 150.667 249.609 145.573 249.609 139.851C249.609 128.686 252.897 119.544 259.474 112.426C266.191 105.308 274.587 99.4467 284.662 94.8411L288.86 92.957L285.711 89.6074C284.452 88.0722 282.703 86.1881 280.464 83.9551C278.365 81.722 276.406 79.0703 274.587 75.9999C272.908 72.7899 272.068 69.1612 272.068 65.1139C272.068 60.2291 273.467 55.9724 276.266 52.3437C279.205 48.715 282.913 45.9237 287.391 43.9698C291.868 42.0159 296.486 41.039 301.244 41.039C307.261 41.039 312.229 42.4346 316.147 45.2259C320.065 47.8776 323.003 51.2272 324.963 55.2746C326.922 59.1824 327.901 62.9506 327.901 66.5793C328.041 71.8827 326.152 76.4884 322.234 80.3962C318.316 84.304 312.858 87.514 305.862 90.0261L302.923 91.0729L305.652 94.0037C310.969 99.7259 315.797 104.68 320.135 108.867C324.473 113.054 328.741 118.218 332.939 124.359L335.458 128.127L339.236 124.15C342.594 120.521 346.022 116.474 349.521 112.008C353.159 107.541 356.168 103.494 358.546 99.8654C361.065 96.0972 362.325 93.7246 362.325 92.7476C362.325 91.9102 361.765 90.7937 360.645 89.3981C359.666 88.0024 358.267 87.1651 356.447 86.8859C356.168 86.7464 355.678 86.3974 354.978 85.8392C354.279 85.2809 353.929 84.8622 353.929 84.5831C353.929 83.4666 354.558 82.8386 355.818 82.699C357.217 82.4199 358.127 82.2803 358.546 82.2803C358.966 82.2803 360.156 82.3501 362.115 82.4896C364.214 82.6292 366.383 82.8386 368.622 83.1177C370.861 83.2572 372.47 83.327 373.449 83.327C375.548 83.327 377.857 83.1177 380.376 82.699C382.895 82.1407 385.274 81.5825 387.513 81.0242C389.891 80.466 391.92 80.1868 393.6 80.1868C393.88 80.1868 394.369 80.3962 395.069 80.8149C395.769 81.2336 396.118 81.6522 396.118 82.0709C396.118 82.9083 395.489 83.7457 394.229 84.5831C392.97 85.4205 391.851 85.909 390.871 86.0485C387.653 86.1881 384.714 86.9557 382.055 88.3513C379.396 89.6074 377.228 91.0031 375.548 92.5383C374.989 92.957 373.379 94.562 370.721 97.3533C368.062 100.145 364.843 103.494 361.065 107.402C357.427 111.17 353.859 114.938 350.36 118.707C346.862 122.475 343.923 125.615 341.545 128.127C339.166 130.639 337.976 131.895 337.976 131.895L341.545 136.92C346.022 143.34 350.43 148.504 354.768 152.411C359.106 156.18 363.934 158.064 369.251 158.064C372.19 158.064 374.989 157.785 377.647 157.226C380.446 156.668 383.105 155.691 385.623 154.296C386.183 154.016 386.743 153.807 387.303 153.668C388.002 153.388 388.632 153.249 389.192 153.249C390.171 153.249 390.801 153.458 391.081 153.877C391.501 154.156 391.711 154.784 391.711 155.761C391.711 156.878 390.241 158.552 387.303 160.785C384.364 163.018 380.796 165.042 376.598 166.856C372.54 168.671 368.552 169.578 364.634 169.578C359.456 169.578 355.118 168.671 351.62 166.856C348.121 165.182 344.903 162.6 341.964 159.111C339.166 155.482 335.947 150.876 332.309 145.294L329.58 140.897L328.321 142.153C323.983 146.899 319.785 151.365 315.727 155.552C311.809 159.739 307.541 163.158 302.923 165.81C298.305 168.322 292.708 169.578 286.131 169.578ZM291.589 155.97C298.585 155.97 304.602 154.505 309.64 151.574C314.817 148.643 319.995 144.456 325.172 139.013L327.062 137.129L324.543 133.152C321.044 127.848 316.637 122.475 311.319 117.032C306.142 111.589 300.544 105.657 294.527 99.2374L292.008 96.5159L287.6 98.1907C281.164 100.703 276.336 103.913 273.117 107.821C270.039 111.589 268.01 115.706 267.03 120.172C266.191 124.499 265.771 128.755 265.771 132.942C265.771 139.362 268.15 144.805 272.908 149.271C277.665 153.737 283.892 155.97 291.589 155.97ZM300.194 87.7233L302.923 86.4672C306.841 84.6529 309.71 81.7918 311.529 77.884C313.488 73.8366 314.468 69.7195 314.468 65.5325C314.468 60.6478 313.278 56.2515 310.899 52.3437C308.66 48.4359 305.092 46.482 300.194 46.482C295.996 46.482 292.288 47.8079 289.07 50.4596C285.851 52.9717 284.242 56.1119 284.242 59.8802C284.242 62.6715 284.522 65.1836 285.082 67.4167C285.641 69.6497 286.831 72.0223 288.65 74.5345C290.469 77.0466 293.198 80.2566 296.836 84.1644L300.194 87.7233Z" fill="#1D1717"/>
<path d="M438.214 190C437.368 190 436.593 189.652 435.889 188.956C435.185 188.26 434.903 187.216 435.044 185.824L436.946 171C437.087 170.304 436.946 169.817 436.523 169.539C436.1 169.26 435.748 169.121 435.466 169.121C431.522 168.425 427.788 167.312 424.266 165.78C420.884 164.249 417.785 162.37 414.967 160.143C414.545 159.586 414.051 159.03 413.488 158.473C413.065 157.777 412.713 157.081 412.431 156.385C411.727 153.74 411.304 150.469 411.163 146.572C411.022 142.535 410.811 139.194 410.529 136.55C410.529 134.879 411.797 134.044 414.333 134.044C415.038 134.044 415.672 134.184 416.235 134.462C416.94 134.74 417.362 135.297 417.503 136.132C419.476 142.953 422.082 148.312 425.322 152.209C428.563 156.106 432.156 158.821 436.1 160.352C436.523 160.491 436.946 160.561 437.368 160.561C437.791 160.561 438.002 160.352 438.002 159.934L443.708 112.121C443.849 111.565 443.779 111.008 443.497 110.451C443.215 109.894 442.44 109.268 441.172 108.572C436.664 105.927 432.296 103.074 428.07 100.012C423.843 96.9493 420.391 93.4695 417.715 89.572C415.179 85.5354 413.911 80.8725 413.911 75.5831C413.911 69.5978 415.249 64.0997 417.926 59.0887C420.744 53.9385 424.9 49.7628 430.394 46.5613C436.03 43.2207 442.933 41.3416 451.105 40.924C452.514 40.924 453.218 40.5064 453.218 39.6712L454.698 27.7702C454.979 26.3783 455.684 25.4735 456.811 25.0559C458.079 24.4992 459.417 24.2208 460.826 24.2208C461.531 24.2208 462.165 24.5688 462.728 25.2647C463.292 25.9607 463.573 26.6567 463.573 27.3526C463.573 28.0486 463.433 29.3013 463.151 31.1108C462.869 32.7812 462.658 34.5211 462.517 36.3306C462.376 38.0009 462.235 39.1841 462.094 39.88C462.094 40.7152 462.517 41.2024 463.362 41.3415C466.18 41.8983 468.716 42.5943 470.97 43.4295C473.224 44.1254 475.126 44.8214 476.676 45.5174C477.803 45.7957 478.719 46.4221 479.423 47.3965C480.128 48.2316 480.621 49.1364 480.903 50.1107C481.607 52.7554 482.452 55.8177 483.439 59.2975C484.425 62.6381 484.918 65.77 484.918 68.693C484.918 69.5282 484.566 70.085 483.861 70.3634C483.298 70.6417 482.664 70.7809 481.959 70.7809C480.691 70.7809 479.494 70.5721 478.367 70.1546C477.24 69.5978 476.535 68.9714 476.253 68.2755C474.281 63.5429 472.027 59.7151 469.491 56.792C467.096 53.7298 464.278 51.5027 461.037 50.1107C460.474 50.1107 460.192 50.4587 460.192 51.1547L455.12 92.4951C454.979 93.3303 454.979 93.887 455.12 94.1654C455.402 94.4438 456.247 95.1398 457.656 96.2533C462.305 98.898 466.814 101.821 471.181 105.022C475.549 108.224 479.142 112.052 481.959 116.506C484.777 120.821 486.186 126.11 486.186 132.374C486.186 142.953 482.664 151.652 475.619 158.473C468.575 165.154 459.136 168.843 447.301 169.539C446.174 169.539 445.54 170.026 445.399 171L443.497 186.868C443.356 187.982 442.722 188.747 441.595 189.165C440.468 189.722 439.341 190 438.214 190ZM448.358 161.813C454.557 161.396 459.629 159.308 463.573 155.55C467.518 151.652 469.491 146.433 469.491 139.89C469.491 133.488 468.011 128.616 465.053 125.275C462.235 121.934 458.361 118.733 453.43 115.671C452.443 115.114 451.95 115.462 451.95 116.715L446.667 159.725C446.667 161.117 447.23 161.813 448.358 161.813ZM444.976 88.5281C446.244 89.0849 446.878 89.0153 446.878 88.3193L451.528 50.3195C451.528 49.206 451.034 48.6492 450.048 48.6492C444.554 49.0668 439.904 50.7371 436.1 53.6602C432.296 56.5832 430.394 61.7334 430.394 69.1106C430.394 73.008 431.733 76.4879 434.41 79.5501C437.087 82.6124 440.609 85.605 444.976 88.5281Z" fill="#1D1717"/>
<path d="M541.575 103.113C535.717 103.113 530.836 101.309 526.931 97.6999C523.026 93.9523 520.028 89.3024 517.936 83.7503C515.984 78.1982 515.008 72.5074 515.008 66.6777C515.008 60.4316 516.193 54.5325 518.564 48.9804C521.074 43.2895 524.63 38.7091 529.232 35.239C533.835 31.6302 539.204 29.8257 545.34 29.8257C551.058 29.8257 555.799 31.5608 559.565 35.0308C563.47 38.3621 566.398 42.6649 568.351 47.9394C570.443 53.2139 571.489 58.6966 571.489 64.3874C571.489 70.6335 570.303 76.7408 567.932 82.7093C565.701 88.6778 562.354 93.6053 557.891 97.4917C553.429 101.239 547.99 103.113 541.575 103.113ZM543.876 98.5327C548.478 98.5327 551.825 96.8671 553.917 93.5359C556.148 90.2046 557.543 86.11 558.1 81.2519C558.658 76.255 558.937 71.4663 558.937 66.8859C558.937 62.1666 558.589 57.3779 557.891 52.5199C557.194 47.6618 555.73 43.5671 553.498 40.2359C551.267 36.7658 547.78 35.0308 543.039 35.0308C538.716 35.0308 535.438 36.627 533.207 39.8195C530.976 42.8731 529.442 46.6902 528.605 51.2707C527.907 55.7123 527.559 60.0846 527.559 64.3874C527.559 68.1351 527.698 72.0216 527.977 76.0468C528.396 79.9333 529.093 83.6115 530.069 87.0816C531.185 90.4128 532.789 93.1889 534.88 95.4097C537.112 97.4917 540.11 98.5327 543.876 98.5327ZM616.883 22.955C617.859 21.4282 618.974 20.4566 620.23 20.0402C621.624 19.6238 623.228 19.4156 625.041 19.4156C625.738 19.4156 626.366 19.6932 626.924 20.2484C627.621 20.8036 627.97 21.4282 627.97 22.1222C627.97 22.5386 627.9 22.8162 627.76 22.955L536.136 167.656C535.299 169.044 534.183 169.877 532.789 170.155C531.533 170.571 530.139 170.779 528.605 170.779C527.768 170.779 526.931 170.502 526.095 169.946C525.397 169.391 525.049 168.836 525.049 168.281C525.049 168.003 525.118 167.795 525.258 167.656L616.883 22.955ZM614.791 161.41C608.933 161.41 604.052 159.606 600.147 155.997C596.243 152.249 593.244 147.599 591.152 142.047C589.2 136.495 588.224 130.804 588.224 124.975C588.224 118.728 589.409 112.829 591.78 107.277C594.29 101.586 597.846 97.0059 602.449 93.5359C607.051 89.927 612.42 88.1226 618.556 88.1226C624.274 88.1226 629.016 89.8576 632.781 93.3277C636.686 96.6589 639.614 100.962 641.567 106.236C643.659 111.511 644.705 116.993 644.705 122.684C644.705 128.93 643.519 135.038 641.148 141.006C638.917 146.975 635.57 151.902 631.107 155.789C626.645 159.536 621.206 161.41 614.791 161.41ZM617.092 156.83C621.694 156.83 625.041 155.164 627.133 151.833C629.364 148.501 630.759 144.407 631.317 139.549C631.874 134.552 632.153 129.763 632.153 125.183C632.153 120.463 631.805 115.675 631.107 110.817C630.41 105.959 628.946 101.864 626.714 98.5327C624.483 95.0627 620.997 93.3277 616.255 93.3277C611.932 93.3277 608.654 94.9239 606.423 98.1163C604.192 101.17 602.658 104.987 601.821 109.568C601.124 114.009 600.775 118.381 600.775 122.684C600.775 126.432 600.914 130.318 601.193 134.344C601.612 138.23 602.309 141.908 603.285 145.378C604.401 148.71 606.005 151.486 608.097 153.707C610.328 155.789 613.326 156.83 617.092 156.83Z" fill="#1D1717"/>
<path d="M645.951 170.779C644.143 170.779 642.682 170.569 641.57 170.149C640.457 169.869 639.901 169.31 639.901 168.47C639.901 167.49 640.457 166.65 641.57 165.95C642.822 165.25 644.56 164.551 646.785 163.851C650.401 162.731 654.156 160.282 658.05 156.502C662.083 152.723 665.56 148.314 668.48 143.275L725.43 45.0171C725.986 44.1773 725.847 43.4075 725.013 42.7076C724.317 42.0078 723.274 41.5879 721.884 41.4479L703.526 38.2986C702.831 38.0187 702.275 37.6688 701.857 37.2488C701.579 36.689 701.44 36.1291 701.44 35.5692C701.44 33.8896 702.135 33.0498 703.526 33.0498C707.976 33.0498 713.4 33.1898 719.798 33.4697C726.195 33.6097 732.94 33.6796 740.032 33.6796C745.734 33.6796 751.784 33.6097 758.181 33.4697C764.579 33.3297 770.767 33.2597 776.747 33.2597C782.866 33.1198 788.36 32.9798 793.227 32.8398C798.095 32.6999 801.85 32.6299 804.492 32.6299C805.187 32.6299 805.952 32.7698 806.787 33.0498C807.621 33.3297 808.108 33.8196 808.247 34.5194C808.942 38.4386 809.499 42.1478 809.916 45.647C810.333 49.0062 810.611 52.5055 810.75 56.1447C810.75 56.7045 810.402 57.1944 809.707 57.6143C809.151 57.8943 808.525 58.0342 807.83 58.0342C807.134 58.0342 806.648 57.8943 806.369 57.6143C806.091 57.1944 805.813 56.6345 805.535 55.9347C804.84 53.5552 804.075 51.5257 803.24 49.8461C802.545 48.0265 801.711 46.6268 800.737 45.647C798.79 43.4075 796.634 41.9378 794.27 41.238C791.906 40.3981 789.403 39.9782 786.76 39.9782H759.433C758.32 39.9782 756.791 40.3981 754.844 41.238C753.036 42.0778 752.132 43.4775 752.132 45.437V96.4557C752.132 97.5755 752.479 98.6252 753.175 99.605C753.87 100.585 754.704 101.075 755.678 101.075C760.128 101.075 763.953 101.075 767.151 101.075C770.35 100.935 773.201 100.795 775.704 100.655C777.651 100.515 779.32 100.165 780.711 99.605C782.241 98.9052 783.631 97.9954 784.883 96.8756C786.83 95.196 788.151 93.3764 788.846 91.4168C789.681 89.3173 790.793 88.2675 792.184 88.2675C792.74 88.2675 793.366 88.6175 794.062 89.3173C794.757 89.8772 795.035 90.647 794.896 91.6268C794.757 94.0063 794.618 96.1758 794.479 98.1353C794.34 100.095 794.27 102.054 794.27 104.014C794.27 106.394 794.34 108.773 794.479 111.152C794.618 113.532 794.757 116.261 794.896 119.341C794.896 120.32 794.757 121.16 794.479 121.86C794.34 122.56 793.853 122.91 793.019 122.91C791.628 122.91 790.515 122.28 789.681 121.02C788.986 119.761 788.499 118.781 788.221 118.081C787.247 114.862 785.787 112.552 783.84 111.152C781.893 109.753 780.085 108.983 778.416 108.843C774.105 108.563 770.42 108.423 767.36 108.423C764.439 108.423 760.963 108.423 756.93 108.423C755.678 108.423 754.565 108.843 753.592 109.683C752.618 110.383 752.132 111.572 752.132 113.252V146.425C752.132 150.344 753.175 153.983 755.261 157.342C757.486 160.701 760.963 162.381 765.691 162.381H787.386C787.803 162.381 789.125 162.241 791.35 161.961C793.575 161.541 795.87 161.051 798.234 160.492C800.737 159.932 802.406 159.302 803.24 158.602C805.187 157.062 806.926 154.963 808.456 152.303C809.985 149.504 811.167 147.194 812.002 145.375C812.419 144.535 812.836 143.975 813.253 143.695C813.671 143.275 814.227 143.135 814.922 143.275C816.73 143.555 817.634 144.325 817.634 145.585C817.634 149.504 817.217 153.283 816.383 156.922C815.687 160.562 814.922 163.991 814.088 167.21C813.949 168.05 813.671 168.89 813.253 169.729C812.975 170.429 812.28 170.779 811.167 170.779C805.187 170.779 799.416 170.709 793.853 170.569C788.29 170.429 782.797 170.289 777.373 170.149C771.949 170.009 766.456 169.869 760.893 169.729C755.33 169.589 749.559 169.52 743.579 169.52C740.519 169.52 737.877 169.589 735.652 169.729C733.427 170.009 731.132 170.219 728.768 170.359C726.403 170.639 723.344 170.779 719.589 170.779C717.781 170.779 716.321 170.569 715.208 170.149C714.096 169.869 713.539 169.31 713.539 168.47C713.539 166.79 715.834 165.53 720.423 164.691C725.569 163.711 729.393 162.171 731.897 160.072C734.4 157.832 735.652 154.333 735.652 149.574V113.672C735.652 112.552 735.374 111.642 734.817 110.943C734.4 110.243 733.148 109.893 731.062 109.893H701.649C700.119 109.893 698.867 110.383 697.894 111.362C696.92 112.202 696.086 113.322 695.391 114.722C692.748 119.481 690.036 124.31 687.255 129.208C684.613 133.967 681.622 139.636 678.285 146.215C677.033 148.454 676.407 150.554 676.407 152.513C676.407 155.873 677.868 158.392 680.788 160.072C683.848 161.611 686.907 162.731 689.967 163.431C694.556 164.691 696.851 166.09 696.851 167.63C696.851 168.47 696.295 169.1 695.182 169.52C694.069 169.799 692.609 169.939 690.801 169.939C688.993 169.939 686.351 169.869 682.874 169.729C679.536 169.589 675.99 169.52 672.235 169.52C667.507 169.52 662.778 169.729 658.05 170.149C653.461 170.569 649.427 170.779 645.951 170.779ZM706.447 100.865H732.314C733.844 100.865 734.748 100.725 735.026 100.445C735.443 100.165 735.652 99.2551 735.652 97.7154V47.9565C735.652 45.437 735.443 44.1773 735.026 44.1773C734.609 44.1773 733.705 45.367 732.314 47.7465L703.943 97.7154C703.387 98.6952 703.109 99.3951 703.109 99.815C703.109 100.235 703.387 100.515 703.943 100.655C704.5 100.795 705.334 100.865 706.447 100.865Z" fill="#1D1717"/>
<path d="M877.869 180.39C876.203 180.39 874.606 180.111 873.079 179.555C871.551 178.998 870.302 178.163 869.329 177.05C868.357 175.937 867.871 174.615 867.871 173.085C867.871 170.998 867.941 167.38 868.08 162.232C868.357 157.222 868.635 151.378 868.913 144.7C869.191 138.16 869.399 131.551 869.538 124.872C862.595 123.48 856.276 120.489 850.583 115.897C844.89 111.305 840.377 105.74 837.044 99.2C833.711 92.6603 832.045 85.7032 832.045 78.3286C832.045 70.1192 833.642 62.6751 836.836 55.9962C840.168 49.1783 844.612 43.3343 850.167 38.4643C855.86 33.5943 862.386 29.8375 869.746 27.1938C877.106 24.4109 884.813 23.0195 892.867 23.0195C895.922 23.0195 898.56 23.5761 900.782 24.6892C903.142 25.8023 904.878 27.2633 905.989 29.0722C907.1 30.881 907.378 32.829 906.822 34.9162C913.765 37.2816 919.25 41.8037 923.277 48.4826C927.304 55.1614 929.318 62.4664 929.318 70.3975C929.318 80.2766 927.096 89.3905 922.652 97.739C918.209 106.088 912.099 112.836 904.323 117.984C896.546 122.993 887.659 125.498 877.661 125.498C877.8 134.96 878.147 143.378 878.703 150.752C879.258 158.266 879.744 164.18 880.161 168.493C880.716 172.806 880.994 175.033 880.994 175.172C880.994 176.424 880.855 177.607 880.577 178.72C880.438 179.833 879.536 180.39 877.869 180.39ZM869.746 110.471C869.746 102.122 869.954 93.4256 870.371 84.3813C870.926 75.3371 872.107 66.9189 873.912 59.127C875.717 51.1958 878.564 44.9344 882.452 40.3427C874.953 41.7341 867.941 44.3778 861.414 48.2738C855.027 52.0307 849.889 56.9007 846.001 62.8838C842.112 68.8669 840.168 75.7545 840.168 83.5465C840.168 88.5556 841.418 92.9386 843.918 96.6954C846.556 100.452 850.097 103.513 854.541 105.879C858.984 108.244 864.053 109.775 869.746 110.471ZM877.453 110.888C884.674 110.888 891.617 109.427 898.282 106.505C904.948 103.444 910.363 99.2 914.529 93.7734C918.834 88.3469 920.986 81.9463 920.986 74.5718C920.986 70.3975 920.153 66.4319 918.487 62.6751C916.959 58.7791 914.668 55.6484 911.613 53.283C908.558 50.7784 904.948 49.5261 900.782 49.5261C896.616 49.5261 893.144 50.9871 890.367 53.9091C887.729 56.8311 885.507 60.7271 883.702 65.5971C882.035 70.3279 880.716 75.4762 879.744 81.0419C878.911 86.4684 878.286 91.8254 877.869 97.1128C877.592 102.4 877.453 106.992 877.453 110.888Z" fill="#1D1717"/>
<path d="M978.816 176.786C975.196 176.786 972.133 176.095 969.626 174.712C967.12 173.468 965.867 171.948 965.867 170.151C965.867 169.184 966.215 167.594 966.911 165.383C967.747 163.171 969.348 161.167 971.715 159.37C972.411 158.817 973.177 158.748 974.012 159.163C974.987 159.715 975.753 160.199 976.31 160.614C978.12 162.134 980.347 163.309 982.993 164.139C985.778 165.106 988.353 165.59 990.72 165.59C994.341 165.59 997.056 164.069 998.866 161.029C1000.68 158.126 1001.58 153.979 1001.58 148.589C1001.58 145.133 1000.33 141.54 997.821 137.808C995.454 134.076 992.391 130.344 988.632 126.612C985.012 122.742 981.392 118.94 977.772 115.208C971.367 108.712 966.494 102.423 963.152 96.3414C959.81 90.1215 958.139 83.9707 958.139 77.889C958.139 71.669 958.696 66.3475 959.81 61.9245C961.063 57.3632 962.734 53.3548 964.823 49.8993C966.911 46.3056 969.278 42.9192 971.924 39.7401C973.038 35.7317 974.917 31.7233 977.563 27.7149C980.208 23.5683 983.55 20.1819 987.588 17.5557C991.625 14.7913 996.081 13.4091 1000.95 13.4091C1003.6 13.4091 1006.38 13.8237 1009.31 14.6531C1012.37 15.3442 1014.46 16.2426 1015.57 17.3484C1016.27 17.9013 1016.83 18.4541 1017.24 19.007C1017.8 19.5599 1018.08 20.251 1018.08 21.0803C1018.08 21.3568 1017.73 22.3243 1017.04 23.983C1016.34 25.5034 1015.36 27.0238 1014.11 28.5442C1013 30.0647 1011.68 30.8249 1010.14 30.8249C1009.17 30.8249 1008.26 30.4102 1007.43 29.5809C1005.34 27.6458 1003.11 25.9872 1000.75 24.605C998.518 23.2228 996.429 22.5316 994.48 22.5316C990.303 22.5316 987.1 23.9138 984.873 26.6783C982.784 29.3044 981.74 32.2762 981.74 35.5935C981.74 38.0814 982.645 41.0532 984.455 44.5087C986.404 47.826 989.05 51.3506 992.391 55.0826C995.733 58.8145 999.423 62.5465 1003.46 66.2784C1009.31 71.3926 1013.83 76.4376 1017.04 81.4136C1020.24 86.2513 1022.4 91.2272 1023.51 96.3414C1024.76 101.456 1025.39 107.053 1025.39 113.135C1025.39 121.152 1023.79 129.169 1020.59 137.186C1017.38 145.064 1013.14 152.252 1007.85 158.748C1002.56 165.383 996.638 170.635 990.094 174.505C988.562 175.473 986.752 176.095 984.664 176.371C982.714 176.648 980.765 176.786 978.816 176.786ZM1012.86 135.527C1013.14 136.08 1013.49 136.356 1013.9 136.356C1014.46 136.218 1014.81 135.942 1014.95 135.527C1015.64 132.762 1016.2 130.275 1016.62 128.063C1017.04 125.713 1017.24 123.156 1017.24 120.392C1017.24 113.204 1015.64 106.777 1012.44 101.11C1009.38 95.3047 1004.71 89.223 998.448 82.8649C995.524 79.824 992.252 76.5068 988.632 72.913C985.151 69.1811 981.879 65.4491 978.816 61.7172C975.892 57.847 973.873 54.3224 972.759 51.1433C972.62 50.5904 972.272 50.3831 971.715 50.5213C971.158 50.5213 970.81 50.7286 970.671 51.1433C969.974 53.9077 969.417 56.4648 969 58.8145C968.582 61.0261 968.373 63.514 968.373 66.2784C968.373 73.4659 969.905 79.8932 972.968 85.5602C976.17 91.2272 980.904 97.3089 987.17 103.805C990.094 106.708 993.296 110.025 996.777 113.757C1000.4 117.489 1003.67 121.29 1006.59 125.16C1009.66 128.892 1011.74 132.348 1012.86 135.527Z" fill="#1D1717"/>
<path d="M1088.97 169.578C1087.99 169.578 1087.16 169.299 1086.47 168.742C1085.77 168.185 1085.5 167.418 1085.64 166.443L1087.3 150.558C1081.47 149.443 1075.99 146.935 1070.86 143.034C1065.87 138.993 1061.84 133.977 1058.79 127.985C1055.74 121.993 1054.21 115.584 1054.21 108.756C1054.21 100.814 1056.02 93.4287 1059.62 86.6011C1063.23 79.7734 1068.22 74.1301 1074.61 69.6713C1080.99 65.2124 1088.27 62.6346 1096.46 61.9379L1097.29 49.3973C1097.43 48.2826 1097.91 47.4466 1098.75 46.8892C1099.72 46.1925 1100.76 45.8442 1101.87 45.8442C1102.7 45.8442 1103.39 46.2622 1103.95 47.0982C1104.5 47.7949 1104.71 48.5613 1104.57 49.3973L1103.74 61.7289C1107.77 61.8682 1111.79 62.7043 1115.81 64.237C1119.84 65.7698 1123.23 68.2779 1126.01 71.7614C1126.56 72.4581 1126.84 73.2941 1126.84 74.2695C1126.84 75.6629 1125.94 77.1956 1124.14 78.8677C1122.33 80.5398 1120.67 81.3758 1119.14 81.3758C1116.92 81.3758 1115.47 80.6791 1114.77 79.2857C1113.38 76.6383 1111.72 74.4088 1109.78 72.5974C1107.97 70.786 1105.68 69.5319 1102.91 68.8352L1095.83 138.435C1096.39 138.575 1096.87 138.644 1097.29 138.644C1097.85 138.644 1098.4 138.644 1098.96 138.644C1103.39 138.644 1107.83 138.157 1112.27 137.181C1116.71 136.067 1120.25 133.559 1122.89 129.657C1123.3 128.96 1123.93 128.612 1124.76 128.612C1126.56 128.612 1127.47 129.448 1127.47 131.12C1127.47 131.259 1127.47 131.399 1127.47 131.538C1127.47 131.677 1127.4 131.817 1127.26 131.956C1123.37 138.366 1118.8 143.103 1113.52 146.169C1108.25 149.095 1101.87 150.697 1094.38 150.976L1092.92 166.443C1092.78 167.418 1092.3 168.185 1091.46 168.742C1090.77 169.299 1089.94 169.578 1088.97 169.578ZM1088.55 136.972L1095.83 67.7902H1095.42C1089.87 67.7902 1085.01 69.5319 1080.85 73.0154C1076.83 76.4989 1073.7 80.8185 1071.48 85.974C1069.26 91.1296 1068.15 96.3548 1068.15 101.65C1068.15 110.707 1070.03 118.301 1073.77 124.432C1077.66 130.423 1082.58 134.604 1088.55 136.972Z" fill="#1D1717"/>
<path d="M1180.03 169.578C1178.93 169.578 1178.17 169.094 1177.76 168.125C1177.21 166.603 1176.45 164.528 1175.49 161.899C1174.52 159.409 1173.69 157.264 1173.01 155.465L1144.28 63.1107L1162.26 62.4881L1181.48 134.504C1181.62 135.057 1181.96 135.403 1182.51 135.542C1183.2 135.68 1183.62 135.265 1183.75 134.296L1210.83 8.94323C1211.1 7.698 1211.45 6.72949 1211.86 6.03769C1212.41 5.3459 1213.1 5 1213.93 5H1241.41C1241.69 8.0439 1241.55 11.157 1241 14.3392C1240.59 17.3831 1239.83 20.4962 1238.73 23.6785L1218.68 23.4709C1217.85 23.4709 1217.16 23.6093 1216.61 23.886C1216.06 24.1627 1215.65 24.8545 1215.37 25.9614L1187.27 150.692C1187.13 151.384 1186.78 152.698 1186.23 154.635C1185.82 156.572 1185.27 158.648 1184.58 160.861C1183.89 163.075 1183.13 165.012 1182.31 166.672C1182.17 167.087 1181.82 167.641 1181.27 168.333C1180.86 169.163 1180.45 169.578 1180.03 169.578Z" fill="#1D1717"/>
<path d="M1252.99 101.601C1252.3 101.601 1251.6 101.324 1250.91 100.77C1250.36 100.216 1250.08 99.6617 1250.08 99.1078C1250.08 98.1383 1250.56 97.1688 1251.54 96.1994C1252.51 95.2299 1253.68 94.6759 1255.07 94.5374L1316.64 90.3825C1317.33 90.3825 1317.95 90.6595 1318.51 91.2135C1319.06 91.7675 1319.34 92.3215 1319.34 92.8755C1319.34 93.5679 1318.65 94.4682 1317.26 95.5761C1315.87 96.6841 1314.42 97.3073 1312.89 97.4458L1252.99 101.601ZM1309.98 170.779C1303.6 170.779 1298.06 169.602 1293.34 167.248C1288.63 164.893 1283.43 161.777 1277.74 157.899C1276.22 156.791 1274.55 155.822 1272.75 154.991C1270.95 154.021 1269.28 153.26 1267.76 152.706C1266.23 152.152 1265.12 151.875 1264.43 151.875C1264.01 151.875 1263.25 152.359 1262.14 153.329C1261.03 154.298 1259.85 155.545 1258.61 157.068C1257.36 158.592 1256.25 160.254 1255.28 162.054C1252.92 166.486 1249.94 168.563 1246.34 168.286C1244.95 168.286 1243.84 167.732 1243.01 166.624C1242.04 165.655 1241.55 164.131 1241.55 162.054C1241.55 159.146 1242.45 156.514 1244.26 154.16C1246.2 151.805 1248.69 149.797 1251.74 148.135C1254.79 146.335 1258.05 145.088 1261.52 144.396C1262.21 144.257 1262.7 143.98 1262.97 143.565C1263.25 143.011 1263.53 142.457 1263.81 141.903C1265.19 139.271 1266.3 135.324 1267.13 130.062C1268.11 124.66 1268.87 118.636 1269.42 111.988C1269.98 105.34 1270.39 98.8308 1270.67 92.46C1271.09 85.5352 1272.2 78.6104 1274 71.6856C1275.94 64.6223 1278.71 58.1823 1282.32 52.3655C1285.92 46.4102 1290.5 41.6321 1296.05 38.0312C1301.73 34.4303 1308.52 32.6299 1316.43 32.6299C1323.5 32.6299 1328.7 34.4303 1332.03 38.0312C1335.49 41.6321 1337.23 45.3715 1337.23 49.2493C1337.23 51.3268 1336.88 53.335 1336.19 55.2739C1335.49 57.0743 1334.45 58.5285 1333.07 59.6365C1331.68 60.7445 1330.02 61.2985 1328.08 61.2985C1327.11 61.2985 1326.41 61.0907 1326 60.6752C1325.72 60.1212 1325.58 59.3595 1325.58 58.3901C1325.58 57.6976 1325.58 57.0051 1325.58 56.3126C1325.72 55.4816 1325.79 54.6507 1325.79 53.8197C1325.65 49.8033 1324.4 46.2717 1322.04 43.2248C1319.69 40.1779 1316.57 38.6544 1312.68 38.6544C1307.69 38.6544 1303.6 40.8011 1300.41 45.0945C1297.22 49.2493 1294.73 55.5509 1292.93 63.9991C1291.12 72.3089 1289.74 82.696 1288.77 95.1606C1288.35 101.808 1287.1 108.456 1285.02 115.104C1283.08 121.613 1280.86 127.361 1278.37 132.347C1275.87 137.194 1273.65 140.449 1271.71 142.111C1271.43 142.249 1271.29 142.595 1271.29 143.149C1271.43 143.703 1271.85 143.98 1272.54 143.98C1278.23 143.98 1283.22 144.742 1287.52 146.266C1291.95 147.65 1296.11 149.174 1300 150.836C1303.6 152.221 1307.14 153.537 1310.6 154.783C1314.07 156.029 1317.75 156.653 1321.63 156.653C1325.65 156.653 1328.7 155.752 1330.78 153.952C1332.86 152.013 1333.9 149.797 1333.9 147.304C1333.9 145.504 1333.62 143.703 1333.07 141.903C1332.51 139.964 1331.96 138.164 1331.4 136.502C1330.85 134.84 1330.57 133.524 1330.57 132.554C1330.57 131.585 1330.92 130.685 1331.61 129.854C1332.31 129.023 1333.14 128.607 1334.11 128.607C1336.88 128.607 1338.96 129.854 1340.35 132.347C1341.73 134.701 1342.43 137.333 1342.43 140.241C1342.43 143.98 1341.6 147.65 1339.93 151.251C1338.27 154.852 1335.91 158.107 1332.86 161.015C1329.95 163.924 1326.48 166.278 1322.46 168.079C1318.58 169.879 1314.42 170.779 1309.98 170.779Z" fill="#1D1717"/>
<path d="M1389.74 169.578C1386.28 169.578 1383.16 168.194 1380.39 165.426C1377.62 162.52 1375.4 158.783 1373.74 154.216C1372.08 149.51 1371.25 144.528 1371.25 139.269C1371.25 134.286 1371.8 129.166 1372.91 123.906C1374.02 118.647 1375.54 113.596 1377.48 108.752C1379.56 103.908 1381.91 99.5483 1384.54 95.6731C1387.31 91.798 1390.29 88.7532 1393.48 86.5388C1396.66 84.3245 1399.99 83.2173 1403.45 83.2173C1408.3 83.2173 1412.1 85.8468 1414.87 91.106C1417.78 96.3651 1420.55 103.908 1423.18 113.734C1423.32 114.149 1423.46 114.357 1423.6 114.357C1423.74 114.357 1423.88 114.149 1424.01 113.734C1425.54 109.029 1426.99 104.254 1428.38 99.4099C1429.76 94.4276 1431.01 89.4452 1432.12 84.4629C1432.53 82.8021 1433.02 81.5565 1433.57 80.7261C1434.12 79.8957 1435.3 79.4805 1437.1 79.4805C1438.76 79.4805 1440.15 80.3801 1441.26 82.1793C1442.5 83.8401 1443.4 85.6393 1443.96 87.5768C1444.65 89.5144 1445 90.9676 1445 91.9364C1445 94.0124 1444.17 97.4031 1442.5 102.109C1440.98 106.814 1438.83 112.212 1436.06 118.301C1433.29 124.391 1430.11 130.48 1426.51 136.57C1428.45 142.244 1430.73 146.327 1433.36 148.818C1435.99 151.171 1438.69 152.347 1441.46 152.347C1443.4 152.347 1445.2 152.001 1446.87 151.309C1448.53 150.617 1450.05 149.718 1451.44 148.611C1452.96 147.503 1454.14 146.465 1454.97 145.497C1455.52 144.805 1455.94 144.32 1456.21 144.043C1456.49 143.628 1456.84 143.421 1457.25 143.421C1458.22 143.421 1458.71 143.697 1458.71 144.251C1458.85 144.805 1458.91 145.566 1458.91 146.535C1458.91 151.517 1457.74 155.738 1455.38 159.198C1453.17 162.52 1450.47 165.08 1447.28 166.879C1444.23 168.678 1441.33 169.578 1438.56 169.578C1435.37 169.578 1432.05 167.433 1428.58 163.142C1425.26 158.852 1423.11 152.278 1422.14 143.421C1417.3 150.617 1412.03 156.776 1406.36 161.897C1400.82 167.018 1395.28 169.578 1389.74 169.578ZM1387.66 160.028C1393.06 160.028 1398.19 157.606 1403.03 152.763C1407.88 147.78 1412.24 141.275 1416.12 133.248C1416.95 131.588 1417.78 129.858 1418.61 128.058C1419.44 126.121 1420.21 124.183 1420.9 122.246C1417.85 114.08 1415.29 108.337 1413.21 105.015C1411.27 101.555 1408.64 99.8251 1405.32 99.8251C1402.41 99.8251 1399.43 101.071 1396.39 103.562C1393.48 106.053 1390.71 109.444 1388.08 113.734C1385.58 117.886 1383.51 122.522 1381.84 127.643C1380.32 132.626 1379.56 137.677 1379.56 142.798C1379.56 147.503 1380.32 151.586 1381.84 155.046C1383.51 158.368 1385.44 160.028 1387.66 160.028Z" fill="#1D1717"/>
<path d="M1486.74 170.779C1485.49 170.779 1484.31 170.29 1483.19 169.313C1482.22 168.474 1481.73 167.566 1481.73 166.589C1481.73 164.912 1482.43 163.516 1483.82 162.398L1567.78 81.5199C1568.34 80.9612 1569.1 80.6818 1570.08 80.6818C1572.03 80.6818 1573 81.7295 1573 83.8248C1573 84.8026 1572.79 85.7804 1572.37 86.7582C1571.96 87.736 1571.4 88.5741 1570.7 89.2725L1488.21 170.151C1488.07 170.29 1487.86 170.43 1487.58 170.57C1487.3 170.709 1487.02 170.779 1486.74 170.779ZM1525.17 170.57C1517.38 170.57 1510.34 168.754 1504.08 165.122C1497.81 161.49 1492.8 156.531 1489.04 150.245C1485.42 143.82 1483.61 136.556 1483.61 128.454C1483.61 122.588 1484.73 116.86 1486.95 111.273C1489.32 105.686 1492.59 100.587 1496.77 95.9774C1500.95 91.3678 1505.82 87.736 1511.39 85.0819C1516.96 82.2882 1522.95 80.8913 1529.35 80.8913C1537.43 80.8913 1544.67 82.847 1551.07 86.7582C1557.61 90.6694 1562.77 95.8377 1566.53 102.263C1570.42 108.549 1572.37 115.464 1572.37 123.007C1572.37 131.108 1570.56 138.791 1566.94 146.055C1563.46 153.318 1558.24 159.255 1551.28 163.865C1544.32 168.335 1535.62 170.57 1525.17 170.57ZM1529.56 164.284C1534.29 164.284 1538.54 163.376 1542.3 161.56C1546.06 159.744 1548.98 156.811 1551.07 152.76C1552.74 149.547 1553.86 145.636 1554.41 141.026C1554.97 136.416 1555.25 132.086 1555.25 128.035C1555.25 121.33 1553.99 114.905 1551.49 108.759C1549.12 102.473 1545.71 97.3743 1541.25 93.4631C1536.94 89.4122 1531.79 87.3867 1525.8 87.3867C1522.04 87.3867 1518.63 88.0153 1515.57 89.2725C1512.64 90.39 1509.93 92.5551 1507.42 95.7679C1504.64 99.26 1502.83 103.52 1501.99 108.549C1501.15 113.578 1500.74 118.607 1500.74 123.635C1500.74 130.48 1501.99 137.045 1504.5 143.331C1507 149.477 1510.41 154.506 1514.73 158.417C1519.05 162.328 1523.99 164.284 1529.56 164.284Z" fill="#1D1717"/>
</g>
<defs>
<clipPath id="clip0_2201_73">
<rect width="1440" height="177" fill="white"/>
</clipPath>
</defs>
</svg>
