<svg width="199" height="84" viewBox="0 0 199 84" fill="none" xmlns="http://www.w3.org/2000/svg">
<path d="M29.1147 41.7688C25.7077 41.3064 23.9267 38.7633 23.9267 35.4495C23.9267 32.9835 23.9267 30.5174 23.9267 28.0514C23.9267 28.0514 23.9267 27.9743 24.0042 27.9743H29.2695V28.0514C29.2695 30.1321 29.2695 32.2128 29.2695 34.2936C29.2695 35.3725 29.5793 36.4514 30.8182 36.6055C32.2119 36.7596 32.6765 35.7578 32.754 34.5248C32.8314 33.4459 32.8314 32.367 32.754 31.2881C32.5991 29.6697 31.8248 28.3596 30.8956 27.1266C29.6567 25.5082 28.4178 23.967 27.1789 22.3486C25.4754 20.1137 24.3913 17.8018 24.2365 14.9504C24.0816 11.5596 24.0042 7.39815 28.0306 6.01099C28.7275 5.7798 29.4244 5.62567 30.1987 5.62567C31.5151 5.54861 32.6765 5.62567 33.6057 5.70274C36.8579 6.16512 38.0193 8.39998 38.0193 11.4826C38.0193 13.4862 38.0193 15.567 38.0193 17.5706C38.0193 17.5706 38.0193 17.6477 37.9419 17.6477H32.8314V17.5706C32.8314 15.9523 32.8314 14.3339 32.8314 12.7156C32.8314 11.7908 32.754 10.6348 31.5925 10.4807C30.1987 10.3266 29.8116 11.2514 29.7341 12.4844C29.7341 13.178 29.7341 13.8715 29.8116 14.5651C29.889 16.1064 30.6633 17.3394 31.5151 18.4954C32.8314 20.2679 34.2252 22.0403 35.5415 23.7358C37.0127 25.6624 38.1742 27.589 38.4065 30.055C38.5614 31.5963 38.5614 33.2147 38.4839 34.833C38.2516 38.455 36.5481 41.4605 32.5991 41.8459C31.3602 41.9229 30.1987 41.9229 29.1147 41.7688Z" fill="#1D1717"/>
<path d="M22.3778 37.4532C22.3778 38.7633 22.3778 40.0734 22.3778 41.3835C22.3778 41.4606 22.3004 41.5376 22.2229 41.5376H16.9576V25.9706H13.3183V41.4605C13.3183 41.5376 13.3183 41.5376 13.2408 41.5376H8.0529C8.0529 41.5376 7.97546 41.5376 7.97546 41.4605V6.01101C7.97546 6.01101 7.97546 5.93394 8.0529 5.93394H13.3957V20.0367H16.9576V6.01101C16.9576 6.01101 16.9576 5.93394 17.035 5.93394H22.3004C22.3004 5.93394 22.3004 5.93394 22.3778 5.93394C22.3778 5.93394 22.3778 5.93394 22.3778 6.01101C22.3778 16.4147 22.3778 26.8954 22.3778 37.3761C22.3778 37.3761 22.3778 37.3761 22.3778 37.4532Z" fill="#1D1717"/>
<path d="M45.5303 20.4219H50.7956V25.7393H45.5303V35.8347H52.5766V41.1522H40.1875V5.70264H52.3443V10.7889H45.5303V20.4219Z" fill="#1D1717"/>
<path d="M63.2623 34.8333L62.5654 41.3837C62.5654 41.3837 62.5654 41.3837 62.5654 41.4608C62.5654 41.4608 62.5654 41.4608 62.488 41.4608H57.7646L62.1008 6.08829C62.1008 6.08829 62.1008 6.08829 62.1008 6.01123C62.1008 6.01123 62.1008 6.01123 62.1782 6.01123H68.4502C68.4502 6.01123 68.4502 6.01123 68.5277 6.01123C68.5277 6.01123 68.5277 6.01123 68.5277 6.08829L73.1736 41.4608H68.1405C68.1405 41.4608 68.1405 41.4608 68.0631 41.4608C68.0631 41.4608 68.0631 41.4608 68.0631 41.3837L67.3662 34.8333C67.3662 34.8333 67.3662 34.8332 67.3662 34.7562C67.3662 34.7562 67.3662 34.7562 67.2888 34.7562L63.2623 34.8333ZM63.8817 29.4388H66.6693L65.2755 16.6461L63.8817 29.4388Z" fill="#1D1717"/>
<path d="M79.4448 25.6625L79.3674 41.3836V41.4607H74.0246V5.9341H74.102C77.1218 5.9341 80.0643 5.9341 83.0841 5.9341C86.8783 5.9341 88.1946 8.24602 88.1946 11.7139C88.1946 13.7946 88.1946 15.8754 88.1946 18.0332C88.1946 19.8057 87.5752 21.424 85.9491 22.2717C87.3429 22.8882 88.1172 24.0442 88.1946 25.5855C88.1946 25.8937 88.1946 26.279 88.1946 26.5873C88.1946 29.7469 88.1946 32.9066 88.1946 36.0662C88.1946 37.7616 87.9623 39.6112 88.7366 41.2295V41.3836C88.7366 41.3836 88.7366 41.4607 88.6592 41.4607H83.4713C83.3938 41.4607 83.3938 41.4607 83.3938 41.4607L83.3164 41.3836C83.0841 40.7671 82.9292 40.1506 82.9292 39.457C82.8518 35.4497 82.8518 31.5194 82.8518 27.5121C82.8518 26.3561 82.3872 25.7396 81.3032 25.6625C80.6063 25.5855 79.9868 25.5855 79.4448 25.6625ZM81.3032 20.4992C82.697 20.3451 82.8518 18.7268 82.8518 17.6479C82.7744 16.1066 82.8518 14.4882 82.8518 12.9469C82.8518 11.868 82.6195 10.8662 81.3806 10.7891C80.7612 10.7121 80.1417 10.7121 79.5222 10.7891H79.4448C79.4448 10.7891 79.4448 10.7891 79.4448 10.8662V20.4992C80.0643 20.4992 80.6837 20.5763 81.3032 20.4992Z" fill="#1D1717"/>
<path d="M98.9583 41.4608H93.7703V11.0975C93.7703 11.0975 93.7703 11.0975 93.6929 11.0975H89.2793C89.2793 11.0975 89.2793 11.0975 89.2793 11.0204V6.01123H103.527V11.0975C103.527 11.0975 103.527 11.0975 103.449 11.0975H99.1131V41.3066C99.0357 41.4608 99.0357 41.4608 98.9583 41.4608Z" fill="#1D1717"/>
<path d="M118.007 34.8332H114.212L113.515 41.3836C113.515 41.3836 113.515 41.3836 113.438 41.3836H108.715L113.051 5.9341C113.051 5.9341 113.051 5.9341 113.128 5.9341H119.478L124.124 41.3836H119.013C119.013 41.3836 119.013 41.3836 118.936 41.3836L118.007 34.8332C118.084 34.8332 118.084 34.8332 118.007 34.8332ZM117.464 29.4387L116.148 16.7231C116.148 16.4919 116.071 16.4919 116.071 16.7231L114.754 29.4387H117.464Z" fill="#1D1717"/>
<path d="M129.776 21.2697C129.776 21.5009 129.776 21.655 129.776 21.8092C129.776 28.3596 129.776 34.9101 129.776 41.4606H125.053C124.975 41.4606 124.898 41.3835 124.898 41.3064V6.01101H129.698L134.267 24.7376C134.267 24.8917 134.344 24.8917 134.344 24.7376V6.01101H139.223V41.3835C139.223 41.3835 139.223 41.3835 139.223 41.4606C139.223 41.4606 139.223 41.4606 139.145 41.4606H134.886C134.886 41.4606 134.886 41.4606 134.809 41.4606C134.809 41.4606 134.809 41.4606 134.809 41.3835L129.776 21.2697C129.776 21.1927 129.776 21.1927 129.776 21.2697Z" fill="#1D1717"/>
<path d="M141.468 41.4607C141.391 41.4607 141.391 41.4607 141.391 41.3836C141.391 41.3836 141.313 41.3066 141.313 41.2295V5.93408C141.313 5.93408 141.313 5.93408 141.391 5.93408C144.178 5.93408 146.966 5.93408 149.831 5.93408C152.851 5.93408 154.864 7.32124 155.483 10.3267C155.638 11.0203 155.716 11.6368 155.716 12.2533C155.716 19.8056 155.716 27.3579 155.716 34.9102C155.716 38.9176 153.857 41.5378 149.676 41.5378C146.889 41.5378 144.178 41.4607 141.468 41.4607ZM150.063 13.4093C150.063 12.2533 149.908 10.8662 148.437 10.7891C147.895 10.7891 147.276 10.7891 146.734 10.7891V36.2203C146.734 36.2203 146.734 36.2974 146.811 36.2974C147.276 36.2974 147.818 36.2974 148.282 36.2974C149.986 36.2203 150.141 34.7561 150.141 33.446C150.063 26.7414 150.063 20.1139 150.063 13.4093Z" fill="#1D1717"/>
<path d="M38.9479 75.9084C38.0187 74.6753 37.709 73.134 37.709 71.5928C37.709 69.1267 37.709 66.7377 37.709 64.2717V64.1946H42.9743C42.9743 64.1946 43.0518 64.1946 43.0518 64.2717C43.0518 66.0441 43.0518 67.7395 43.0518 69.512C43.0518 70.7451 42.8969 72.8258 44.6778 72.9028C45.8393 72.9799 46.3813 72.1322 46.4588 71.0533C46.5362 69.8203 46.6136 68.3561 46.4588 67.2001C46.2265 65.7359 45.5296 64.5799 44.6004 63.424C43.3615 61.8056 42.1226 60.1873 40.8062 58.5689C39.1802 56.4882 38.1736 54.3304 37.9413 51.7102C37.5541 47.1634 37.8638 42.2313 43.6712 41.846C48.1623 41.5377 51.6467 42.3084 51.6467 47.6258C51.6467 49.6295 51.6467 51.6331 51.6467 53.7139H46.5362C46.5362 52.0184 46.5362 50.246 46.5362 48.5506C46.5362 47.4717 46.2265 46.4698 44.9101 46.5469C44.1358 46.624 43.7486 47.0093 43.5938 47.7029C43.4389 48.6276 43.4389 49.8606 43.5164 50.7854C43.6712 52.3267 44.523 53.6368 45.4522 54.7928C47.0008 56.8735 48.1623 58.2606 48.7043 59.0313C50.0206 60.7267 51.2595 62.4221 51.879 64.5028C52.3436 66.1983 52.3436 67.9707 52.2662 69.7432C52.2662 70.7451 52.1887 71.5157 52.1113 72.0551C51.5693 75.2918 49.6335 77.5267 46.3039 77.912C43.7486 78.2973 40.6514 78.1432 38.9479 75.9084Z" fill="#1D1717"/>
<path d="M71.4699 74.29C70.6956 76.2166 68.9921 77.912 66.9014 78.1432C63.4944 78.5285 61.5586 75.9854 61.094 72.9028C61.0166 72.5175 61.0166 71.9781 61.0166 71.2074C61.0166 63.8863 61.0166 56.4882 61.0166 49.1671C61.0166 46.3928 61.9458 43.3872 64.8107 42.2313C66.2819 41.6918 67.908 41.6918 69.4566 41.7689C73.7928 42.0001 75.0318 44.9285 75.1092 48.7817C75.1092 50.246 75.1092 51.7102 75.1092 53.2515V53.3285H69.8438V53.2515C69.8438 51.7872 69.8438 50.246 69.8438 48.7817C69.8438 47.6258 69.1469 46.701 67.8306 46.9322C66.5917 47.1634 66.4368 48.5506 66.4368 49.5524C66.4368 56.4111 66.4368 63.2698 66.4368 70.0515C66.4368 71.2074 66.824 72.5946 68.2177 72.5946C69.8438 72.5946 70.1535 71.4386 70.1535 70.1285C70.1535 67.2772 70.1535 64.4258 70.1535 61.5744H67.908V56.1799H75.4963C75.4963 56.1799 75.4963 56.1799 75.4963 56.257V77.7579C75.4963 77.7579 75.4963 77.835 75.4189 77.835H72.4765L71.4699 74.29Z" fill="#1D1717"/>
<path d="M112.741 66.8917C113.128 71.6697 112.663 77.9119 106.237 78.0661C105.075 78.0661 103.991 78.1431 102.83 77.9119C99.2677 77.2183 98.1836 74.367 98.1836 71.1303C98.1836 68.8184 98.1836 66.5835 98.1836 64.2716C98.1836 64.2716 98.1836 64.1945 98.2611 64.1945H103.526C103.526 66.3523 103.526 68.433 103.526 70.5908C103.526 71.9009 104.068 72.9028 105.54 72.7486C106.624 72.6716 106.933 71.6697 107.011 70.745C107.088 69.6661 107.088 68.5872 107.011 67.5853C106.933 65.967 106.159 64.734 105.153 63.5009C103.836 61.8055 102.52 60.1101 101.281 58.4917C99.5 56.1798 98.4934 53.7138 98.4934 50.7853C98.4934 49.0128 98.4159 47.6257 98.8031 46.0844C99.8871 41.9229 103.836 41.6147 107.398 41.8459C111.115 42.1541 112.276 44.5431 112.276 47.9339C112.276 49.8606 112.276 51.7872 112.276 53.7138H107.166C107.166 52.0954 107.166 50.4771 107.166 48.7817C107.166 47.8569 107.088 46.7009 105.927 46.5468C104.61 46.3927 104.223 47.0862 104.146 48.2422C104.068 48.9358 104.068 49.5523 104.146 50.2459C104.223 51.9413 104.998 53.3284 106.004 54.6385C107.475 56.5651 108.947 58.4147 110.34 60.3413C111.657 62.345 112.509 64.4257 112.741 66.8917Z" fill="#1D1717"/>
<path d="M120.639 78.143C117.697 78.143 115.296 76.7558 114.522 73.7503C114.212 72.5173 114.135 71.5925 114.135 70.2053C114.135 63.1154 114.135 56.0255 114.135 48.9356C114.135 45.2365 115.761 42.154 119.865 41.9228C122.885 41.6916 126.369 41.8457 127.763 45.0053C128.305 46.3154 128.46 47.8567 128.46 49.3209C128.46 51.4017 128.46 53.4824 128.46 55.5631H123.272C123.194 55.3319 123.272 55.1008 123.272 54.9466C123.272 53.0971 123.272 51.2475 123.272 49.398C123.272 47.8567 122.73 46.6237 120.871 47.0861C120.097 47.3173 119.787 48.165 119.787 48.8586C119.787 56.1026 119.787 63.4237 119.787 70.6677C119.787 71.6696 120.097 72.7485 121.336 72.9026C122.73 73.0567 123.272 71.9008 123.272 70.7448C123.194 67.9705 123.272 65.1962 123.272 62.3448H128.537C128.537 65.1191 128.537 67.8934 128.537 70.6677C128.537 74.7521 126.911 78.22 122.188 78.22C121.646 78.143 121.104 78.143 120.639 78.143Z" fill="#1D1717"/>
<path d="M150.528 77.6807C146.966 76.4477 146.501 72.5945 146.501 69.3578C146.501 59.1853 146.501 52.7119 146.501 49.8605C146.501 46.6239 147.43 43.233 150.915 42.1541C152.231 41.7688 153.78 41.7688 155.174 41.8459C160.361 42.1541 161.291 46.1615 161.291 50.4771C161.291 56.7963 161.291 63.1927 161.291 69.5119C161.291 73.8275 160.129 77.9119 154.941 78.0661C153.47 78.2202 151.999 78.1431 150.528 77.6807ZM151.999 69.5119C151.999 70.822 151.999 72.8257 153.78 72.9028C155.406 72.9798 155.716 71.5927 155.716 70.2826C155.716 63.3468 155.716 56.411 155.716 49.4752C155.716 48.5505 155.406 47.3945 154.399 47.0862C153.78 46.9321 153.238 47.0092 152.773 47.3174C151.921 47.9339 151.999 49.3211 151.999 50.2459C151.999 56.6422 151.999 63.1156 151.999 69.5119Z" fill="#1D1717"/>
<path d="M165.24 76.6018C163.304 74.8294 162.994 71.978 162.994 69.589C162.994 62.9615 162.994 56.2569 162.994 49.6294C162.994 45.8532 164.543 42.3853 168.724 41.9229C170.35 41.7688 172.131 41.7688 173.68 42.3083C177.164 43.4642 177.706 47.0092 177.706 50.1688C177.706 56.7963 177.706 63.4239 177.706 70.0514C177.706 74.444 176.08 78.1431 171.047 78.1431C168.956 78.1431 166.943 78.1431 165.24 76.6018ZM169.653 72.7486C170.505 73.1339 171.589 72.8257 171.976 71.9009C172.131 71.4385 172.209 70.9761 172.209 70.4367C172.209 63.578 172.209 56.6422 172.209 49.7835C172.209 49.0899 172.131 48.3963 171.821 47.8569C171.279 46.9321 169.731 46.855 169.034 47.6257C168.569 48.1651 168.492 49.0899 168.492 49.7835C168.492 56.6422 168.492 63.5009 168.492 70.3596C168.492 71.2844 168.647 72.3633 169.653 72.7486Z" fill="#1D1717"/>
<path d="M16.493 77.6807C13.628 77.6807 10.763 77.6807 7.97546 77.6807V42.2312C10.9179 42.2312 13.8603 42.2312 16.8801 42.2312C17.4222 42.2312 17.9642 42.3083 18.5836 42.5395C21.7583 43.4642 22.3004 46.2385 22.3004 49.167C22.3004 56.5651 22.3004 63.9633 22.3004 71.3615C22.3004 71.6697 22.3004 72.055 22.2229 72.6716C21.7583 75.7541 19.8225 77.6807 16.493 77.6807ZM16.6478 49.6294C16.6478 48.4734 16.493 47.0092 14.9443 47.0092C14.17 47.0092 13.628 47.0092 13.3183 47.0092C13.3183 47.0092 13.2408 47.0092 13.2408 47.0862V72.5174C13.2408 72.5174 13.2408 72.5945 13.3183 72.5945C14.712 72.6716 16.2607 72.8257 16.5704 71.1303C16.6478 70.745 16.6478 70.3596 16.6478 69.9743C16.7253 63.1927 16.7253 56.411 16.6478 49.6294Z" fill="#1D1717"/>
<path d="M24.1592 77.6809V42.2314C24.1592 42.2314 24.1592 42.2314 24.1592 42.1543C24.1592 42.1543 24.1592 42.1543 24.2366 42.1543H36.3934C36.3934 42.1543 36.3934 42.1543 36.4708 42.1543C36.4708 42.1543 36.4708 42.1543 36.4708 42.2314V47.2405C36.4708 47.2405 36.4708 47.2405 36.4708 47.3176C36.4708 47.3176 36.4708 47.3176 36.3934 47.3176H29.6568V56.4882H34.9222C34.9222 56.4882 34.9222 56.4882 34.9996 56.4882C34.9996 56.4882 34.9996 56.4882 34.9996 56.5653V61.8827C34.9996 61.8827 34.9996 61.8827 34.9996 61.9598C34.9996 61.9598 34.9996 61.9598 34.9222 61.9598H29.6568V72.1323C29.6568 72.1323 29.6568 72.1323 29.6568 72.2093C29.6568 72.2093 29.6568 72.2093 29.7343 72.2093H36.7806C36.7806 72.2093 36.7806 72.2093 36.858 72.2093C36.858 72.2093 36.858 72.2093 36.858 72.2864V77.6038C36.858 77.6038 36.858 77.6038 36.858 77.6809C36.858 77.6809 36.858 77.6809 36.7806 77.6809H24.1592Z" fill="#1D1717"/>
<path d="M59.1575 42.1543H53.8147C53.8147 42.1543 53.7373 42.1543 53.7373 42.2314V77.6809C53.7373 77.6809 53.7373 77.758 53.8147 77.758H59.1575C59.1575 77.758 59.2349 77.758 59.2349 77.6809L59.1575 42.1543Z" fill="#1D1717"/>
<path d="M86.8012 60.9576V42.231H91.6019C91.6019 42.231 91.6019 42.231 91.6794 42.231C91.6794 42.231 91.6794 42.231 91.6794 42.308V77.7576H87.3432C87.3432 77.7576 87.3432 77.7576 87.2657 77.7576L82.1552 57.5667C82.1552 57.5667 82.1552 57.5667 82.1552 57.6438V77.7576H77.3545V42.231H82.1552L86.8012 60.9576Z" fill="#1D1717"/>
<path d="M135.583 62.1908V77.6807H130.318C130.318 77.6807 130.318 77.6807 130.24 77.6807C130.24 77.6807 130.24 77.6807 130.24 77.6037V42.1541C130.24 42.1541 130.24 42.1541 130.24 42.0771C130.24 42.0771 130.24 42.0771 130.318 42.0771H135.583C135.583 42.0771 135.583 42.0771 135.661 42.0771C135.661 42.0771 135.661 42.0771 135.661 42.1541V56.2569C135.661 56.2569 135.661 56.2569 135.661 56.3339C135.661 56.3339 135.661 56.3339 135.738 56.3339H139.3C139.3 56.3339 139.3 56.3339 139.377 56.3339C139.377 56.3339 139.377 56.3339 139.377 56.2569V42.2312C139.377 42.2312 139.377 42.2312 139.377 42.1541C139.377 42.1541 139.377 42.1541 139.455 42.1541H144.72C144.72 42.1541 144.72 42.1541 144.798 42.1541C144.798 42.1541 144.798 42.1541 144.798 42.2312V77.6807C144.798 77.6807 144.798 77.6807 144.798 77.7578C144.798 77.7578 144.798 77.7578 144.72 77.7578H139.455C139.455 77.7578 139.455 77.7578 139.377 77.7578C139.377 77.7578 139.377 77.7578 139.377 77.6807V62.1908C139.377 62.1908 139.377 62.1908 139.377 62.1138C139.377 62.1138 139.377 62.1138 139.3 62.1138L135.583 62.1908C135.583 62.1138 135.583 62.1138 135.583 62.1908Z" fill="#1D1717"/>
<path d="M185.062 72.2093H191.489C191.489 72.2093 191.489 72.2093 191.566 72.2093C191.566 72.2093 191.566 72.2093 191.566 72.2864V77.6809C191.566 77.6809 191.566 77.6809 191.566 77.758C191.566 77.758 191.566 77.758 191.489 77.758H179.642C179.642 77.758 179.642 77.758 179.564 77.758C179.564 77.758 179.564 77.758 179.564 77.6809V42.2314C179.564 42.2314 179.564 42.2314 179.564 42.1543C179.564 42.1543 179.564 42.1543 179.642 42.1543H184.907C184.907 42.1543 184.907 42.1543 184.985 42.1543C184.985 42.1543 184.985 42.1543 184.985 42.2314L185.062 72.2093C184.985 72.2093 184.985 72.2093 185.062 72.2093Z" fill="#1D1717"/>
</svg>
