<svg width="360" height="742" viewBox="0 0 360 742" fill="none" xmlns="http://www.w3.org/2000/svg">
<path d="M96.8199 159.272C96.8199 146.613 99.9433 135.092 106.19 124.711C112.687 114.583 121.432 106.481 132.426 100.404C143.67 94.5807 156.163 91.6689 169.906 91.6689C186.147 91.6689 200.89 95.2137 214.133 102.303C227.376 109.646 237.87 119.394 245.616 131.547C253.612 143.701 257.61 157.12 257.61 171.806C257.61 188.263 253.237 202.695 244.491 215.102C242.243 218.14 239.869 219.66 237.37 219.66C235.371 219.66 233.123 218.773 230.624 217.001C228.125 215.229 226.001 213.076 224.252 210.545C222.753 208.013 222.003 205.607 222.003 203.328C222.003 202.062 222.378 200.797 223.128 199.531C224.127 198.265 225.127 196.872 226.126 195.353C230.374 189.782 234.372 183.579 238.12 176.743C241.868 169.907 243.742 164.21 243.742 159.652C243.742 147.246 237.995 137.118 226.501 129.269C215.257 121.673 200.39 117.875 181.9 117.875C170.156 117.875 159.537 120.407 150.042 125.471C140.547 130.788 133.051 137.751 127.554 146.359C122.057 155.221 119.308 164.969 119.308 175.603C119.308 182.946 120.432 189.276 122.681 194.593C125.18 199.91 129.428 205.607 135.424 211.684C135.924 212.19 136.299 212.823 136.549 213.583C137.049 214.343 137.298 214.976 137.298 215.482C137.298 218.267 135.549 219.66 132.051 219.66C130.552 219.66 128.803 219.153 126.804 218.14C125.055 217.381 122.931 215.988 120.432 213.963C115.435 209.912 111.062 205.101 107.314 199.531C103.816 193.96 101.193 187.757 99.4435 180.921C97.6944 174.338 96.8199 167.121 96.8199 159.272Z" fill="#1D1717"/>
<path d="M120.528 600.173C116.009 600.173 112.243 599.425 109.23 597.93C106.719 596.933 105.464 594.939 105.464 591.949C105.464 587.961 107.221 585.22 110.736 583.725C114.753 582.229 118.77 580.983 122.787 579.986C133.332 577.494 141.366 574.504 146.89 571.015C152.413 567.027 155.175 560.548 155.175 551.576V389.339C155.175 375.882 152.664 363.92 147.643 353.453C143.124 342.986 134.336 336.756 121.281 334.762C118.77 334.264 116.762 333.267 115.256 331.772C114.251 330.276 113.749 328.033 113.749 325.043C113.749 319.56 116.009 316.57 120.528 316.071C140.613 311.585 157.183 305.604 170.239 298.128C183.294 290.153 193.086 283.674 199.613 278.689C204.132 275.201 207.647 273.456 210.158 273.456C213.171 273.456 214.677 274.702 214.677 277.194C214.677 281.182 213.924 289.156 212.417 301.119C211.413 312.582 210.409 325.541 209.405 339.996C208.4 353.951 207.898 366.661 207.898 378.125V551.576C207.898 560.049 210.66 566.28 216.183 570.267C222.209 574.255 230.243 577.494 240.286 579.986C244.303 580.983 248.069 582.229 251.584 583.725C255.601 585.22 257.609 587.961 257.609 591.949C257.609 597.431 252.588 600.173 242.545 600.173C233.005 600.173 225.222 599.674 219.196 598.677C213.673 598.179 208.149 597.68 202.626 597.182C197.605 596.684 190.575 596.434 181.537 596.434C173 596.434 165.971 596.684 160.447 597.182C154.924 597.68 149.4 598.179 143.877 598.677C138.354 599.674 130.57 600.173 120.528 600.173ZM180.783 212.15C170.239 212.15 161.2 208.661 153.668 201.683C146.639 194.207 143.124 185.235 143.124 174.768C143.124 163.803 146.639 154.831 153.668 147.853C161.2 140.377 170.239 136.639 180.783 136.639C191.83 136.639 200.869 140.377 207.898 147.853C215.43 154.831 219.196 163.803 219.196 174.768C219.196 185.235 215.43 194.207 207.898 201.683C200.869 208.661 191.83 212.15 180.783 212.15Z" fill="#1D1717"/>
<path d="M42.4971 726.434C34.86 726.434 27.7155 725.208 21.0638 722.756C14.4121 720.55 8.74578 717.363 4.06494 713.195C2.83314 710.498 1.8477 705.963 1.10862 699.588C0.615902 693.214 0.24636 687.943 0 683.775C0 681.569 1.60136 680.466 4.80404 680.466C5.78948 680.466 6.65172 680.711 7.3908 681.201C8.37625 681.446 8.99214 682.059 9.2385 683.04C12.4412 695.053 17.4916 703.634 24.3897 708.782C31.5341 713.93 38.6786 716.504 45.823 716.504C52.9675 716.504 59.0033 714.175 63.9305 709.517C69.104 704.614 71.6908 698.608 71.6908 691.498C71.6908 684.879 69.4736 679.24 65.0391 674.582C60.6046 669.679 52.8443 663.795 41.7581 656.93C33.3818 651.782 26.6069 646.879 21.4333 642.22C16.2598 637.562 12.4412 632.782 9.9776 627.878C7.76036 622.975 6.65173 617.459 6.65173 611.33C6.65173 603.485 8.49944 596.375 12.1948 590.001C15.8903 583.627 21.4333 578.601 28.8241 574.924C36.215 571.001 45.4535 569.04 56.5397 569.04C63.9305 569.04 70.0895 569.775 75.0167 571.246C79.9439 572.717 83.6393 574.311 86.1029 576.027C88.0738 578.724 89.6751 583.014 90.9069 588.898C92.3851 594.536 93.1242 599.93 93.1242 605.078C93.1242 606.795 91.8924 607.653 89.4288 607.653C87.9506 607.653 86.4725 607.407 84.9943 606.917C83.7625 606.182 82.9003 605.324 82.4075 604.343C79.2049 596.253 75.1399 590.124 70.2127 585.956C65.5318 581.543 59.6192 579.336 52.4747 579.336C46.3157 579.336 40.7726 581.175 35.8454 584.853C31.1646 588.53 28.8241 593.924 28.8241 601.033C28.8241 606.672 30.5487 611.698 33.9977 616.111C37.6931 620.524 44.468 625.549 54.3225 631.188C68.6114 639.279 79.2048 646.879 86.1029 653.988C93.2474 660.853 96.8196 670.046 96.8196 681.569C96.8196 694.808 91.7692 705.595 81.6684 713.93C71.5677 722.266 58.5106 726.434 42.4971 726.434Z" fill="#1D1717"/>
<path d="M317.118 726.433C324.756 726.433 331.9 725.207 338.552 722.756C345.203 720.549 350.87 717.362 355.551 713.194C356.782 710.498 357.768 705.962 358.507 699.588C359 693.214 359.369 687.943 359.616 683.775C359.616 681.568 358.014 680.465 354.811 680.465C353.826 680.465 352.964 680.71 352.225 681.201C351.239 681.446 350.623 682.059 350.377 683.039C347.174 695.052 342.124 703.633 335.226 708.781C328.081 713.93 320.937 716.504 313.793 716.504C306.648 716.504 300.612 714.175 295.685 709.517C290.511 704.614 287.925 698.607 287.925 691.497C287.925 684.878 290.142 679.239 294.576 674.581C299.011 669.678 306.771 663.794 317.857 656.93C326.234 651.781 333.009 646.878 338.182 642.22C343.356 637.562 347.174 632.781 349.638 627.878C351.855 622.975 352.964 617.459 352.964 611.33C352.964 603.484 351.116 596.375 347.421 590C343.725 583.626 338.182 578.6 330.791 574.923C323.401 571 314.162 569.039 303.076 569.039C295.685 569.039 289.526 569.775 284.599 571.246C279.672 572.717 275.976 574.31 273.513 576.026C271.542 578.723 269.94 583.013 268.709 588.897C267.23 594.536 266.491 599.93 266.491 605.078C266.491 606.794 267.723 607.652 270.187 607.652C271.665 607.652 273.143 607.407 274.621 606.917C275.853 606.181 276.715 605.323 277.208 604.342C280.411 596.252 284.476 590.123 289.403 585.955C294.084 581.542 299.996 579.336 307.141 579.336C313.3 579.336 318.843 581.175 323.77 584.852C328.451 588.529 330.791 593.923 330.791 601.033C330.791 606.671 329.067 611.697 325.618 616.11C321.922 620.523 315.148 625.549 305.293 631.188C291.004 639.278 280.411 646.878 273.513 653.988C266.368 660.852 262.796 670.046 262.796 681.568C262.796 694.807 267.846 705.594 277.947 713.93C288.048 722.265 301.105 726.433 317.118 726.433Z" fill="#1D1717"/>
<path d="M151.694 742C148.131 742 144.469 740.623 140.708 737.87C137.144 735.117 134.076 731.773 131.503 727.84C129.127 723.906 127.939 720.17 127.939 716.63C127.939 710.336 129.622 705.42 132.987 701.88C136.353 698.34 141.697 695.094 149.022 692.144L179.309 679.754C183.268 678.181 185.545 676.804 186.138 675.624C186.93 674.444 187.425 671.888 187.623 667.954L188.217 649.074C188.415 643.961 186.93 639.536 183.763 635.799C180.794 632.062 176.439 630.194 170.698 630.194C167.729 630.194 164.759 630.686 161.79 631.669C158.821 632.652 156.346 633.931 154.367 635.504C153.179 636.291 152.387 637.471 151.991 639.044C151.595 640.617 151.397 642.289 151.397 644.059C151.397 644.846 151.397 645.731 151.397 646.714C151.595 647.697 151.694 648.582 151.694 649.369C151.694 650.352 150.407 651.729 147.834 653.499C145.458 655.072 142.687 656.548 139.52 657.924C136.55 659.104 134.076 659.694 132.096 659.694C131.107 659.694 130.315 659.498 129.721 659.104C129.127 658.514 128.83 657.826 128.83 657.039C128.83 653.892 129.82 650.549 131.8 647.009C133.977 643.272 136.946 639.831 140.708 636.684C145.261 632.554 150.209 628.916 155.554 625.769C160.899 622.622 166.145 620.164 171.292 618.394C176.439 616.624 180.992 615.739 184.951 615.739C192.077 615.739 197.917 618.295 202.47 623.409C207.221 628.326 209.497 634.521 209.299 641.994L207.815 712.795C207.617 716.925 208.507 720.268 210.487 722.825C212.665 725.381 215.337 726.66 218.504 726.66C223.453 726.66 227.115 725.578 229.491 723.415C230.481 722.431 231.272 721.94 231.866 721.94C232.856 721.94 233.648 722.235 234.242 722.825C234.836 723.415 235.132 724.201 235.132 725.185C235.132 727.348 234.044 729.511 231.866 731.675C228.699 734.821 225.235 737.28 221.474 739.05C217.91 741.017 214.545 742 211.378 742C202.272 742 195.046 736.886 189.702 726.66H188.811C182.278 731.97 176.043 735.805 170.104 738.165C164.165 740.722 158.029 742 151.694 742ZM165.65 727.84C169.609 727.84 172.974 727.25 175.746 726.07C178.517 724.693 180.992 722.923 183.169 720.76C184.159 719.776 184.951 718.498 185.545 716.925C186.336 715.155 186.831 712.401 187.029 708.665L187.623 694.209C187.821 692.046 187.722 690.473 187.326 689.489C186.93 688.506 186.138 688.014 184.951 688.014C184.555 688.014 183.862 688.113 182.872 688.309C181.882 688.506 180.596 688.899 179.012 689.489C168.52 693.226 161.196 697.16 157.039 701.29C153.08 705.223 151.1 708.861 151.1 712.205C151.1 717.318 152.585 721.251 155.554 724.005C158.722 726.561 162.087 727.84 165.65 727.84Z" fill="#1D1717"/>
<path d="M100.929 532.717C100.244 532.717 99.3539 532.581 98.2584 532.307C97.2998 532.17 96.8205 531.691 96.8205 530.871C96.8205 529.776 97.2998 529.024 98.2584 528.613C99.3539 528.066 100.449 527.587 101.545 527.177C103.599 526.493 105.585 525.74 107.502 524.92C109.419 523.962 110.378 522.115 110.378 519.379V415.955C110.378 411.987 109.625 408.704 108.118 406.105C106.749 403.369 104.352 401.658 100.929 400.974C99.8332 400.701 99.2855 399.812 99.2855 398.307C99.2855 396.939 99.7648 396.118 100.723 395.844C104.284 395.023 107.365 394.203 109.967 393.382C112.569 392.424 114.966 391.467 117.157 390.509C119.485 389.551 121.744 388.662 123.935 387.841C124.483 387.568 124.894 387.431 125.168 387.431C125.442 387.431 125.647 387.636 125.784 388.046C126.058 388.32 126.195 388.594 126.195 388.867C126.195 390.098 125.921 392.766 125.373 396.87C124.963 400.838 124.757 407.473 124.757 416.775V519.379C124.757 522.115 125.716 523.962 127.633 524.92C129.55 525.74 131.536 526.493 133.59 527.177C134.686 527.587 135.713 528.066 136.671 528.613C137.767 529.024 138.315 529.776 138.315 530.871C138.315 531.691 137.767 532.17 136.671 532.307C135.713 532.581 134.891 532.717 134.206 532.717C131.604 532.717 129.482 532.581 127.838 532.307C126.332 532.17 124.826 532.033 123.319 531.897C121.95 531.76 120.033 531.691 117.568 531.691C115.239 531.691 113.322 531.76 111.816 531.897C110.309 532.033 108.803 532.17 107.297 532.307C105.79 532.581 103.668 532.717 100.929 532.717Z" fill="#1D1717"/>
<path d="M131.398 42.0237C131.398 34.1541 133.38 26.9928 137.343 20.5397C141.464 14.244 147.012 9.20744 153.987 5.43003C161.12 1.81001 169.046 -3.81248e-07 177.765 0C188.068 4.50565e-07 197.421 2.20349 205.822 6.61047C214.224 11.1748 220.882 17.2344 225.796 24.7893C230.868 32.3441 233.404 40.6859 233.404 49.8146C233.404 60.0451 230.63 69.0165 225.082 76.7287C223.656 78.6174 222.15 79.5618 220.564 79.5618C219.296 79.5618 217.87 79.0109 216.285 77.9091C214.699 76.8074 213.352 75.4696 212.242 73.8956C211.291 72.3217 210.816 70.8265 210.816 69.41C210.816 68.623 211.053 67.836 211.529 67.0491C212.163 66.2621 212.797 65.3965 213.431 64.4521C216.126 60.9895 218.662 57.1334 221.04 52.8838C223.418 48.6342 224.607 45.0929 224.607 42.2598C224.607 34.5476 220.961 28.2519 213.669 23.3727C206.536 18.651 197.104 16.2901 185.374 16.2901C177.923 16.2901 171.186 17.864 165.162 21.0119C159.139 24.3171 154.383 28.6454 150.896 33.9967C147.408 39.5054 145.665 45.565 145.665 52.1755C145.665 56.7399 146.378 60.6747 147.805 63.9799C149.39 67.2852 152.085 70.8265 155.889 74.6039C156.206 74.9187 156.444 75.3122 156.603 75.7843C156.92 76.2565 157.078 76.65 157.078 76.9648C157.078 78.6961 155.968 79.5618 153.749 79.5618C152.798 79.5618 151.688 79.247 150.42 78.6174C149.311 78.1452 147.963 77.2796 146.378 76.0204C143.208 73.5022 140.434 70.5117 138.056 67.0491C135.837 63.5864 134.172 59.7303 133.063 55.4808C131.953 51.3886 131.398 46.9029 131.398 42.0237Z" fill="#1D1717"/>
<path d="M224.759 550.076C224.759 546.825 225.599 543.867 227.278 541.202C229.025 538.601 231.375 536.521 234.331 534.961C237.353 533.466 240.712 532.718 244.406 532.718C248.772 532.718 252.735 533.628 256.295 535.448C259.855 537.334 262.676 539.837 264.758 542.957C266.908 546.078 267.982 549.523 267.982 553.294C267.982 557.519 266.807 561.225 264.456 564.41C263.852 565.191 263.213 565.581 262.542 565.581C262.004 565.581 261.4 565.353 260.728 564.898C260.056 564.443 259.486 563.89 259.015 563.24C258.612 562.59 258.411 561.972 258.411 561.387C258.411 561.062 258.512 560.737 258.713 560.412C258.982 560.087 259.25 559.73 259.519 559.34C260.661 557.909 261.736 556.317 262.743 554.561C263.751 552.806 264.255 551.343 264.255 550.173C264.255 546.988 262.71 544.387 259.62 542.372C256.597 540.422 252.601 539.447 247.63 539.447C244.473 539.447 241.619 540.097 239.066 541.397C236.514 542.762 234.499 544.55 233.021 546.76C231.543 549.036 230.805 551.538 230.805 554.269C230.805 556.154 231.107 557.779 231.711 559.145C232.383 560.51 233.525 561.972 235.137 563.533C235.271 563.663 235.372 563.825 235.439 564.02C235.574 564.215 235.641 564.378 235.641 564.508C235.641 565.223 235.17 565.581 234.23 565.581C233.827 565.581 233.357 565.451 232.82 565.19C232.349 564.995 231.778 564.638 231.107 564.118C229.763 563.078 228.588 561.843 227.58 560.412C226.64 558.982 225.935 557.389 225.465 555.634C224.994 553.944 224.759 552.091 224.759 550.076Z" fill="#1D1717"/>
<path d="M221.456 525.799C220.891 525.799 220.42 525.707 220.043 525.523C219.73 525.401 219.573 525.155 219.573 524.787C219.573 524.296 219.792 523.958 220.232 523.774C220.734 523.59 221.236 523.437 221.738 523.314C223.056 523.007 224.06 522.639 224.751 522.209C225.441 521.718 225.786 520.92 225.786 519.816V499.839C225.786 498.182 225.473 496.709 224.845 495.42C224.28 494.131 223.182 493.364 221.55 493.118C221.236 493.057 220.985 492.934 220.797 492.75C220.671 492.566 220.608 492.29 220.608 491.922C220.608 491.246 220.891 490.878 221.456 490.817C223.966 490.265 226.037 489.528 227.669 488.607C229.301 487.625 230.525 486.828 231.341 486.214C231.906 485.784 232.345 485.569 232.659 485.569C233.036 485.569 233.224 485.723 233.224 486.03C233.224 486.521 233.13 487.503 232.942 488.976C232.816 490.387 232.691 491.983 232.565 493.763C232.44 495.481 232.377 497.046 232.377 498.458V519.816C232.377 520.859 232.722 521.626 233.413 522.117C234.166 522.608 235.17 523.007 236.425 523.314C236.927 523.437 237.398 523.59 237.838 523.774C238.34 523.958 238.591 524.296 238.591 524.787C238.591 525.462 237.963 525.799 236.708 525.799C235.515 525.799 234.542 525.738 233.789 525.615C233.099 525.554 232.408 525.493 231.718 525.431C231.09 525.37 230.211 525.339 229.082 525.339C228.015 525.339 227.136 525.37 226.445 525.431C225.755 525.493 225.065 525.554 224.374 525.615C223.684 525.738 222.711 525.799 221.456 525.799ZM228.988 478.021C227.669 478.021 226.54 477.591 225.598 476.732C224.719 475.811 224.28 474.706 224.28 473.418C224.28 472.067 224.719 470.963 225.598 470.103C226.54 469.183 227.669 468.723 228.988 468.723C230.368 468.723 231.498 469.183 232.377 470.103C233.318 470.963 233.789 472.067 233.789 473.418C233.789 474.706 233.318 475.811 232.377 476.732C231.498 477.591 230.368 478.021 228.988 478.021Z" fill="#1D1717"/>
<path d="M37.505 707.408C37.1455 707.408 36.8459 707.349 36.6063 707.232C36.4066 707.154 36.3067 706.998 36.3067 706.763C36.3067 706.451 36.4465 706.236 36.7261 706.119C37.0456 706.002 37.3652 705.904 37.6847 705.826C38.5235 705.631 39.1626 705.396 39.6019 705.123C40.0413 704.81 40.261 704.303 40.261 703.6V690.887C40.261 689.833 40.0613 688.895 39.6618 688.075C39.3024 687.255 38.6034 686.767 37.5649 686.611C37.3652 686.571 37.2054 686.493 37.0856 686.376C37.0057 686.259 36.9658 686.083 36.9658 685.849C36.9658 685.419 37.1455 685.185 37.505 685.146C39.1027 684.794 40.4207 684.326 41.4592 683.74C42.4977 683.115 43.2766 682.607 43.7959 682.217C44.1553 681.943 44.4349 681.807 44.6346 681.807C44.8743 681.807 44.9941 681.904 44.9941 682.1C44.9941 682.412 44.9342 683.037 44.8144 683.974C44.7345 684.873 44.6546 685.888 44.5747 687.021C44.4948 688.114 44.4549 689.11 44.4549 690.008V703.6C44.4549 704.264 44.6746 704.752 45.1139 705.064C45.5932 705.377 46.2323 705.631 47.0312 705.826C47.3507 705.904 47.6503 706.002 47.9299 706.119C48.2494 706.236 48.4092 706.451 48.4092 706.763C48.4092 707.193 48.0097 707.408 47.2109 707.408C46.452 707.408 45.8329 707.369 45.3536 707.29C44.9142 707.251 44.4749 707.212 44.0355 707.173C43.6361 707.134 43.0769 707.115 42.3579 707.115C41.6789 707.115 41.1197 707.134 40.6804 707.173C40.241 707.212 39.8017 707.251 39.3623 707.29C38.9229 707.369 38.3038 707.408 37.505 707.408ZM42.298 677.003C41.4592 677.003 40.7403 676.729 40.1412 676.183C39.582 675.597 39.3024 674.894 39.3024 674.074C39.3024 673.214 39.582 672.511 40.1412 671.965C40.7403 671.379 41.4592 671.086 42.298 671.086C43.1768 671.086 43.8957 671.379 44.4549 671.965C45.054 672.511 45.3536 673.214 45.3536 674.074C45.3536 674.894 45.054 675.597 44.4549 676.183C43.8957 676.729 43.1768 677.003 42.298 677.003Z" fill="#1D1717"/>
<path d="M319.554 703.949C318.054 703.949 316.65 703.706 315.344 703.221C314.037 702.785 312.924 702.155 312.005 701.33C311.763 700.797 311.569 699.9 311.424 698.639C311.327 697.378 311.255 696.335 311.206 695.511C311.206 695.074 311.521 694.856 312.15 694.856C312.343 694.856 312.513 694.905 312.658 695.002C312.852 695.05 312.973 695.171 313.021 695.365C313.65 697.742 314.642 699.439 315.997 700.457C317.4 701.476 318.804 701.985 320.207 701.985C321.611 701.985 322.796 701.524 323.764 700.603C324.78 699.633 325.288 698.445 325.288 697.038C325.288 695.729 324.853 694.614 323.982 693.692C323.111 692.723 321.586 691.559 319.409 690.201C317.763 689.183 316.433 688.213 315.416 687.291C314.4 686.37 313.65 685.424 313.166 684.454C312.731 683.484 312.513 682.393 312.513 681.181C312.513 679.629 312.876 678.223 313.602 676.962C314.328 675.701 315.416 674.707 316.868 673.98C318.32 673.204 320.135 672.816 322.312 672.816C323.764 672.816 324.974 672.961 325.942 673.252C326.909 673.543 327.635 673.859 328.119 674.198C328.506 674.731 328.821 675.58 329.063 676.744C329.353 677.859 329.498 678.926 329.498 679.944C329.498 680.284 329.257 680.454 328.773 680.454C328.482 680.454 328.192 680.405 327.902 680.308C327.66 680.163 327.49 679.993 327.393 679.799C326.764 678.199 325.966 676.986 324.998 676.162C324.079 675.289 322.917 674.853 321.514 674.853C320.304 674.853 319.215 675.216 318.247 675.944C317.328 676.671 316.868 677.738 316.868 679.144C316.868 680.26 317.207 681.254 317.884 682.127C318.61 683 319.941 683.994 321.877 685.109C324.683 686.709 326.764 688.213 328.119 689.619C329.523 690.977 330.224 692.795 330.224 695.074C330.224 697.693 329.232 699.827 327.248 701.476C325.264 703.124 322.699 703.949 319.554 703.949Z" fill="#1D1717"/>
<path d="M115.964 567.31C115.009 567.31 114.116 567.148 113.284 566.825C112.453 566.534 111.745 566.113 111.16 565.564C111.006 565.208 110.882 564.61 110.79 563.77C110.728 562.929 110.682 562.234 110.651 561.684C110.651 561.393 110.852 561.248 111.252 561.248C111.375 561.248 111.483 561.28 111.575 561.345C111.698 561.377 111.775 561.458 111.806 561.587C112.207 563.171 112.838 564.303 113.7 564.982C114.593 565.661 115.486 566 116.379 566C117.272 566 118.027 565.693 118.643 565.079C119.289 564.432 119.613 563.64 119.613 562.703C119.613 561.83 119.336 561.086 118.781 560.472C118.227 559.825 117.257 559.05 115.871 558.144C114.824 557.465 113.977 556.819 113.331 556.205C112.684 555.59 112.207 554.96 111.899 554.313C111.621 553.667 111.483 552.939 111.483 552.131C111.483 551.097 111.714 550.159 112.176 549.318C112.638 548.478 113.331 547.815 114.254 547.33C115.178 546.813 116.333 546.554 117.719 546.554C118.643 546.554 119.413 546.651 120.029 546.845C120.644 547.039 121.106 547.249 121.414 547.476C121.661 547.831 121.861 548.397 122.015 549.173C122.2 549.917 122.292 550.628 122.292 551.307C122.292 551.533 122.138 551.646 121.83 551.646C121.645 551.646 121.46 551.614 121.276 551.549C121.122 551.452 121.014 551.339 120.952 551.21C120.552 550.143 120.044 549.335 119.428 548.785C118.843 548.203 118.104 547.912 117.211 547.912C116.441 547.912 115.748 548.155 115.132 548.64C114.547 549.124 114.254 549.836 114.254 550.773C114.254 551.517 114.47 552.18 114.901 552.761C115.363 553.343 116.21 554.006 117.442 554.75C119.228 555.817 120.552 556.819 121.414 557.756C122.307 558.662 122.754 559.874 122.754 561.393C122.754 563.139 122.123 564.562 120.86 565.661C119.597 566.76 117.965 567.31 115.964 567.31Z" fill="#1D1717"/>
<path d="M180.817 275.007C178.771 275.007 176.858 274.67 175.076 273.997C173.294 273.391 171.776 272.515 170.523 271.37C170.193 270.629 169.929 269.383 169.731 267.632C169.599 265.881 169.5 264.433 169.434 263.288C169.434 262.682 169.863 262.379 170.721 262.379C170.985 262.379 171.215 262.446 171.413 262.581C171.677 262.648 171.842 262.816 171.908 263.086C172.766 266.386 174.119 268.743 175.967 270.158C177.88 271.572 179.794 272.279 181.708 272.279C183.621 272.279 185.238 271.639 186.558 270.36C187.944 269.013 188.637 267.363 188.637 265.409C188.637 263.591 188.043 262.042 186.855 260.762C185.667 259.415 183.588 257.799 180.619 255.913C178.375 254.498 176.561 253.151 175.175 251.872C173.789 250.592 172.766 249.279 172.106 247.931C171.512 246.584 171.215 245.069 171.215 243.385C171.215 241.23 171.71 239.277 172.7 237.526C173.69 235.774 175.175 234.394 177.155 233.383C179.134 232.306 181.609 231.767 184.578 231.767C186.558 231.767 188.208 231.969 189.528 232.373C190.847 232.777 191.837 233.215 192.497 233.687C193.025 234.427 193.454 235.606 193.784 237.222C194.18 238.772 194.378 240.253 194.378 241.668C194.378 242.139 194.048 242.375 193.388 242.375C192.992 242.375 192.596 242.308 192.2 242.173C191.87 241.971 191.639 241.735 191.507 241.466C190.649 239.243 189.561 237.559 188.241 236.414C186.987 235.202 185.403 234.596 183.489 234.596C181.84 234.596 180.355 235.101 179.035 236.111C177.781 237.121 177.155 238.603 177.155 240.556C177.155 242.106 177.616 243.486 178.54 244.699C179.53 245.911 181.345 247.292 183.984 248.841C187.812 251.063 190.649 253.151 192.497 255.104C194.411 256.99 195.368 259.516 195.368 262.682C195.368 266.319 194.015 269.282 191.309 271.572C188.604 273.862 185.106 275.007 180.817 275.007Z" fill="#1D1717"/>
<path d="M177.678 69.184C176.701 69.184 175.696 68.7879 174.665 67.9959C173.688 67.2038 172.847 66.242 172.141 65.1105C171.49 63.979 171.164 62.9041 171.164 61.8857C171.164 60.0753 171.626 58.6609 172.548 57.6425C173.471 56.6241 174.937 55.6906 176.945 54.842L185.249 51.2777C186.335 50.8251 186.959 50.4291 187.122 50.0896C187.339 49.7502 187.475 49.0147 187.529 47.8832L187.692 42.4519C187.746 40.9809 187.339 39.708 186.471 38.633C185.657 37.5581 184.462 37.0206 182.888 37.0206C182.074 37.0206 181.26 37.1621 180.446 37.4449C179.632 37.7278 178.953 38.0956 178.41 38.5482C178.085 38.7745 177.868 39.1139 177.759 39.5665C177.65 40.0191 177.596 40.5 177.596 41.0092C177.596 41.2355 177.596 41.4901 177.596 41.773C177.65 42.0559 177.678 42.3105 177.678 42.5368C177.678 42.8196 177.325 43.2157 176.619 43.7249C175.968 44.1775 175.208 44.6018 174.339 44.9978C173.525 45.3373 172.847 45.507 172.304 45.507C172.033 45.507 171.816 45.4504 171.653 45.3373C171.49 45.1675 171.408 44.9695 171.408 44.7432C171.408 43.838 171.68 42.8762 172.223 41.8579C172.82 40.7829 173.634 39.7928 174.665 38.8876C175.914 37.6995 177.271 36.6529 178.736 35.7477C180.202 34.8425 181.64 34.1353 183.051 33.6261C184.462 33.1169 185.711 32.8623 186.796 32.8623C188.75 32.8623 190.352 33.5978 191.6 35.0688C192.903 36.4832 193.527 38.2653 193.473 40.4152L193.065 60.7825C193.011 61.9706 193.255 62.9324 193.798 63.6678C194.395 64.4033 195.128 64.7711 195.997 64.7711C197.353 64.7711 198.358 64.4599 199.009 63.8376C199.28 63.5547 199.497 63.4132 199.66 63.4132C199.932 63.4132 200.149 63.4981 200.312 63.6678C200.474 63.8376 200.556 64.0639 200.556 64.3467C200.556 64.9691 200.257 65.5914 199.66 66.2137C198.792 67.119 197.842 67.8262 196.811 68.3353C195.834 68.9011 194.911 69.184 194.042 69.184C191.546 69.184 189.565 67.713 188.099 64.7711H187.855C186.064 66.2986 184.354 67.4018 182.725 68.0807C181.097 68.8162 179.415 69.184 177.678 69.184ZM181.504 65.1105C182.59 65.1105 183.513 64.9408 184.272 64.6013C185.032 64.2053 185.711 63.6961 186.308 63.0738C186.579 62.7909 186.796 62.4232 186.959 61.9706C187.176 61.4614 187.312 60.6693 187.366 59.5944L187.529 55.4361C187.583 54.8137 187.556 54.3611 187.448 54.0782C187.339 53.7954 187.122 53.6539 186.796 53.6539C186.688 53.6539 186.498 53.6822 186.226 53.7388C185.955 53.7954 185.602 53.9085 185.168 54.0782C182.291 55.1532 180.283 56.2847 179.143 57.4728C178.058 58.6043 177.515 59.651 177.515 60.6127C177.515 62.0837 177.922 63.2152 178.736 64.0073C179.604 64.7428 180.527 65.1105 181.504 65.1105Z" fill="#1D1717"/>
<path d="M212.648 242.145C212.13 242.145 211.599 241.937 211.053 241.522C210.536 241.107 210.09 240.604 209.717 240.011C209.372 239.418 209.199 238.855 209.199 238.322C209.199 237.373 209.444 236.633 209.932 236.099C210.421 235.566 211.197 235.077 212.26 234.632L216.656 232.765C217.231 232.528 217.561 232.321 217.648 232.143C217.763 231.965 217.834 231.58 217.863 230.987L217.949 228.142C217.978 227.372 217.763 226.705 217.303 226.142C216.872 225.579 216.24 225.297 215.406 225.297C214.975 225.297 214.544 225.371 214.113 225.519C213.682 225.668 213.323 225.86 213.036 226.097C212.863 226.216 212.748 226.394 212.691 226.631C212.633 226.868 212.605 227.12 212.605 227.386C212.605 227.505 212.605 227.638 212.605 227.787C212.633 227.935 212.648 228.068 212.648 228.187C212.648 228.335 212.461 228.542 212.087 228.809C211.742 229.046 211.34 229.268 210.88 229.476C210.449 229.654 210.09 229.742 209.803 229.742C209.659 229.742 209.544 229.713 209.458 229.654C209.372 229.565 209.329 229.461 209.329 229.342C209.329 228.868 209.472 228.364 209.76 227.831C210.076 227.268 210.507 226.749 211.053 226.275C211.714 225.653 212.432 225.105 213.208 224.63C213.984 224.156 214.745 223.786 215.492 223.519C216.24 223.252 216.9 223.119 217.475 223.119C218.51 223.119 219.357 223.504 220.018 224.275C220.708 225.016 221.038 225.949 221.01 227.075L220.794 237.744C220.765 238.366 220.895 238.87 221.182 239.255C221.498 239.641 221.886 239.833 222.346 239.833C223.064 239.833 223.596 239.67 223.941 239.344C224.084 239.196 224.199 239.122 224.286 239.122C224.429 239.122 224.544 239.166 224.63 239.255C224.717 239.344 224.76 239.463 224.76 239.611C224.76 239.937 224.602 240.263 224.286 240.589C223.826 241.063 223.323 241.433 222.777 241.7C222.26 241.996 221.771 242.145 221.311 242.145C219.99 242.145 218.941 241.374 218.165 239.833H218.036C217.087 240.633 216.182 241.211 215.32 241.567C214.458 241.952 213.567 242.145 212.648 242.145ZM214.673 240.011C215.248 240.011 215.737 239.922 216.139 239.744C216.541 239.537 216.9 239.27 217.217 238.944C217.36 238.796 217.475 238.603 217.561 238.366C217.676 238.099 217.748 237.685 217.777 237.122L217.863 234.943C217.892 234.617 217.878 234.38 217.82 234.232C217.763 234.084 217.648 234.01 217.475 234.01C217.418 234.01 217.317 234.025 217.173 234.054C217.03 234.084 216.843 234.143 216.613 234.232C215.09 234.795 214.027 235.388 213.424 236.01C212.849 236.603 212.561 237.151 212.561 237.655C212.561 238.425 212.777 239.018 213.208 239.433C213.668 239.818 214.156 240.011 214.673 240.011Z" fill="#1D1717"/>
<path d="M121.016 371.865C120.499 371.865 119.967 371.657 119.421 371.242C118.904 370.828 118.458 370.324 118.085 369.731C117.74 369.138 117.568 368.575 117.568 368.042C117.568 367.094 117.812 366.353 118.3 365.819C118.789 365.286 119.565 364.797 120.628 364.352L125.024 362.485C125.599 362.248 125.93 362.041 126.016 361.863C126.131 361.685 126.203 361.3 126.231 360.707L126.318 357.862C126.346 357.092 126.131 356.425 125.671 355.862C125.24 355.299 124.608 355.017 123.774 355.017C123.343 355.017 122.912 355.091 122.481 355.24C122.05 355.388 121.691 355.58 121.404 355.817C121.231 355.936 121.116 356.114 121.059 356.351C121.001 356.588 120.973 356.84 120.973 357.107C120.973 357.225 120.973 357.358 120.973 357.507C121.001 357.655 121.016 357.788 121.016 357.907C121.016 358.055 120.829 358.262 120.455 358.529C120.111 358.766 119.708 358.988 119.249 359.196C118.818 359.374 118.458 359.463 118.171 359.463C118.027 359.463 117.912 359.433 117.826 359.374C117.74 359.285 117.697 359.181 117.697 359.062C117.697 358.588 117.841 358.084 118.128 357.551C118.444 356.988 118.875 356.469 119.421 355.995C120.082 355.373 120.8 354.825 121.576 354.35C122.352 353.876 123.114 353.506 123.861 353.239C124.608 352.972 125.269 352.839 125.843 352.839C126.878 352.839 127.726 353.224 128.386 353.995C129.076 354.736 129.407 355.669 129.378 356.795L129.162 367.464C129.134 368.086 129.263 368.59 129.55 368.975C129.866 369.361 130.254 369.553 130.714 369.553C131.432 369.553 131.964 369.39 132.309 369.064C132.453 368.916 132.567 368.842 132.654 368.842C132.797 368.842 132.912 368.886 132.999 368.975C133.085 369.064 133.128 369.183 133.128 369.331C133.128 369.657 132.97 369.983 132.654 370.309C132.194 370.783 131.691 371.154 131.145 371.42C130.628 371.717 130.139 371.865 129.68 371.865C128.358 371.865 127.309 371.094 126.533 369.553H126.404C125.455 370.353 124.55 370.931 123.688 371.287C122.826 371.672 121.935 371.865 121.016 371.865ZM123.042 369.731C123.616 369.731 124.105 369.642 124.507 369.464C124.909 369.257 125.269 368.99 125.585 368.664C125.728 368.516 125.843 368.323 125.93 368.086C126.045 367.82 126.116 367.405 126.145 366.842L126.231 364.663C126.26 364.337 126.246 364.1 126.188 363.952C126.131 363.804 126.016 363.73 125.843 363.73C125.786 363.73 125.685 363.745 125.542 363.774C125.398 363.804 125.211 363.863 124.981 363.952C123.458 364.515 122.395 365.108 121.792 365.73C121.217 366.323 120.93 366.871 120.93 367.375C120.93 368.146 121.145 368.738 121.576 369.153C122.036 369.538 122.524 369.731 123.042 369.731Z" fill="#1D1717"/>
<path d="M231.658 678.005C231.373 678.005 231.002 677.948 230.545 677.833C230.146 677.776 229.946 677.577 229.946 677.235C229.946 676.779 230.146 676.465 230.545 676.294C231.002 676.066 231.458 675.867 231.915 675.696C232.771 675.411 233.598 675.097 234.397 674.755C235.196 674.356 235.595 673.587 235.595 672.447V629.353C235.595 627.7 235.281 626.332 234.654 625.249C234.083 624.109 233.085 623.397 231.658 623.112C231.202 622.998 230.973 622.627 230.973 622C230.973 621.43 231.173 621.088 231.573 620.974C233.056 620.632 234.34 620.29 235.424 619.948C236.508 619.549 237.507 619.15 238.42 618.751C239.39 618.352 240.331 617.981 241.244 617.639C241.473 617.525 241.644 617.468 241.758 617.468C241.872 617.468 241.958 617.554 242.015 617.725C242.129 617.839 242.186 617.953 242.186 618.067C242.186 618.58 242.072 619.691 241.843 621.401C241.672 623.055 241.587 625.819 241.587 629.695V672.447C241.587 673.587 241.986 674.356 242.785 674.755C243.584 675.097 244.411 675.411 245.267 675.696C245.723 675.867 246.151 676.066 246.551 676.294C247.007 676.465 247.236 676.779 247.236 677.235C247.236 677.577 247.007 677.776 246.551 677.833C246.151 677.948 245.809 678.005 245.524 678.005C244.44 678.005 243.555 677.948 242.87 677.833C242.243 677.776 241.615 677.719 240.987 677.662C240.417 677.605 239.618 677.577 238.591 677.577C237.621 677.577 236.822 677.605 236.194 677.662C235.567 677.719 234.939 677.776 234.311 677.833C233.684 677.948 232.799 678.005 231.658 678.005Z" fill="#1D1717"/>
<path d="M220.6 449.697C220.428 449.697 220.206 449.663 219.932 449.594C219.692 449.56 219.573 449.44 219.573 449.235C219.573 448.961 219.692 448.773 219.932 448.671C220.206 448.534 220.48 448.414 220.754 448.312C221.267 448.141 221.764 447.952 222.243 447.747C222.722 447.508 222.962 447.046 222.962 446.362V420.506C222.962 419.514 222.774 418.693 222.397 418.044C222.055 417.359 221.456 416.932 220.6 416.761C220.326 416.693 220.189 416.47 220.189 416.094C220.189 415.752 220.309 415.547 220.548 415.478C221.438 415.273 222.209 415.068 222.859 414.863C223.51 414.623 224.109 414.384 224.657 414.145C225.239 413.905 225.804 413.683 226.351 413.478C226.488 413.409 226.591 413.375 226.659 413.375C226.728 413.375 226.779 413.426 226.814 413.529C226.882 413.597 226.916 413.666 226.916 413.734C226.916 414.042 226.848 414.709 226.711 415.735C226.608 416.727 226.557 418.386 226.557 420.711V446.362C226.557 447.046 226.796 447.508 227.276 447.747C227.755 447.952 228.251 448.141 228.765 448.312C229.039 448.414 229.296 448.534 229.535 448.671C229.809 448.773 229.946 448.961 229.946 449.235C229.946 449.44 229.809 449.56 229.535 449.594C229.296 449.663 229.09 449.697 228.919 449.697C228.269 449.697 227.738 449.663 227.327 449.594C226.95 449.56 226.574 449.526 226.197 449.492C225.855 449.457 225.376 449.44 224.759 449.44C224.177 449.44 223.698 449.457 223.321 449.492C222.945 449.526 222.568 449.56 222.192 449.594C221.815 449.663 221.284 449.697 220.6 449.697Z" fill="#1D1717"/>
<path d="M108.692 643.412C106.469 643.412 104.446 642.875 102.623 641.8C100.844 640.682 99.4216 639.176 98.3544 637.284C97.3318 635.349 96.8205 633.199 96.8205 630.833C96.8205 628.038 97.443 625.501 98.6879 623.222C99.9773 620.942 101.689 619.136 103.823 617.803C105.958 616.427 108.314 615.739 110.893 615.739C113.783 615.739 116.317 616.491 118.496 617.997C119.03 618.384 119.296 618.792 119.296 619.222C119.296 619.566 119.141 619.953 118.83 620.383C118.518 620.813 118.14 621.179 117.696 621.48C117.251 621.738 116.829 621.867 116.429 621.867C116.206 621.867 115.984 621.802 115.762 621.673C115.539 621.501 115.295 621.329 115.028 621.157C114.05 620.426 112.96 619.738 111.76 619.093C110.559 618.448 109.559 618.126 108.759 618.126C106.58 618.126 104.802 619.115 103.423 621.093C102.089 623.028 101.422 625.587 101.422 628.769C101.422 630.79 101.867 632.618 102.756 634.252C103.69 635.887 104.913 637.177 106.424 638.123C107.981 639.069 109.692 639.542 111.56 639.542C112.849 639.542 113.961 639.348 114.895 638.961C115.828 638.531 116.829 637.8 117.896 636.768C117.985 636.682 118.096 636.618 118.229 636.575C118.363 636.489 118.474 636.446 118.563 636.446C119.052 636.446 119.296 636.747 119.296 637.349C119.296 637.607 119.208 637.908 119.03 638.252C118.896 638.553 118.652 638.918 118.296 639.348C117.585 640.209 116.74 640.961 115.762 641.606C114.783 642.208 113.694 642.66 112.494 642.961C111.338 643.262 110.07 643.412 108.692 643.412Z" fill="#1D1717"/>
</svg>
