<svg width="1440" height="545" viewBox="0 0 1440 545" fill="none" xmlns="http://www.w3.org/2000/svg">
<g clip-path="url(#clip0_2201_4)">
<rect width="1440" height="545" fill="#1D1717"/>
<path d="M0 0H750L534.733 104.609L544.466 415.211L750 553H0V0Z" fill="#FEFDFA"/>
<path fill-rule="evenodd" clip-rule="evenodd" d="M779.531 -2C790.993 -2 804.093 -1.18113 818.829 0.456055C833.566 2.0932 848.575 4.27629 863.857 7.00488C879.686 9.73352 894.422 13.0071 908.067 16.8271C922.258 20.1015 934.266 23.6487 944.09 27.4688C949.002 29.6516 953.095 32.3809 956.37 35.6553C959.645 38.9296 961.556 43.5684 962.102 49.5713C964.831 69.2171 967.013 87.7715 968.65 105.234C970.834 122.152 971.926 136.613 971.926 148.619C971.926 151.049 971.653 153.208 971.112 155.097C970.619 158.692 969.461 162.199 967.63 165.616C965.291 170.294 962.033 174.304 957.856 177.646C955.183 179.817 952.259 181.739 949.085 183.41C946.078 184.914 942.819 186.084 939.311 186.919C938.642 187.086 938.308 187.504 938.308 188.172C938.308 188.84 938.642 189.258 939.311 189.425C943.822 190.26 948.417 191.513 953.095 193.184C957.94 194.687 962.451 196.943 966.628 199.95C970.805 202.958 974.146 206.884 976.652 211.729C979.158 216.408 980.411 222.422 980.411 229.773C980.411 239.13 978.908 246.566 975.9 252.079C973.06 257.592 969.552 261.769 965.375 264.609C961.198 267.45 957.354 269.789 953.846 271.627C948.332 274.3 942.067 276.305 935.05 277.642C928.033 278.811 919.679 279.396 909.988 279.396C903.639 279.396 897.541 279.229 891.693 278.895C885.846 278.56 879.663 278.394 873.147 278.394C869.806 278.394 865.88 278.476 861.369 278.644C857.025 278.811 852.681 278.978 848.337 279.146C844.16 279.48 840.401 279.646 837.06 279.646C835.556 279.646 834.386 279.229 833.551 278.394C832.715 277.558 832.298 276.639 832.298 275.637C832.298 273.131 833.968 271.377 837.31 270.374C842.823 268.703 846.666 266.948 848.838 265.11C851.177 263.273 852.347 259.764 852.347 254.585V140.304C852.347 134.957 851.261 131.198 849.089 129.026C847.084 126.687 843.157 124.849 837.31 123.513C835.305 123.011 833.885 122.259 833.05 121.257C832.382 120.254 832.047 119.252 832.047 118.25C832.047 117.081 832.465 116.161 833.3 115.493C834.302 114.658 835.556 114.24 837.06 114.24C842.573 114.24 847.167 114.407 850.843 114.741C854.518 115.075 858.028 115.41 861.369 115.744C864.711 116.078 868.554 116.245 872.897 116.245C876.907 116.245 880.583 116.078 883.925 115.744C887.266 115.243 890.942 114.824 894.951 114.49C899.128 113.989 904.224 113.739 910.239 113.739C912.505 113.739 914.709 113.777 916.851 113.851C909.806 101.462 901.694 90.6764 892.512 81.4951C885.416 74.4008 877.502 68.1251 868.77 62.668C860.037 56.6651 849.667 52.0263 837.659 48.752C825.652 44.9319 811.187 43.0225 794.268 43.0225C765.34 43.0225 739.688 49.0254 717.311 61.0312C695.479 72.4914 677.194 88.5897 662.457 109.327C647.72 129.519 636.532 152.713 628.891 178.907C621.795 204.556 618.248 231.57 618.248 259.947C618.248 296.511 620.977 330.072 626.435 360.633C632.438 390.648 641.445 416.57 653.452 438.398C666.006 460.227 681.834 477.145 700.937 489.15C720.039 500.611 742.963 506.341 769.707 506.341C779.531 506.341 788.264 504.43 795.905 500.61C804.092 496.245 810.915 492.152 816.373 488.332C821.831 484.512 825.924 477.963 828.653 468.687C831.928 459.409 833.838 449.04 834.384 437.58C834.93 432.669 835.203 425.574 835.203 416.297V387.646C835.749 377.824 836.021 370.456 836.021 365.545C836.021 359.542 834.384 354.084 831.109 349.173C828.38 343.716 822.922 339.35 814.735 336.075C809.277 333.892 803.819 331.983 798.361 330.346C793.449 328.163 788.264 326.525 782.806 325.434C777.894 323.796 772.981 322.432 768.069 321.341C763.157 320.249 758.518 318.066 754.151 314.792C749.785 311.518 747.603 307.425 747.603 302.514C747.603 298.694 749.512 295.692 753.333 293.509C757.154 291.326 761.247 290.234 765.613 290.234C777.621 290.234 791.539 290.508 807.367 291.054C823.741 291.599 839.842 292.417 855.67 293.509C871.498 294.054 884.87 294.327 895.786 294.327C911.614 294.327 929.081 293.782 948.184 292.69C967.832 291.599 986.116 291.054 1003.04 291.054C1007.4 291.054 1010.68 292.144 1012.86 294.327C1015.04 295.964 1016.14 298.966 1016.14 303.332C1016.14 308.789 1014.77 312.882 1012.04 315.61C1009.31 317.793 1005.49 319.431 1000.58 320.522C984.206 324.888 973.018 330.072 967.014 336.075C961.556 341.532 957.735 349.718 955.552 360.633C953.369 372.639 951.731 383.28 950.64 392.558C950.094 401.289 949.82 411.112 949.82 422.026V449.858C949.82 452.587 950.913 455.316 953.096 458.045C955.825 460.773 958.553 463.502 961.282 466.23C964.011 468.959 965.922 471.96 967.014 475.234C968.651 477.963 969.47 480.965 969.47 484.239C969.47 488.059 968.105 491.879 965.376 495.699C962.647 498.974 958.28 501.157 952.276 502.248C947.91 502.794 940.269 505.796 929.354 511.253C918.983 516.164 905.611 521.894 889.237 528.442C872.863 534.991 853.487 540.721 831.109 545.633C808.732 550.544 783.625 553 755.789 553C715.946 553 678.558 546.724 643.627 534.173C609.242 521.076 578.677 502.794 551.933 479.328C525.734 455.316 505.267 426.939 490.53 394.195C475.794 360.906 468.426 324.069 468.426 283.686C468.426 246.577 475.521 211.104 489.712 177.27C503.903 142.889 524.37 112.329 551.114 85.5889C578.404 58.8485 611.152 37.5652 649.358 21.7393C688.11 5.91332 731.501 -1.99999 779.531 -2ZM905.979 198.196C903.807 198.196 901.384 198.865 898.711 200.201C896.205 201.371 894.951 203.376 894.951 206.216V249.322C894.951 254.334 896.205 258.177 898.711 260.851C901.217 263.524 904.726 264.86 909.236 264.86C913.914 264.86 918.175 263.44 922.018 260.6C926.027 257.592 929.202 253.582 931.541 248.57C933.88 243.558 935.05 237.961 935.05 231.779C935.05 226.099 934.382 221.42 933.045 217.744C931.875 214.069 930.372 211.145 928.534 208.973C926.863 206.634 925.276 204.88 923.772 203.71C922.603 202.54 920.43 201.371 917.256 200.201C914.249 198.865 910.489 198.196 905.979 198.196ZM907.732 125.518C903.556 125.518 900.381 126.437 898.209 128.274C896.037 129.945 894.951 132.535 894.951 136.044V177.396C894.951 180.403 896.037 182.658 898.209 184.162C900.548 185.499 902.721 186.167 904.726 186.167C908.568 186.167 911.994 185.749 915.001 184.914C918.008 183.912 921.015 182.073 924.022 179.4C925.192 178.231 926.696 175.891 928.534 172.383C930.372 168.707 931.291 163.528 931.291 156.845C931.291 149.326 930.372 143.312 928.534 138.801C926.863 134.123 924.273 130.78 920.765 128.775C917.256 126.604 912.912 125.518 907.732 125.518Z" fill="#FEFDFA"/>
<path d="M431.076 460C428.908 460 427.222 459.389 426.017 458.168C424.813 456.947 424.211 455.604 424.211 454.138C424.211 450.474 426.62 447.91 431.437 446.444C439.386 444.002 444.926 441.437 448.058 438.751C451.43 436.064 453.116 430.935 453.116 423.363V256.3C453.116 248.484 451.55 242.989 448.419 239.814C445.528 236.394 439.868 233.708 431.437 231.754C428.547 231.021 426.499 229.922 425.295 228.456C424.331 226.991 423.85 225.526 423.85 224.06C423.85 222.35 424.452 221.007 425.656 220.03C427.101 218.809 428.908 218.198 431.076 218.198C436.375 218.198 442.156 218.32 448.419 218.565C454.682 218.809 460.824 219.175 466.846 219.664C472.868 219.908 478.288 220.03 483.105 220.03C496.594 220.03 511.047 219.908 526.463 219.664C541.879 219.419 555.488 219.175 567.291 218.931C574.999 218.931 581.262 218.442 586.08 217.465C591.138 216.488 594.149 216 595.112 216C597.039 216 598.966 216.611 600.893 217.832C603.061 218.809 604.266 220.763 604.507 223.694C605.47 232.731 606.674 241.646 608.12 250.438C609.806 258.987 610.649 266.559 610.649 273.153C610.649 275.596 610.167 277.427 609.204 278.649C608.24 279.87 607.156 280.48 605.952 280.48C604.747 280.48 603.423 279.992 601.977 279.015C600.532 278.038 599.328 276.45 598.364 274.252C595.715 267.658 593.306 262.162 591.138 257.766C589.211 253.125 586.923 249.461 584.273 246.775C581.623 244.088 578.251 241.524 574.156 239.081C570.061 236.394 564.642 235.051 557.897 235.051H535.134C529.112 235.051 524.174 236.517 520.32 239.447C516.466 242.378 514.539 246.531 514.539 251.904V319.315C514.539 322.49 515.382 324.811 517.069 326.276C518.755 327.498 521.043 328.108 523.934 328.108H554.645C560.908 328.108 565.364 325.788 568.014 321.147C570.904 316.507 573.434 311.255 575.601 305.393C577.528 300.997 580.058 298.799 583.189 298.799C584.393 298.799 585.477 299.532 586.441 300.997C587.404 302.462 587.766 304.539 587.525 307.225C587.284 310.645 586.923 314.064 586.441 317.483C586.2 320.903 585.959 324.322 585.718 327.742C585.718 330.917 585.718 334.214 585.718 337.634C585.718 340.809 585.718 344.106 585.718 347.526C585.959 350.701 586.2 353.998 586.441 357.417C586.682 360.837 586.923 364.378 587.163 368.042C587.645 371.706 587.404 374.392 586.441 376.102C585.718 377.568 584.755 378.3 583.55 378.3C579.455 378.3 576.565 375.369 574.879 369.508C572.711 361.692 570.182 355.708 567.291 351.556C564.642 347.403 561.028 345.327 556.452 345.327H522.488C519.839 345.327 517.791 346.06 516.346 347.526C515.142 348.991 514.539 351.067 514.539 353.754V422.997C514.539 429.836 515.985 434.721 518.875 437.652C521.766 440.338 526.222 441.682 532.244 441.682H564.401C569.218 441.682 573.915 441.071 578.492 439.85C583.309 438.384 587.404 436.186 590.777 433.255C594.871 429.836 598.605 425.439 601.977 420.066C605.59 414.693 608.722 409.319 611.372 403.946C612.335 401.992 613.299 400.771 614.262 400.282C615.466 399.794 616.791 399.55 618.236 399.55C619.682 399.55 620.645 400.404 621.127 402.114C621.609 403.58 621.85 405.167 621.85 406.877C621.85 411.273 621.247 416.036 620.043 421.165C618.839 426.294 617.273 431.79 615.346 437.652C613.66 443.269 611.974 449.131 610.288 455.237C609.806 456.947 608.722 458.046 607.036 458.535C605.35 459.267 603.543 459.634 601.616 459.634C600.412 459.634 595.715 459.512 587.525 459.267C579.335 459.267 569.098 459.145 556.813 458.901C544.769 458.657 532.123 458.412 518.875 458.168C505.868 458.168 493.944 458.168 483.105 458.168C478.288 458.168 472.747 458.29 466.485 458.535C460.222 458.779 453.959 459.023 447.696 459.267C441.434 459.756 435.893 460 431.076 460Z" fill="#1D1717"/>
</g>
<defs>
<clipPath id="clip0_2201_4">
<rect width="1440" height="545" fill="white"/>
</clipPath>
</defs>
</svg>
