<svg width="1440" height="680" viewBox="0 0 1440 680" fill="none" xmlns="http://www.w3.org/2000/svg">
<g clip-path="url(#clip0_2201_190)">
<rect width="1440" height="680" fill="#FEFDFA"/>
<path d="M1152 52.0001H1440V340H1152V52.0001Z" fill="#1D1717"/>
<path d="M1152 628H1440V916H1152V628Z" fill="#1D1717"/>
<path d="M864 -236H1152V52.0001H864V-236Z" fill="#1D1717"/>
<path d="M864 340H1152V628H864V340Z" fill="#1D1717"/>
<path d="M576 52.0001H864V340H576V52.0001Z" fill="#1D1717"/>
<path d="M576 628H864V916H576V628Z" fill="#1D1717"/>
<path d="M288 -236H576V52.0001H288V-236Z" fill="#1D1717"/>
<path d="M288 340H576V628H288V340Z" fill="#1D1717"/>
<path d="M0 52.0001H288V340H0V52.0001Z" fill="#1D1717"/>
<path d="M0 628H288V916H0V628Z" fill="#1D1717"/>
<path d="M87.2001 285.9C86.4001 285.9 85.6001 285.6 84.8001 285C84.0001 284.6 83.6001 284 83.6001 283.2C83.6001 281.8 84.2001 280.7 85.4001 279.9C86.6001 279.1 87.9001 278.6 89.3001 278.4C99.3001 276.4 108.1 273.8 115.7 270.6C123.5 267.2 128.6 261.7 131 254.1L165.8 141.9C168 134.9 166.9 130.2 162.5 127.8C158.1 125.2 151.9 123.3 143.9 122.1C142.9 121.9 141.9 121.5 140.9 120.9C139.9 120.1 139.4 119.2 139.4 118.2C139.4 116.6 140.2 115.4 141.8 114.6C143.4 113.6 144.9 113 146.3 112.8C151.9 112.2 157.7 110.9 163.7 108.9C169.9 106.9 175.9 104.6 181.7 102C187.5 99.3999 192.5 97.0999 196.7 95.0999C197.3 94.6999 197.9 94.3999 198.5 94.1999C199.3 93.9999 200 93.8999 200.6 93.8999C201.4 93.8999 202.1 94.1999 202.7 94.7999C203.3 95.1999 203.4 95.7999 203 96.5999C201.6 99.5999 200.3 102.9 199.1 106.5C197.9 109.9 196.6 113.7 195.2 117.9L151.7 259.2C150.3 264 150.6 267.5 152.6 269.7C154.8 271.9 158.1 273.5 162.5 274.5C167.1 275.5 172.2 276.8 177.8 278.4C178.8 278.6 179.7 279.1 180.5 279.9C181.3 280.7 181.5 281.6 181.1 282.6C180.9 283.4 180.3 284.2 179.3 285C178.3 285.6 177.3 285.9 176.3 285.9C171.1 285.9 166 285.7 161 285.3C156.2 285.1 151.5 284.9 146.9 284.7C142.3 284.5 137.7 284.4 133.1 284.4C128.1 284.4 123 284.5 117.8 284.7C112.6 284.9 107.4 285.1 102.2 285.3C97.2001 285.7 92.2001 285.9 87.2001 285.9Z" fill="#FEFDFA"/>
<path d="M677.919 296.4C670.519 296.4 665.119 295.3 661.719 293.1C658.519 291.1 656.919 288.5 656.919 285.3C656.919 281.9 657.519 279 658.719 276.6C659.919 274 662.019 272.7 665.019 272.7C666.419 272.7 668.219 273.3 670.419 274.5C672.619 275.5 674.619 276.7 676.419 278.1C678.819 279.7 681.519 281.3 684.519 282.9C687.519 284.3 690.919 285 694.719 285C706.719 285 717.219 282 726.219 276C735.219 270 742.219 262.1 747.219 252.3C752.219 242.5 754.719 232 754.719 220.8C754.719 213.2 753.019 206.8 749.619 201.6C746.419 196.4 741.119 193.8 733.719 193.8C731.719 193.8 728.919 194.1 725.319 194.7C721.719 195.1 718.019 196.3 714.219 198.3C713.419 198.5 712.519 198.5 711.519 198.3C710.719 198.1 710.319 197.3 710.319 195.9C710.319 194.1 711.019 192.5 712.419 191.1C713.819 189.7 715.419 188.5 717.219 187.5C719.019 186.5 720.519 185.8 721.719 185.4C726.719 183.8 732.019 181.5 737.619 178.5C743.419 175.5 748.819 171.8 753.819 167.4C758.819 162.8 762.919 157.8 766.119 152.4C769.319 146.8 770.919 140.9 770.919 134.7C770.919 128.5 769.119 123.5 765.519 119.7C761.919 115.7 757.219 113.7 751.419 113.7C743.219 113.7 736.219 115.3 730.419 118.5C724.819 121.7 719.119 127.4 713.319 135.6C712.519 137 711.819 138.2 711.219 139.2C710.819 140 709.819 140.4 708.219 140.4C707.619 140.4 706.519 139.4 704.919 137.4C703.319 135.4 702.519 133.5 702.519 131.7C702.519 128.7 704.619 125.2 708.819 121.2C713.019 117 718.319 113 724.719 109.2C731.119 105.4 737.719 102.3 744.519 99.8999C751.319 97.2999 757.319 95.9999 762.519 95.9999C768.719 95.9999 774.419 97.1999 779.619 99.5999C785.019 101.8 789.319 105.1 792.519 109.5C795.719 113.7 797.319 118.7 797.319 124.5C797.319 129.7 796.019 134.8 793.419 139.8C791.019 144.6 787.719 149.3 783.519 153.9C779.319 158.3 774.519 162.4 769.119 166.2C763.919 170 758.419 173.3 752.619 176.1C752.019 176.3 751.619 176.7 751.419 177.3C751.219 177.7 751.519 178 752.319 178.2C758.119 179.2 763.319 181.1 767.919 183.9C772.519 186.7 776.119 190.6 778.719 195.6C781.519 200.4 782.919 206.5 782.919 213.9C782.919 222.1 780.819 230.4 776.619 238.8C772.419 247.2 766.619 255.2 759.219 262.8C752.019 270.2 743.719 276.6 734.319 282C725.719 287 716.419 290.6 706.419 292.8C696.419 295.2 686.919 296.4 677.919 296.4Z" fill="#FEFDFA"/>
<path d="M1254 296.4C1248 296.4 1243.7 294.8 1241.1 291.6C1238.7 288.6 1237.5 285.5 1237.5 282.3C1237.5 280.1 1237.9 278.3 1238.7 276.9C1239.5 275.3 1240.6 274.5 1242 274.5C1244.8 274.5 1247.2 275.4 1249.2 277.2C1251.4 279 1254.6 280.7 1258.8 282.3C1260.6 283.1 1262.7 283.7 1265.1 284.1C1267.7 284.5 1270.7 284.7 1274.1 284.7C1279.3 284.7 1285.3 283.7 1292.1 281.7C1298.9 279.7 1305.4 276.5 1311.6 272.1C1318 267.5 1323.2 261.6 1327.2 254.4C1331.4 247 1333.5 237.9 1333.5 227.1C1333.5 219.5 1331.7 213.1 1328.1 207.9C1324.5 202.7 1319.3 198 1312.5 193.8C1305.7 189.4 1297.5 184.8 1287.9 180C1283.5 177.8 1280.6 175.9 1279.2 174.3C1278 172.5 1277.4 170.7 1277.4 168.9C1277.4 167.9 1277.5 167.1 1277.7 166.5C1277.9 165.7 1278.1 165.1 1278.3 164.7C1279.3 161.7 1280.8 158.2 1282.8 154.2C1285 150.2 1287.4 146.1 1290 141.9C1292.6 137.5 1295.2 133.3 1297.8 129.3C1300.4 125.1 1302.7 121.4 1304.7 118.2C1306.7 115.2 1308.6 113 1310.4 111.6C1312.4 110 1315 108.8 1318.2 108C1322.8 106.8 1327.5 105.7 1332.3 104.7C1337.3 103.7 1342.4 102.8 1347.6 102C1352.8 101 1358.1 100.1 1363.5 99.2999C1369.1 98.4999 1374.9 97.6999 1380.9 96.8999C1382.9 96.8999 1383.9 97.8999 1383.9 99.8999C1383.9 100.9 1383.2 102.6 1381.8 105C1380.6 107.4 1378.9 110 1376.7 112.8C1374.7 115.4 1372.6 117.7 1370.4 119.7C1368.2 121.5 1366.2 122.5 1364.4 122.7C1360.6 122.9 1356.1 123.2 1350.9 123.6C1345.7 124 1340.4 124.4 1335 124.8C1329.8 125 1325 125.3 1320.6 125.7C1316.2 126.1 1312.9 126.5 1310.7 126.9C1309.5 127.1 1307.6 128.8 1305 132C1302.4 135 1299.8 138.4 1297.2 142.2C1294.6 145.8 1292.8 148.6 1291.8 150.6C1290.4 153.2 1291.1 155.1 1293.9 156.3C1305.7 161.3 1316.4 166.5 1326 171.9C1335.6 177.1 1343.2 183.3 1348.8 190.5C1354.6 197.5 1357.5 206.4 1357.5 217.2C1357.5 228.4 1354.3 238.8 1347.9 248.4C1341.5 258 1333.1 266.4 1322.7 273.6C1312.3 280.8 1301 286.4 1288.8 290.4C1276.8 294.4 1265.2 296.4 1254 296.4Z" fill="#FEFDFA"/>
<path d="M481.7 285.9C480.3 285.9 478.1 285.8 475.1 285.6C472.1 285.4 468.7 285.2 464.9 285C461.1 284.8 457.1 284.6 452.9 284.4C448.9 284.2 445 284.1 441.2 284.1C437.4 284.1 432 284.2 425 284.4C418 284.6 410.6 284.8 402.8 285C395.2 285 388.5 285.1 382.7 285.3C376.9 285.5 373.2 285.6 371.6 285.6C370.8 285.6 369.6 285 368 283.8C366.4 282.4 365.6 281.3 365.6 280.5C365.6 279.5 365.8 278.8 366.2 278.4C366.6 278 367.2 277.4 368 276.6L419.3 223.5C429.3 213.1 437.6 201.5 444.2 188.7C450.8 175.7 454.1 162.6 454.1 149.4C454.1 138.8 450.9 130.5 444.5 124.5C438.1 118.3 430.6 115.2 422 115.2C413.8 115.2 406.2 117.5 399.2 122.1C392.2 126.5 386.6 132.3 382.4 139.5C381.8 140.7 381 141.7 380 142.5C379.2 143.3 378.3 143.7 377.3 143.7C376.5 143.7 375.5 142.9 374.3 141.3C373.3 139.5 372.8 137.3 372.8 134.7C372.8 132.3 374.2 129 377 124.8C380 120.6 384.1 116.3 389.3 111.9C394.5 107.5 400.7 103.8 407.9 100.8C415.1 97.5999 422.9 95.9999 431.3 95.9999C441.3 95.9999 449.9 98.0999 457.1 102.3C464.3 106.5 469.8 112.3 473.6 119.7C477.4 127.1 479.3 135.7 479.3 145.5C479.3 150.9 478.3 156.7 476.3 162.9C474.5 169.1 471.9 175.2 468.5 181.2C465.3 187.2 461.6 192.8 457.4 198C454.8 201.2 450.9 205.5 445.7 210.9C440.7 216.1 435.2 221.7 429.2 227.7C423.4 233.7 417.8 239.4 412.4 244.8C407.2 250 402.9 254.4 399.5 258C396.1 261.4 394.4 263.3 394.4 263.7C394.4 264.7 395.8 265.4 398.6 265.8C402 266 405.8 266.2 410 266.4C414.4 266.6 419.4 266.7 425 266.7C430.8 266.7 436.6 266.6 442.4 266.4C448.2 266.2 453.8 266 459.2 265.8C465 265.4 469.5 264.9 472.7 264.3C475.9 263.7 478.6 262.5 480.8 260.7C483 258.7 485.3 255.7 487.7 251.7C488.5 250.5 489.5 249.1 490.7 247.5C492.1 245.7 493.6 244.8 495.2 244.8C496.2 244.8 496.8 245.2 497 246C497.2 246.8 497.3 247.6 497.3 248.4C497.3 249.4 496.7 251.4 495.5 254.4C494.5 257.2 493.3 260.7 491.9 264.9C490.5 269.1 489.3 273.7 488.3 278.7C487.7 281.9 486.7 283.9 485.3 284.7C483.9 285.5 482.7 285.9 481.7 285.9Z" fill="#1D1717"/>
<path d="M146.6 571.8C136.4 571.8 126.6 569.5 117.2 564.9C107.8 560.3 100.1 553.4 94.1001 544.2C88.1001 534.8 85.1001 523.1 85.1001 509.1C85.1001 497.9 86.4001 487.7 89.0001 478.5C91.6001 469.3 94.9001 461.2 98.9001 454.2C102.9 447 106.9 440.9 110.9 435.9C115.1 430.7 118.6 426.7 121.4 423.9C126.4 418.7 132.8 412.9 140.6 406.5C148.4 400.1 157.4 394 167.6 388.2C178 382.4 189.3 377.9 201.5 374.7C203.3 374.3 204.7 374.4 205.7 375C206.9 375.6 207.3 376.2 206.9 376.8C206.1 378.6 204.8 380 203 381C201.4 381.8 200.1 382.4 199.1 382.8C185.7 388.6 174.1 395.2 164.3 402.6C154.7 410 146.1 419.2 138.5 430.2C135.3 435 131.5 441.6 127.1 450C122.7 458.2 118.9 467.4 115.7 477.6C112.5 487.8 110.9 498.1 110.9 508.5C111.1 519.5 113.4 528.9 117.8 536.7C122.2 544.3 127.6 550.1 134 554.1C140.6 558.1 147.2 560.2 153.8 560.4C162 560.6 169.2 557.8 175.4 552C181.6 546 184.7 536.8 184.7 524.4C184.7 518.2 183.5 512.5 181.1 507.3C178.9 501.9 175.7 497.5 171.5 494.1C167.5 490.7 162.8 489 157.4 489C152.2 489 147.7 489.3 143.9 489.9C140.3 490.5 136.8 491.7 133.4 493.5C131.6 494.3 130.5 494.3 130.1 493.5C129.9 492.5 130.3 491.4 131.3 490.2C132.9 488.6 134.2 487.3 135.2 486.3C136.4 485.3 137.8 484.2 139.4 483C141.6 481.4 145.6 479.4 151.4 477C157.4 474.4 163.2 473.1 168.8 473.1C175.8 473.1 182.2 474.7 188 477.9C194 481.1 198.8 485.5 202.4 491.1C206.2 496.5 208.1 502.8 208.1 510C208.1 519.4 206.3 527.9 202.7 535.5C199.1 543.1 194.3 549.6 188.3 555C182.3 560.4 175.6 564.5 168.2 567.3C161 570.3 153.8 571.8 146.6 571.8Z" fill="#1D1717"/>
<path d="M370.1 576.6C368.1 576.6 366.7 575.8 365.9 574.2C365.3 572.8 365.4 571 366.2 568.8C366.4 568.2 367.5 566.6 369.5 564C371.7 561.4 373.8 558.9 375.8 556.5L504.8 404.7C505.2 404.1 505.5 403.5 505.7 402.9C506.1 402.3 505.2 401.9 503 401.7H434.9C429.9 401.7 425.2 402.7 420.8 404.7C416.4 406.5 412.7 409.5 409.7 413.7C408.9 414.7 407.5 415.9 405.5 417.3C403.7 418.7 402.1 419.4 400.7 419.4C399.3 419.4 398.6 418.4 398.6 416.4C398.8 414.2 399.4 412.2 400.4 410.4C403.2 405.6 405.6 401 407.6 396.6C409.8 392 411.5 387.8 412.7 384C413.3 382.6 414 381.7 414.8 381.3C415.6 380.9 416.2 380.7 416.6 380.7C417.8 380.7 420.1 380.9 423.5 381.3C426.9 381.5 430.3 381.7 433.7 381.9C436.5 381.9 439.6 382 443 382.2C446.6 382.2 450.4 382.2 454.4 382.2C458.6 382.2 462.8 382.2 467 382.2C476.2 382.2 485.2 382.2 494 382.2C502.8 382 510.4 381.8 516.8 381.6C523.4 381.2 527.6 380.9 529.4 380.7C530.4 380.7 531.2 381.3 531.8 382.5C532.4 383.5 532.5 384.3 532.1 384.9C530.1 387.5 527.5 390.8 524.3 394.8C521.1 398.8 518.1 402.4 515.3 405.6L377.9 568.5C376.5 570.1 375 571.8 373.4 573.6C371.8 575.6 370.7 576.6 370.1 576.6Z" fill="#FEFDFA"/>
<path d="M725.6 571.2C716.4 571.2 707.7 569.3 699.5 565.5C691.5 561.5 685 556 680 549C675 542 672.5 533.9 672.5 524.7C672.5 515.9 674.8 508.4 679.4 502.2C684 496 689.4 490.9 695.6 486.9C702 482.7 707.7 479.2 712.7 476.4C714.1 475.6 714.6 475 714.2 474.6C713.8 474.2 713 473.5 711.8 472.5C705.8 467.3 700.1 462.4 694.7 457.8C689.5 453 685.2 447.7 681.8 441.9C678.6 435.9 677 428.7 677 420.3C677 412.5 679.7 405.4 685.1 399C690.5 392.6 697.4 387.5 705.8 383.7C714.2 379.9 722.8 378 731.6 378C739.6 378 747.2 379.7 754.4 383.1C761.8 386.3 767.8 390.9 772.4 396.9C777 402.9 779.3 410 779.3 418.2C779.3 425.4 777.5 431.3 773.9 435.9C770.3 440.3 766.8 444 763.4 447C760.6 449.4 758.1 451.5 755.9 453.3C753.7 454.9 750.9 457 747.5 459.6C744.9 461.4 743.6 462.7 743.6 463.5C743.6 464.1 744.4 464.9 746 465.9C753.6 471.1 760.3 476.2 766.1 481.2C771.9 486.2 776.4 491.6 779.6 497.4C783 503.2 784.7 510 784.7 517.8C784.7 528.2 781.8 537.4 776 545.4C770.2 553.4 762.8 559.7 753.8 564.3C744.8 568.9 735.4 571.2 725.6 571.2ZM729.8 562.5C738.6 562.5 745.9 559.3 751.7 552.9C757.7 546.3 760.7 538.6 760.7 529.8C760.7 523.6 758.9 517.7 755.3 512.1C751.9 506.5 747.5 501.3 742.1 496.5C736.7 491.5 731.1 487 725.3 483C724.1 482 723 481.3 722 480.9C721.2 480.3 720.3 480 719.3 480C718.5 480 717.3 480.6 715.7 481.8C709.3 487 704.5 492.3 701.3 497.7C698.1 502.9 696.5 510.3 696.5 519.9C696.5 526.9 697.8 533.7 700.4 540.3C703 546.7 706.8 552 711.8 556.2C716.8 560.4 722.8 562.5 729.8 562.5ZM739.4 459.6C746.4 453.8 750.9 447.4 752.9 440.4C755.1 433.4 756.2 425.3 756.2 416.1C756.2 407.7 754 400.5 749.6 394.5C745.4 388.3 738.9 385.2 730.1 385.2C725.5 385.2 720.9 386.5 716.3 389.1C711.7 391.7 707.8 395.2 704.6 399.6C701.6 404 700.1 408.9 700.1 414.3C700.1 421.9 701.5 427.9 704.3 432.3C707.3 436.7 711.4 440.8 716.6 444.6C722 448.2 728.2 452.9 735.2 458.7C735.8 459.1 736.5 459.5 737.3 459.9C738.1 460.1 738.8 460 739.4 459.6Z" fill="#1D1717"/>
<path d="M936.8 576.3C935.4 576.3 934.5 575.9 934.1 575.1C933.7 574.5 933.5 573.9 933.5 573.3C933.5 572.3 934 571.4 935 570.6C936 570 937.3 569.7 938.9 569.7C947.3 569.7 956.2 567.5 965.6 563.1C975 558.5 984.4 552.4 993.8 544.8C1003.2 537 1012.2 528.3 1020.8 518.7C1029.4 508.9 1037 498.7 1043.6 488.1C1050.2 477.5 1055.4 467 1059.2 456.6C1063.2 446.2 1065.2 436.5 1065.2 427.5C1065.2 417.1 1063.1 408.1 1058.9 400.5C1054.9 392.9 1049.1 389.1 1041.5 389.1C1034.9 389.1 1028.6 391.4 1022.6 396C1016.6 400.6 1011.7 406.4 1007.9 413.4C1004.1 420.2 1002.2 427.1 1002.2 434.1C1002.2 441.1 1004 447.2 1007.6 452.4C1011.2 457.4 1015.8 459.9 1021.4 459.9C1027.2 459.9 1031.7 459.1 1034.9 457.5C1038.3 455.7 1042 453.9 1046 452.1C1047.4 451.3 1048.1 451.6 1048.1 453C1048.1 453.2 1048 453.8 1047.8 454.8C1047.6 455.6 1047.4 456.1 1047.2 456.3C1044 460.5 1040.1 464 1035.5 466.8C1033.9 467.8 1031.4 469.2 1028 471C1024.8 472.8 1021.3 474.4 1017.5 475.8C1013.7 477 1010.1 477.6 1006.7 477.6C998.7 477.6 991.7 474.7 985.7 468.9C979.9 463.1 977 456.2 977 448.2C977 440.4 979.4 432.4 984.2 424.2C989 416 995.2 408.4 1002.8 401.4C1010.6 394.4 1019 388.8 1028 384.6C1037 380.4 1045.7 378.3 1054.1 378.3C1061.3 378.3 1067.6 380.5 1073 384.9C1078.4 389.1 1082.6 394.8 1085.6 402C1088.6 409 1090.1 416.9 1090.1 425.7C1090.1 435.9 1087.8 446.7 1083.2 458.1C1078.6 469.3 1072.3 480.6 1064.3 492C1056.3 503.2 1047.2 513.9 1037 524.1C1026.8 534.1 1015.9 543.1 1004.3 551.1C992.9 558.9 981.4 565 969.8 569.4C958.2 574 947.2 576.3 936.8 576.3Z" fill="#FEFDFA"/>
<path d="M1303.5 571.2C1293.3 571.2 1284.4 568.4 1276.8 562.8C1269.4 557.2 1263.2 549.8 1258.2 540.6C1253.2 531.2 1249.5 520.9 1247.1 509.7C1244.7 498.5 1243.5 487.4 1243.5 476.4C1243.5 465 1244.7 453.5 1247.1 441.9C1249.5 430.3 1253.2 419.7 1258.2 410.1C1263.4 400.5 1270 392.8 1278 387C1286 381 1295.5 378 1306.5 378C1316.7 378 1325.5 380.8 1332.9 386.4C1340.5 392 1346.8 399.5 1351.8 408.9C1356.8 418.1 1360.5 428.3 1362.9 439.5C1365.3 450.5 1366.5 461.4 1366.5 472.2C1366.5 483.4 1365.3 494.8 1362.9 506.4C1360.5 518 1356.7 528.7 1351.5 538.5C1346.5 548.3 1340 556.2 1332 562.2C1324.2 568.2 1314.7 571.2 1303.5 571.2ZM1308.6 563.4C1316.6 563.4 1323 559.4 1327.8 551.4C1332.8 543.2 1336.4 532.6 1338.6 519.6C1340.8 506.6 1341.9 492.6 1341.9 477.6C1341.9 466.4 1341 455.4 1339.2 444.6C1337.6 433.8 1335 424 1331.4 415.2C1328 406.4 1323.7 399.4 1318.5 394.2C1313.5 389 1307.6 386.4 1300.8 386.4C1292.8 386.4 1286.4 390.3 1281.6 398.1C1277 405.9 1273.6 416.3 1271.4 429.3C1269.4 442.1 1268.4 456 1268.4 471C1268.4 482.2 1269.2 493.3 1270.8 504.3C1272.6 515.3 1275.1 525.3 1278.3 534.3C1281.7 543.1 1285.9 550.2 1290.9 555.6C1295.9 560.8 1301.8 563.4 1308.6 563.4Z" fill="#1D1717"/>
<path d="M998 285.9C997 285.9 995.8 285.6 994.4 285C993.2 284.4 992.6 283.4 992.6 282C992.6 281 993.2 280.2 994.4 279.6C995.6 279 996.8 278.6 998 278.4C1007.4 277.2 1013.6 275.2 1016.6 272.4C1019.6 269.6 1021.1 265.8 1021.1 261V233.1C1021.1 232.1 1020.4 231.4 1019 231C1017.6 230.6 1016.8 230.4 1016.6 230.4C1008.4 230.4 1000.7 230.6 993.5 231C986.5 231.2 979.1 231.5 971.3 231.9C963.5 232.1 954.3 232.3 943.7 232.5C942.9 232.5 942.2 232.2 941.6 231.6C941 230.8 940.7 230.1 940.7 229.5C940.7 229.1 940.8 228.8 941 228.6C943.6 225.4 945.5 223.2 946.7 222C947.9 220.6 948.9 219.5 949.7 218.7C950.5 217.7 951.5 216.3 952.7 214.5L1031.9 100.8C1033.1 98.9999 1034.5 97.1999 1036.1 95.3999C1037.9 93.3999 1039.5 92.3999 1040.9 92.3999H1047.2C1048.2 92.3999 1048.3 93.0999 1047.5 94.4999C1046.9 95.8999 1046.6 96.5999 1046.6 96.5999L965.6 213C965.4 213.4 965.2 214 965 214.8C964.8 215.4 965 215.7 965.6 215.7H1017.5C1018.3 215.7 1019.1 215.5 1019.9 215.1C1020.7 214.5 1021.1 213.9 1021.1 213.3V166.8C1021.1 164.6 1021.2 163.1 1021.4 162.3C1021.8 161.5 1022.6 160.8 1023.8 160.2C1026.8 158.6 1030 157.6 1033.4 157.2C1036.8 156.6 1039.2 156.3 1040.6 156.3C1042.8 156.3 1044.1 157.9 1044.5 161.1C1044.9 164.3 1045.1 169.1 1045.1 175.5V214.2C1045.1 215.4 1045.6 216 1046.6 216C1048.8 216.2 1050.9 216.3 1052.9 216.3C1054.9 216.3 1056.8 216.3 1058.6 216.3C1061.4 216.3 1064.2 216.3 1067 216.3C1070 216.1 1073.1 215.9 1076.3 215.7C1078.5 215.7 1079.6 216.5 1079.6 218.1C1079.6 219.7 1079.1 221.4 1078.1 223.2C1077.3 225 1076.4 226.5 1075.4 227.7C1074.4 228.9 1073.7 229.5 1073.3 229.5C1071.1 229.5 1068.7 229.5 1066.1 229.5C1063.5 229.3 1061 229.2 1058.6 229.2C1056.8 229.2 1055.1 229.3 1053.5 229.5C1051.9 229.5 1050.5 229.6 1049.3 229.8C1048.5 230 1047.6 230.3 1046.6 230.7C1045.8 231.1 1045.4 231.4 1045.4 231.6V259.8C1045.4 265.6 1046.7 269.6 1049.3 271.8C1052.1 274 1057.5 276.2 1065.5 278.4C1066.7 278.6 1067.9 279.1 1069.1 279.9C1070.3 280.7 1070.9 281.6 1070.9 282.6C1070.9 283.4 1070.4 284.2 1069.4 285C1068.6 285.6 1067.6 285.9 1066.4 285.9C1060.8 285.9 1056.3 285.7 1052.9 285.3C1049.7 285.1 1046.7 284.9 1043.9 284.7C1041.1 284.5 1037.3 284.4 1032.5 284.4C1027.5 284.4 1023.4 284.5 1020.2 284.7C1017.2 284.9 1014.1 285.1 1010.9 285.3C1007.7 285.7 1003.4 285.9 998 285.9Z" fill="#1D1717"/>
</g>
<defs>
<clipPath id="clip0_2201_190">
<rect width="1440" height="680" fill="white"/>
</clipPath>
</defs>
</svg>
