<svg width="1440" height="43" viewBox="0 0 1440 43" fill="none" xmlns="http://www.w3.org/2000/svg">
<path d="M41.3917 15.2804C41.3917 15.0937 41.445 14.947 41.5517 14.8404C41.6584 14.7337 41.765 14.6804 41.8717 14.6804C42.1117 14.6804 42.285 14.8804 42.3917 15.2804C42.6584 16.2937 42.8984 17.1204 43.1117 17.7604C43.3517 18.427 43.6717 18.907 44.0717 19.2004C44.4984 19.5204 45.0984 19.6804 45.8717 19.6804L61.1517 19.6804C61.6584 19.6804 62.045 19.5204 62.3117 19.2004C62.5784 18.8804 62.765 18.467 62.8717 17.9604C62.9784 17.4537 63.045 16.907 63.0717 16.3204C63.0984 16.0537 63.165 15.8137 63.2717 15.6004C63.3784 15.387 63.5384 15.2804 63.7517 15.2804C63.9384 15.2804 64.0984 15.3737 64.2317 15.5604C64.365 15.7737 64.445 16.0137 64.4717 16.2804C64.6584 17.4804 64.885 18.547 65.1517 19.4804C65.445 20.4404 66.045 21.3737 66.9517 22.2804C66.9784 22.307 66.9917 22.3337 66.9917 22.3604C66.9917 22.4137 66.9917 22.4537 66.9917 22.4804C66.9917 22.6137 66.9517 22.7337 66.8717 22.8404C66.8184 22.947 66.7384 22.987 66.6317 22.9604C66.2317 22.907 65.7917 22.867 65.3117 22.8404C64.8584 22.8137 64.3517 22.8004 63.7917 22.8004L45.3917 22.8004C44.725 22.8004 44.2184 22.9204 43.8717 23.1604C43.525 23.427 43.245 23.867 43.0317 24.4804C42.845 25.0937 42.6184 25.947 42.3517 27.0404C42.325 27.2004 42.2584 27.347 42.1517 27.4804C42.0717 27.6404 41.965 27.7204 41.8317 27.7204C41.5384 27.7204 41.3917 27.5337 41.3917 27.1604C41.3917 26.4137 41.4184 25.7204 41.4717 25.0804C41.4984 24.467 41.525 23.8537 41.5517 23.2404C41.5784 22.6537 41.5917 22.0004 41.5917 21.2804C41.5917 20.5604 41.5784 19.8804 41.5517 19.2404C41.525 18.6004 41.4984 17.9604 41.4717 17.3204C41.4184 16.6804 41.3917 16.0004 41.3917 15.2804Z" fill="#1D1717"/>
<path d="M231.058 27.7603C231.058 27.5736 231.071 27.2803 231.098 26.8803C231.124 26.4803 231.151 26.0269 231.178 25.5203C231.204 25.0136 231.231 24.4803 231.258 23.9203C231.284 23.3869 231.298 22.8669 231.298 22.3603C231.298 21.8536 231.284 21.1336 231.258 20.2003C231.231 19.2669 231.204 18.2803 231.178 17.2403C231.178 16.2269 231.164 15.3336 231.138 14.5603C231.111 13.7869 231.098 13.2936 231.098 13.0803C231.098 12.9736 231.178 12.8136 231.338 12.6003C231.524 12.3869 231.671 12.2803 231.778 12.2803C231.911 12.2803 232.004 12.3069 232.058 12.3603C232.111 12.4136 232.191 12.4936 232.298 12.6003L239.378 19.4403C240.764 20.7736 242.311 21.8803 244.018 22.7603C245.751 23.6403 247.498 24.0803 249.258 24.0803C250.671 24.0803 251.778 23.6536 252.578 22.8003C253.404 21.9469 253.818 20.9469 253.818 19.8003C253.818 18.7069 253.511 17.6936 252.898 16.7603C252.311 15.8269 251.538 15.0803 250.578 14.5203C250.418 14.4403 250.284 14.3336 250.178 14.2003C250.071 14.0936 250.018 13.9736 250.018 13.8403C250.018 13.7336 250.124 13.6003 250.338 13.4403C250.578 13.3069 250.871 13.2403 251.218 13.2403C251.538 13.2403 251.978 13.4269 252.538 13.8003C253.098 14.2003 253.671 14.7469 254.258 15.4403C254.844 16.1336 255.338 16.9603 255.738 17.9203C256.164 18.8803 256.378 19.9203 256.378 21.0403C256.378 22.3736 256.098 23.5203 255.538 24.4803C254.978 25.4403 254.204 26.1736 253.218 26.6803C252.231 27.1869 251.084 27.4403 249.778 27.4403C249.058 27.4403 248.284 27.3069 247.458 27.0403C246.631 26.8003 245.818 26.4536 245.018 26.0003C244.218 25.5736 243.471 25.0803 242.778 24.5203C242.351 24.1736 241.778 23.6536 241.058 22.9603C240.364 22.2936 239.618 21.5603 238.818 20.7603C238.018 19.9869 237.258 19.2403 236.538 18.5203C235.844 17.8269 235.258 17.2536 234.778 16.8003C234.324 16.3469 234.071 16.1203 234.018 16.1203C233.884 16.1203 233.791 16.3069 233.738 16.6803C233.711 17.1336 233.684 17.6403 233.658 18.2003C233.631 18.7869 233.618 19.4536 233.618 20.2003C233.618 20.9736 233.631 21.7469 233.658 22.5203C233.684 23.2936 233.711 24.0403 233.738 24.7603C233.791 25.5336 233.858 26.1336 233.938 26.5603C234.018 26.9869 234.178 27.3469 234.418 27.6403C234.684 27.9336 235.084 28.2403 235.618 28.5603C235.778 28.6669 235.964 28.8003 236.178 28.9603C236.418 29.1469 236.538 29.3469 236.538 29.5603C236.538 29.6936 236.484 29.7736 236.378 29.8003C236.271 29.8269 236.164 29.8403 236.058 29.8403C235.924 29.8403 235.658 29.7603 235.258 29.6003C234.884 29.4669 234.418 29.3069 233.858 29.1203C233.298 28.9336 232.684 28.7736 232.018 28.6403C231.591 28.5603 231.324 28.4269 231.218 28.2403C231.111 28.0536 231.058 27.8936 231.058 27.7603Z" fill="#1D1717"/>
<path d="M419.324 17.4403C419.324 16.8269 419.43 16.1736 419.644 15.4803C419.83 14.7869 420.057 14.2003 420.324 13.7203C420.59 13.2403 420.83 13.0003 421.044 13.0003C421.23 13.0003 421.47 13.1069 421.764 13.3203C422.057 13.5336 422.31 13.7736 422.524 14.0403C422.764 14.3336 422.884 14.5736 422.884 14.7603C422.884 15.0536 422.804 15.3203 422.644 15.5603C422.484 15.8003 422.297 16.0536 422.084 16.3203C421.79 16.6669 421.51 17.0669 421.244 17.5203C420.977 17.9736 420.844 18.5736 420.844 19.3203C420.844 20.3069 421.097 21.2403 421.604 22.1203C422.11 23.0003 422.804 23.7203 423.684 24.2803C424.59 24.8669 425.59 25.1603 426.684 25.1603C427.724 25.1603 428.724 24.9869 429.684 24.6403C430.644 24.2936 431.43 23.7736 432.044 23.0803C432.684 22.4136 433.004 21.5603 433.004 20.5203C433.004 20.2269 432.964 19.8269 432.884 19.3203C432.83 18.8403 432.67 18.3736 432.404 17.9203C432.324 17.7869 432.324 17.6269 432.404 17.4403C432.51 17.2803 432.63 17.2136 432.764 17.2403C433.11 17.3469 433.39 17.5069 433.604 17.7203C433.844 17.9336 434.017 18.1736 434.124 18.4403C434.23 18.6803 434.43 19.0669 434.724 19.6003C435.044 20.1336 435.43 20.6936 435.884 21.2803C436.364 21.8936 436.897 22.4136 437.484 22.8403C438.097 23.2669 438.764 23.4803 439.484 23.4803C440.577 23.4803 441.537 23.1203 442.364 22.4003C443.217 21.7069 443.644 20.8136 443.644 19.7203C443.644 18.6803 443.457 17.8403 443.084 17.2003C442.737 16.5869 442.324 16.0936 441.844 15.7203C441.39 15.3469 440.977 15.0669 440.604 14.8803C440.257 14.6936 440.084 14.5203 440.084 14.3603C440.084 14.2536 440.164 14.1203 440.324 13.9603C440.484 13.8003 440.657 13.7203 440.844 13.7203C441.19 13.7203 441.644 13.8669 442.204 14.1603C442.79 14.4536 443.377 14.9069 443.964 15.5203C444.55 16.1603 445.044 16.9603 445.444 17.9203C445.844 18.9069 446.044 20.0803 446.044 21.4403C446.044 22.3203 445.844 23.1469 445.444 23.9203C445.07 24.7203 444.537 25.3736 443.844 25.8803C443.177 26.3869 442.39 26.6403 441.484 26.6403C440.844 26.6403 440.177 26.5069 439.484 26.2403C438.79 25.9736 438.097 25.5336 437.404 24.9203C436.737 24.3069 436.097 23.4803 435.484 22.4403C435.457 22.3603 435.404 22.3203 435.324 22.3203C435.27 22.3203 435.244 22.3736 435.244 22.4803C435.244 23.6269 434.95 24.6536 434.364 25.5603C433.804 26.4669 433.044 27.1869 432.084 27.7203C431.15 28.2803 430.11 28.5603 428.964 28.5603C427.47 28.5603 426.124 28.2403 424.924 27.6003C423.75 26.9603 422.737 26.1069 421.884 25.0403C421.057 23.9736 420.43 22.7736 420.004 21.4403C419.55 20.1336 419.324 18.8003 419.324 17.4403Z" fill="#1D1717"/>
<path d="M610.39 19.4001C610.39 19.2668 610.43 19.1068 610.51 18.9201C610.59 18.7601 610.723 18.6801 610.91 18.6801C611.043 18.6801 611.15 18.7601 611.23 18.9201C611.31 19.0801 611.363 19.2401 611.39 19.4001C611.55 20.6535 611.816 21.4801 612.19 21.8801C612.563 22.2801 613.07 22.4801 613.71 22.4801L617.43 22.4801C617.563 22.4801 617.656 22.3868 617.71 22.2001C617.763 22.0135 617.79 21.9068 617.79 21.8801C617.79 20.7868 617.763 19.7601 617.71 18.8001C617.683 17.8668 617.643 16.8801 617.59 15.8401C617.563 14.8001 617.536 13.5735 617.51 12.1601C617.51 12.0535 617.55 11.9601 617.63 11.8801C617.736 11.8001 617.83 11.7601 617.91 11.7601C617.963 11.7601 618.003 11.7735 618.03 11.8001C618.456 12.1468 618.75 12.4001 618.91 12.5601C619.096 12.7201 619.243 12.8535 619.35 12.9601C619.483 13.0668 619.67 13.2001 619.91 13.3601L635.07 23.9201C635.31 24.0801 635.55 24.2668 635.79 24.4801C636.056 24.7201 636.19 24.9335 636.19 25.1201V25.9601C636.19 26.0935 636.096 26.1068 635.91 26.0001C635.723 25.9201 635.63 25.8801 635.63 25.8801L620.11 15.0801C620.056 15.0535 619.976 15.0268 619.87 15.0001C619.79 14.9735 619.75 15.0001 619.75 15.0801V22.0001C619.75 22.1068 619.776 22.2135 619.83 22.3201C619.91 22.4268 619.99 22.4801 620.07 22.4801H626.27C626.563 22.4801 626.763 22.4935 626.87 22.5201C626.976 22.5735 627.07 22.6801 627.15 22.8401C627.363 23.2401 627.496 23.6668 627.55 24.1201C627.63 24.5735 627.67 24.8935 627.67 25.0801C627.67 25.3735 627.456 25.5468 627.03 25.6001C626.603 25.6535 625.963 25.6801 625.11 25.6801H619.95C619.79 25.6801 619.71 25.7468 619.71 25.8801C619.683 26.1735 619.67 26.4535 619.67 26.7201C619.67 26.9868 619.67 27.2401 619.67 27.4801C619.67 27.8535 619.67 28.2268 619.67 28.6001C619.696 29.0001 619.723 29.4135 619.75 29.8401C619.75 30.1335 619.643 30.2801 619.43 30.2801C619.216 30.2801 618.99 30.2135 618.75 30.0801C618.51 29.9735 618.31 29.8535 618.15 29.7201C617.99 29.5868 617.91 29.4935 617.91 29.4401C617.91 29.1468 617.91 28.8268 617.91 28.4801C617.936 28.1335 617.95 27.8001 617.95 27.4801C617.95 27.2401 617.936 27.0135 617.91 26.8001C617.91 26.5868 617.896 26.4001 617.87 26.2401C617.843 26.1335 617.803 26.0135 617.75 25.8801C617.696 25.7735 617.656 25.7201 617.63 25.7201H613.87C613.096 25.7201 612.563 25.8935 612.27 26.2401C611.976 26.6135 611.683 27.3335 611.39 28.4001C611.363 28.5601 611.296 28.7201 611.19 28.8801C611.083 29.0401 610.963 29.1201 610.83 29.1201C610.723 29.1201 610.616 29.0535 610.51 28.9201C610.43 28.8135 610.39 28.6801 610.39 28.5201C610.39 27.7735 610.416 27.1735 610.47 26.7201C610.496 26.2935 610.523 25.8935 610.55 25.5201C610.576 25.1468 610.59 24.6401 610.59 24.0001C610.59 23.3335 610.576 22.7868 610.55 22.3601C610.523 21.9601 610.496 21.5468 610.47 21.1201C610.416 20.6935 610.39 20.1201 610.39 19.4001Z" fill="#1D1717"/>
<path d="M798.656 15.3603C798.656 15.0669 798.696 14.7469 798.776 14.4003C798.829 14.0536 798.949 13.8803 799.136 13.8803C799.349 13.8803 799.536 14.0536 799.696 14.4003C799.829 14.7736 799.896 15.0803 799.896 15.3203C799.896 17.4269 800.269 19.1603 801.016 20.5203C801.789 21.9069 802.749 22.9336 803.896 23.6003C805.042 24.2936 806.189 24.6403 807.336 24.6403C808.376 24.6403 809.296 24.3336 810.096 23.7203C810.896 23.1069 811.629 22.0936 812.296 20.6803C812.962 19.2936 813.602 17.4136 814.216 15.0403C814.509 14.6936 814.802 14.4403 815.096 14.2803C815.389 14.1469 815.709 14.0803 816.056 14.0803C816.429 14.0803 816.882 14.1469 817.416 14.2803C817.949 14.4403 818.509 14.6269 819.096 14.8403C819.709 15.0536 820.309 15.2669 820.896 15.4803C821.482 15.6936 821.989 15.8669 822.416 16.0003C822.816 16.1336 823.122 16.3336 823.336 16.6003C823.576 16.8669 823.749 17.2136 823.856 17.6403C824.016 18.2536 824.162 18.8803 824.296 19.5203C824.429 20.1603 824.549 20.8269 824.656 21.5203C824.789 22.2136 824.896 22.9203 824.976 23.6403C825.082 24.3869 825.176 25.1469 825.256 25.9203C825.282 26.1336 825.216 26.2803 825.056 26.3603C824.922 26.4669 824.762 26.4669 824.576 26.3603C824.362 26.2536 824.136 26.1336 823.896 26.0003C823.682 25.8936 823.469 25.7869 823.256 25.6803C822.856 25.4936 822.549 25.2803 822.336 25.0403C822.149 24.8269 822.029 24.5469 821.976 24.2003C821.922 23.6936 821.856 23.1069 821.776 22.4403C821.722 21.7736 821.656 21.1069 821.576 20.4403C821.522 19.7736 821.469 19.1603 821.416 18.6003C821.362 18.0403 821.309 17.6136 821.256 17.3203C821.229 17.1336 820.989 16.9069 820.536 16.6403C820.109 16.3736 819.642 16.1336 819.136 15.9203C818.656 15.7069 818.309 15.5869 818.096 15.5603C817.909 15.5336 817.749 15.5469 817.616 15.6003C817.482 15.6803 817.389 15.8403 817.336 16.0803C816.909 17.5736 816.469 18.9336 816.016 20.1603C815.589 21.3869 815.136 22.4536 814.656 23.3603C813.882 24.8536 812.962 25.9603 811.896 26.6803C810.856 27.4269 809.522 27.8003 807.896 27.8003C806.429 27.8003 805.056 27.3603 803.776 26.4803C802.496 25.6003 801.429 24.4136 800.576 22.9203C800.176 22.2003 799.842 21.4403 799.576 20.6403C799.282 19.8403 799.056 19.0003 798.896 18.1203C798.736 17.2403 798.656 16.3203 798.656 15.3603Z" fill="#1D1717"/>
<path d="M989.202 21.0801C989.202 19.7201 989.508 18.4135 990.122 17.1601C990.735 15.9068 991.655 14.8801 992.882 14.0801C994.135 13.2801 995.695 12.8801 997.562 12.8801C999.055 12.8801 1000.42 13.0535 1001.64 13.4001C1002.87 13.7468 1003.95 14.1868 1004.88 14.7201C1005.84 15.2535 1006.66 15.7868 1007.32 16.3201C1008.02 16.8801 1008.55 17.3468 1008.92 17.7201C1009.62 18.3868 1010.39 19.2401 1011.24 20.2801C1012.1 21.3201 1012.91 22.5201 1013.68 23.8801C1014.46 25.2668 1015.06 26.7735 1015.48 28.4001C1015.54 28.6401 1015.52 28.8268 1015.44 28.9601C1015.36 29.1201 1015.28 29.1735 1015.2 29.1201C1014.96 29.0135 1014.78 28.8401 1014.64 28.6001C1014.54 28.3868 1014.46 28.2135 1014.4 28.0801C1013.63 26.2935 1012.75 24.7468 1011.76 23.4401C1010.78 22.1601 1009.55 21.0135 1008.08 20.0001C1007.44 19.5735 1006.56 19.0668 1005.44 18.4801C1004.35 17.8935 1003.12 17.3868 1001.76 16.9601C1000.4 16.5335 999.028 16.3201 997.642 16.3201C996.175 16.3468 994.922 16.6535 993.882 17.2401C992.868 17.8268 992.095 18.5468 991.562 19.4001C991.028 20.2801 990.748 21.1601 990.722 22.0401C990.695 23.1335 991.068 24.0935 991.842 24.9201C992.642 25.7468 993.868 26.1601 995.522 26.1601C996.348 26.1601 997.108 26.0001 997.802 25.6801C998.522 25.3868 999.108 24.9601 999.562 24.4001C1000.02 23.8668 1000.24 23.2401 1000.24 22.5201C1000.24 21.8268 1000.2 21.2268 1000.12 20.7201C1000.04 20.2401 999.882 19.7735 999.642 19.3201C999.535 19.0801 999.535 18.9335 999.642 18.8801C999.775 18.8535 999.922 18.9068 1000.08 19.0401C1000.3 19.2535 1000.47 19.4268 1000.6 19.5601C1000.74 19.7201 1000.88 19.9068 1001.04 20.1201C1001.26 20.4135 1001.52 20.9468 1001.84 21.7201C1002.19 22.5201 1002.36 23.2935 1002.36 24.0401C1002.36 24.9735 1002.15 25.8268 1001.72 26.6001C1001.3 27.4001 1000.71 28.0401 999.962 28.5201C999.242 29.0268 998.402 29.2801 997.442 29.2801C996.188 29.2801 995.055 29.0401 994.042 28.5601C993.028 28.0801 992.162 27.4401 991.442 26.6401C990.722 25.8401 990.175 24.9468 989.802 23.9601C989.402 23.0001 989.202 22.0401 989.202 21.0801Z" fill="#1D1717"/>
<path d="M1178.23 16.0803C1178.23 15.787 1178.33 15.5737 1178.55 15.4403C1178.73 15.307 1178.97 15.2403 1179.27 15.2403C1179.35 15.2403 1179.56 15.3337 1179.91 15.5203C1180.25 15.707 1180.59 15.8937 1180.91 16.0803L1201.15 27.4003C1201.23 27.4537 1201.31 27.467 1201.39 27.4403C1201.47 27.4403 1201.52 27.2937 1201.55 27.0003V16.7603C1201.55 16.1203 1201.43 15.5603 1201.19 15.0803C1200.95 14.6003 1200.45 14.1337 1199.71 13.6803C1199.63 13.627 1199.51 13.547 1199.35 13.4403C1199.19 13.3603 1199.04 13.2537 1198.91 13.1203C1198.77 12.987 1198.71 12.8537 1198.71 12.7203C1198.71 12.6137 1198.77 12.5337 1198.91 12.4803C1199.04 12.4537 1199.16 12.4403 1199.27 12.4403C1199.4 12.4403 1199.55 12.4537 1199.71 12.4803C1199.89 12.5337 1200.04 12.5737 1200.15 12.6003C1200.73 12.7337 1201.41 12.8537 1202.19 12.9603C1202.96 13.0937 1203.6 13.187 1204.11 13.2403C1204.29 13.267 1204.41 13.3203 1204.47 13.4003C1204.52 13.507 1204.55 13.587 1204.55 13.6403C1204.55 13.6937 1204.48 14.0537 1204.35 14.7203C1204.24 15.4137 1204.19 16.1737 1204.19 17.0003C1204.19 17.4003 1204.19 17.7737 1204.19 18.1203C1204.19 18.4937 1204.17 18.907 1204.15 19.3603C1204.15 19.8137 1204.15 20.347 1204.15 20.9603C1204.15 22.267 1204.15 23.5737 1204.15 24.8803C1204.17 26.2137 1204.2 27.3603 1204.23 28.3203C1204.28 29.307 1204.32 29.9203 1204.35 30.1603C1204.35 30.2137 1204.28 30.267 1204.15 30.3203C1204.04 30.3737 1203.93 30.4003 1203.83 30.4003C1203.61 30.4003 1203.32 30.2937 1202.95 30.0803C1202.6 29.8937 1202.25 29.6803 1201.91 29.4403C1201.56 29.2003 1201.27 29.0137 1201.03 28.8803L1179.31 16.8403C1179.09 16.7337 1178.87 16.6003 1178.63 16.4403C1178.36 16.2803 1178.23 16.1603 1178.23 16.0803Z" fill="#1D1717"/>
<path d="M1368.61 20.6805C1368.61 19.4538 1368.87 18.2938 1369.37 17.2005C1369.91 16.1338 1370.64 15.2672 1371.57 14.6005C1372.51 13.9338 1373.59 13.6005 1374.81 13.6005C1375.99 13.6005 1376.99 13.9072 1377.81 14.5205C1378.64 15.1338 1379.32 15.8538 1379.85 16.6805C1380.41 17.5338 1380.88 18.2938 1381.25 18.9605C1381.36 19.1472 1381.44 19.2138 1381.49 19.1605C1381.55 19.1072 1381.64 19.0005 1381.77 18.8405C1382.47 18.0405 1383.12 17.2805 1383.73 16.5605C1384.37 15.8672 1385.08 15.2938 1385.85 14.8405C1386.65 14.4138 1387.61 14.2005 1388.73 14.2005C1389.77 14.2005 1390.72 14.5605 1391.57 15.2805C1392.43 16.0005 1393.11 16.9205 1393.61 18.0405C1394.12 19.1605 1394.37 20.3072 1394.37 21.4805C1394.37 22.5472 1394.15 23.5605 1393.69 24.5205C1393.27 25.5072 1392.65 26.3072 1391.85 26.9205C1391.05 27.5338 1390.11 27.8405 1389.01 27.8405C1388.05 27.8405 1387.27 27.6005 1386.65 27.1205C1386.07 26.6405 1385.57 26.1738 1385.17 25.7205C1384.85 25.3472 1384.57 25.0138 1384.33 24.7205C1384.12 24.4272 1383.84 24.0538 1383.49 23.6005C1383.25 23.2538 1383.08 23.0805 1382.97 23.0805C1382.89 23.0805 1382.79 23.1872 1382.65 23.4005C1381.96 24.4138 1381.28 25.3072 1380.61 26.0805C1379.95 26.8538 1379.23 27.4538 1378.45 27.8805C1377.68 28.3338 1376.77 28.5605 1375.73 28.5605C1374.35 28.5605 1373.12 28.1738 1372.05 27.4005C1370.99 26.6272 1370.15 25.6405 1369.53 24.4405C1368.92 23.2405 1368.61 21.9872 1368.61 20.6805ZM1369.77 21.2405C1369.77 22.4138 1370.2 23.3872 1371.05 24.1605C1371.93 24.9605 1372.96 25.3605 1374.13 25.3605C1374.96 25.3605 1375.75 25.1205 1376.49 24.6405C1377.24 24.1872 1377.93 23.6005 1378.57 22.8805C1379.24 22.1605 1379.84 21.4138 1380.37 20.6405C1380.51 20.4805 1380.6 20.3338 1380.65 20.2005C1380.73 20.0938 1380.77 19.9738 1380.77 19.8405C1380.77 19.7338 1380.69 19.5738 1380.53 19.3605C1379.84 18.5072 1379.13 17.8672 1378.41 17.4405C1377.72 17.0138 1376.73 16.8005 1375.45 16.8005C1374.52 16.8005 1373.61 16.9738 1372.73 17.3205C1371.88 17.6672 1371.17 18.1738 1370.61 18.8405C1370.05 19.5072 1369.77 20.3072 1369.77 21.2405ZM1383.49 22.5205C1384.27 23.4538 1385.12 24.0538 1386.05 24.3205C1386.99 24.6138 1388.07 24.7605 1389.29 24.7605C1390.41 24.7605 1391.37 24.4672 1392.17 23.8805C1393 23.3205 1393.41 22.4538 1393.41 21.2805C1393.41 20.6672 1393.24 20.0538 1392.89 19.4405C1392.55 18.8272 1392.08 18.3072 1391.49 17.8805C1390.91 17.4805 1390.25 17.2805 1389.53 17.2805C1388.52 17.2805 1387.72 17.4672 1387.13 17.8405C1386.55 18.2405 1386 18.7872 1385.49 19.4805C1385.01 20.2005 1384.39 21.0272 1383.61 21.9605C1383.56 22.0405 1383.51 22.1338 1383.45 22.2405C1383.43 22.3472 1383.44 22.4405 1383.49 22.5205Z" fill="#1D1717"/>
<line y1="1.5" x2="1440" y2="1.5" stroke="#1D1717" stroke-width="3"/>
<line y1="41.5" x2="1440" y2="41.5" stroke="#1D1717" stroke-width="3"/>
</svg>
