<svg width="1440" height="43" viewBox="0 0 1440 43" fill="none" xmlns="http://www.w3.org/2000/svg">
<path d="M70.12 26.7203C70.12 26.9069 70.0667 27.0536 69.96 27.1603C69.8533 27.2669 69.7467 27.3203 69.64 27.3203C69.4 27.3203 69.2267 27.1203 69.12 26.7203C68.8533 25.7069 68.6133 24.8803 68.4 24.2403C68.16 23.5736 67.84 23.0936 67.44 22.8003C67.0133 22.4803 66.4133 22.3203 65.64 22.3203L50.36 22.3203C49.8533 22.3203 49.4667 22.4803 49.2 22.8003C48.9333 23.1203 48.7467 23.5336 48.64 24.0403C48.5333 24.5469 48.4667 25.0936 48.44 25.6803C48.4133 25.9469 48.3467 26.1869 48.24 26.4003C48.1333 26.6136 47.9733 26.7203 47.76 26.7203C47.5733 26.7203 47.4133 26.6269 47.28 26.4403C47.1467 26.2269 47.0667 25.9869 47.04 25.7203C46.8533 24.5203 46.6267 23.4536 46.36 22.5203C46.0667 21.5603 45.4667 20.6269 44.56 19.7203C44.5333 19.6936 44.52 19.6669 44.52 19.6403C44.52 19.5869 44.52 19.5469 44.52 19.5203C44.52 19.3869 44.56 19.2669 44.64 19.1603C44.6933 19.0536 44.7733 19.0136 44.88 19.0403C45.28 19.0936 45.72 19.1336 46.2 19.1603C46.6533 19.1869 47.16 19.2003 47.72 19.2003L66.12 19.2003C66.7867 19.2003 67.2933 19.0803 67.64 18.8403C67.9867 18.5736 68.2667 18.1336 68.48 17.5203C68.6667 16.9069 68.8933 16.0536 69.16 14.9603C69.1867 14.8003 69.2533 14.6536 69.36 14.5203C69.44 14.3603 69.5467 14.2803 69.68 14.2803C69.9733 14.2803 70.12 14.4669 70.12 14.8403C70.12 15.5869 70.0933 16.2803 70.04 16.9203C70.0133 17.5336 69.9867 18.1469 69.96 18.7603C69.9333 19.3469 69.92 20.0003 69.92 20.7203C69.92 21.4403 69.9333 22.1203 69.96 22.7603C69.9867 23.4003 70.0133 24.0403 70.04 24.6803C70.0933 25.3203 70.12 26.0003 70.12 26.7203Z" fill="#1D1717"/>
<path d="M259.786 14.2403C259.786 14.4269 259.773 14.7203 259.746 15.1203C259.719 15.5203 259.693 15.9736 259.666 16.4803C259.639 16.9869 259.613 17.5203 259.586 18.0803C259.559 18.6136 259.546 19.1336 259.546 19.6403C259.546 20.1469 259.559 20.8669 259.586 21.8003C259.613 22.7336 259.639 23.7203 259.666 24.7603C259.666 25.7736 259.679 26.6669 259.706 27.4403C259.733 28.2136 259.746 28.7069 259.746 28.9203C259.746 29.0269 259.666 29.1869 259.506 29.4003C259.319 29.6136 259.173 29.7203 259.066 29.7203C258.933 29.7203 258.839 29.6936 258.786 29.6403C258.733 29.5869 258.653 29.5069 258.546 29.4003L251.466 22.5603C250.079 21.2269 248.533 20.1203 246.826 19.2403C245.093 18.3603 243.346 17.9203 241.586 17.9203C240.173 17.9203 239.066 18.3469 238.266 19.2003C237.439 20.0536 237.026 21.0536 237.026 22.2003C237.026 23.2936 237.333 24.3069 237.946 25.2403C238.533 26.1736 239.306 26.9203 240.266 27.4803C240.426 27.5603 240.559 27.6669 240.666 27.8003C240.773 27.9069 240.826 28.0269 240.826 28.1603C240.826 28.2669 240.719 28.4003 240.506 28.5603C240.266 28.6936 239.973 28.7603 239.626 28.7603C239.306 28.7603 238.866 28.5736 238.306 28.2003C237.746 27.8003 237.173 27.2536 236.586 26.5603C235.999 25.8669 235.506 25.0403 235.106 24.0803C234.679 23.1203 234.466 22.0803 234.466 20.9603C234.466 19.6269 234.746 18.4803 235.306 17.5203C235.866 16.5603 236.639 15.8269 237.626 15.3203C238.613 14.8136 239.759 14.5603 241.066 14.5603C241.786 14.5603 242.559 14.6936 243.386 14.9603C244.213 15.2003 245.026 15.5469 245.826 16.0003C246.626 16.4269 247.373 16.9203 248.066 17.4803C248.493 17.8269 249.066 18.3469 249.786 19.0403C250.479 19.7069 251.226 20.4403 252.026 21.2403C252.826 22.0136 253.586 22.7603 254.306 23.4803C254.999 24.1736 255.586 24.7469 256.066 25.2003C256.519 25.6536 256.773 25.8803 256.826 25.8803C256.959 25.8803 257.053 25.6936 257.106 25.3203C257.133 24.8669 257.159 24.3603 257.186 23.8003C257.213 23.2136 257.226 22.5469 257.226 21.8003C257.226 21.0269 257.213 20.2536 257.186 19.4803C257.159 18.7069 257.133 17.9603 257.106 17.2403C257.053 16.4669 256.986 15.8669 256.906 15.4403C256.826 15.0136 256.666 14.6536 256.426 14.3603C256.159 14.0669 255.759 13.7603 255.226 13.4403C255.066 13.3336 254.879 13.2003 254.666 13.0403C254.426 12.8536 254.306 12.6536 254.306 12.4403C254.306 12.3069 254.359 12.2269 254.466 12.2003C254.573 12.1736 254.679 12.1603 254.786 12.1603C254.919 12.1603 255.186 12.2403 255.586 12.4003C255.959 12.5336 256.426 12.6936 256.986 12.8803C257.546 13.0669 258.159 13.2269 258.826 13.3603C259.253 13.4403 259.519 13.5736 259.626 13.7603C259.733 13.9469 259.786 14.1069 259.786 14.2403Z" fill="#1D1717"/>
<path d="M450.852 24.5603C450.852 25.1736 450.745 25.8269 450.532 26.5203C450.345 27.2136 450.119 27.8003 449.852 28.2803C449.585 28.7603 449.345 29.0003 449.132 29.0003C448.945 29.0003 448.705 28.8936 448.412 28.6803C448.119 28.4669 447.865 28.2269 447.652 27.9603C447.412 27.6669 447.292 27.4269 447.292 27.2403C447.292 26.9469 447.372 26.6803 447.532 26.4403C447.692 26.2003 447.879 25.9469 448.092 25.6803C448.385 25.3336 448.665 24.9336 448.932 24.4803C449.199 24.0269 449.332 23.4269 449.332 22.6803C449.332 21.6936 449.079 20.7603 448.572 19.8803C448.065 19.0003 447.372 18.2803 446.492 17.7203C445.585 17.1336 444.585 16.8403 443.492 16.8403C442.452 16.8403 441.452 17.0136 440.492 17.3603C439.532 17.7069 438.745 18.2269 438.132 18.9203C437.492 19.5869 437.172 20.4403 437.172 21.4803C437.172 21.7736 437.212 22.1736 437.292 22.6803C437.345 23.1603 437.505 23.6269 437.772 24.0803C437.852 24.2136 437.852 24.3736 437.772 24.5603C437.665 24.7203 437.545 24.7869 437.412 24.7603C437.065 24.6536 436.785 24.4936 436.572 24.2803C436.332 24.0669 436.159 23.8269 436.052 23.5603C435.945 23.3203 435.745 22.9336 435.452 22.4003C435.132 21.8669 434.745 21.3069 434.292 20.7203C433.812 20.1069 433.279 19.5869 432.692 19.1603C432.079 18.7336 431.412 18.5203 430.692 18.5203C429.599 18.5203 428.639 18.8803 427.812 19.6003C426.959 20.2936 426.532 21.1869 426.532 22.2803C426.532 23.3203 426.719 24.1603 427.092 24.8003C427.439 25.4136 427.852 25.9069 428.332 26.2803C428.785 26.6536 429.199 26.9336 429.572 27.1203C429.919 27.3069 430.092 27.4803 430.092 27.6403C430.092 27.7469 430.012 27.8803 429.852 28.0403C429.692 28.2003 429.519 28.2803 429.332 28.2803C428.985 28.2803 428.532 28.1336 427.972 27.8403C427.385 27.5469 426.799 27.0936 426.212 26.4803C425.625 25.8403 425.132 25.0403 424.732 24.0803C424.332 23.0936 424.132 21.9203 424.132 20.5603C424.132 19.6803 424.332 18.8536 424.732 18.0803C425.105 17.2803 425.639 16.6269 426.332 16.1203C426.999 15.6136 427.785 15.3603 428.692 15.3603C429.332 15.3603 429.999 15.4936 430.692 15.7603C431.385 16.0269 432.079 16.4669 432.772 17.0803C433.439 17.6936 434.079 18.5203 434.692 19.5603C434.719 19.6403 434.772 19.6803 434.852 19.6803C434.905 19.6803 434.932 19.6269 434.932 19.5203C434.932 18.3736 435.225 17.3469 435.812 16.4403C436.372 15.5336 437.132 14.8136 438.092 14.2803C439.025 13.7203 440.065 13.4403 441.212 13.4403C442.705 13.4403 444.052 13.7603 445.252 14.4003C446.425 15.0403 447.439 15.8936 448.292 16.9603C449.119 18.0269 449.745 19.2269 450.172 20.5603C450.625 21.8669 450.852 23.2003 450.852 24.5603Z" fill="#1D1717"/>
<path d="M639.118 22.6003C639.118 22.7336 639.078 22.8936 638.998 23.0803C638.918 23.2403 638.785 23.3203 638.598 23.3203C638.465 23.3203 638.358 23.2403 638.278 23.0803C638.198 22.9203 638.145 22.7603 638.118 22.6003C637.958 21.3469 637.691 20.5203 637.318 20.1203C636.945 19.7203 636.438 19.5203 635.798 19.5203L632.078 19.5203C631.945 19.5203 631.851 19.6136 631.798 19.8003C631.745 19.9869 631.718 20.0936 631.718 20.1203C631.718 21.2136 631.745 22.2403 631.798 23.2003C631.825 24.1336 631.865 25.1203 631.918 26.1603C631.945 27.2003 631.971 28.4269 631.998 29.8403C631.998 29.9469 631.958 30.0403 631.878 30.1203C631.771 30.2003 631.678 30.2403 631.598 30.2403C631.545 30.2403 631.505 30.2269 631.478 30.2003C631.051 29.8536 630.758 29.6003 630.598 29.4403C630.411 29.2803 630.265 29.1469 630.158 29.0403C630.025 28.9336 629.838 28.8003 629.598 28.6403L614.438 18.0803C614.198 17.9203 613.958 17.7336 613.718 17.5203C613.451 17.2803 613.318 17.0669 613.318 16.8803V16.0403C613.318 15.9069 613.411 15.8936 613.598 16.0003C613.785 16.0803 613.878 16.1203 613.878 16.1203L629.398 26.9203C629.451 26.9469 629.531 26.9736 629.638 27.0003C629.718 27.0269 629.758 27.0003 629.758 26.9203V20.0003C629.758 19.8936 629.731 19.7869 629.678 19.6803C629.598 19.5736 629.518 19.5203 629.438 19.5203L623.238 19.5203C622.945 19.5203 622.745 19.5069 622.638 19.4803C622.531 19.4269 622.438 19.3203 622.358 19.1603C622.145 18.7603 622.011 18.3336 621.958 17.8803C621.878 17.4269 621.838 17.1069 621.838 16.9203C621.838 16.6269 622.051 16.4536 622.478 16.4003C622.905 16.3469 623.545 16.3203 624.398 16.3203L629.558 16.3203C629.718 16.3203 629.798 16.2536 629.798 16.1203C629.825 15.8269 629.838 15.5469 629.838 15.2803C629.838 15.0136 629.838 14.7603 629.838 14.5203C629.838 14.1469 629.838 13.7736 629.838 13.4003C629.811 13.0003 629.785 12.5869 629.758 12.1603C629.758 11.8669 629.865 11.7203 630.078 11.7203C630.291 11.7203 630.518 11.7869 630.758 11.9203C630.998 12.0269 631.198 12.1469 631.358 12.2803C631.518 12.4136 631.598 12.5069 631.598 12.5603C631.598 12.8536 631.598 13.1736 631.598 13.5203C631.571 13.8669 631.558 14.2003 631.558 14.5203C631.558 14.7603 631.571 14.9869 631.598 15.2003C631.598 15.4136 631.611 15.6003 631.638 15.7603C631.665 15.8669 631.705 15.9869 631.758 16.1203C631.811 16.2269 631.851 16.2803 631.878 16.2803L635.638 16.2803C636.411 16.2803 636.945 16.1069 637.238 15.7603C637.531 15.3869 637.825 14.6669 638.118 13.6003C638.145 13.4403 638.211 13.2803 638.318 13.1203C638.425 12.9603 638.545 12.8803 638.678 12.8803C638.785 12.8803 638.891 12.9469 638.998 13.0803C639.078 13.1869 639.118 13.3203 639.118 13.4803C639.118 14.2269 639.091 14.8269 639.038 15.2803C639.011 15.7069 638.985 16.1069 638.958 16.4803C638.931 16.8536 638.918 17.3603 638.918 18.0003C638.918 18.6669 638.931 19.2136 638.958 19.6403C638.985 20.0403 639.011 20.4536 639.038 20.8803C639.091 21.3069 639.118 21.8803 639.118 22.6003Z" fill="#1D1717"/>
<path d="M830.184 26.6403C830.184 26.9336 830.144 27.2536 830.064 27.6003C830.011 27.9469 829.891 28.1203 829.704 28.1203C829.491 28.1203 829.304 27.9469 829.144 27.6003C829.011 27.2269 828.944 26.9203 828.944 26.6803C828.944 24.5736 828.571 22.8403 827.824 21.4803C827.051 20.0936 826.091 19.0669 824.944 18.4003C823.798 17.7069 822.651 17.3603 821.504 17.3603C820.464 17.3603 819.544 17.6669 818.744 18.2803C817.944 18.8936 817.211 19.9069 816.544 21.3203C815.878 22.7069 815.238 24.5869 814.624 26.9603C814.331 27.3069 814.038 27.5603 813.744 27.7203C813.451 27.8536 813.131 27.9203 812.784 27.9203C812.411 27.9203 811.958 27.8536 811.424 27.7203C810.891 27.5603 810.331 27.3736 809.744 27.1603C809.131 26.9469 808.531 26.7336 807.944 26.5203C807.358 26.3069 806.851 26.1336 806.424 26.0003C806.024 25.8669 805.718 25.6669 805.504 25.4003C805.264 25.1336 805.091 24.7869 804.984 24.3603C804.824 23.7469 804.678 23.1203 804.544 22.4803C804.411 21.8403 804.291 21.1736 804.184 20.4803C804.051 19.7869 803.944 19.0803 803.864 18.3603C803.758 17.6136 803.664 16.8536 803.584 16.0803C803.558 15.8669 803.624 15.7203 803.784 15.6403C803.918 15.5336 804.078 15.5336 804.264 15.6403C804.478 15.7469 804.704 15.8669 804.944 16.0003C805.158 16.1069 805.371 16.2136 805.584 16.3203C805.984 16.5069 806.291 16.7203 806.504 16.9603C806.691 17.1736 806.811 17.4536 806.864 17.8003C806.918 18.3069 806.984 18.8936 807.064 19.5603C807.118 20.2269 807.184 20.8936 807.264 21.5603C807.318 22.2269 807.371 22.8403 807.424 23.4003C807.478 23.9603 807.531 24.3869 807.584 24.6803C807.611 24.8669 807.851 25.0936 808.304 25.3603C808.731 25.6269 809.198 25.8669 809.704 26.0803C810.184 26.2936 810.531 26.4136 810.744 26.4403C810.931 26.4669 811.091 26.4536 811.224 26.4003C811.358 26.3203 811.451 26.1603 811.504 25.9203C811.931 24.4269 812.371 23.0669 812.824 21.8403C813.251 20.6136 813.704 19.5469 814.184 18.6403C814.958 17.1469 815.878 16.0403 816.944 15.3203C817.984 14.5736 819.318 14.2003 820.944 14.2003C822.411 14.2003 823.784 14.6403 825.064 15.5203C826.344 16.4003 827.411 17.5869 828.264 19.0803C828.664 19.8003 828.998 20.5603 829.264 21.3603C829.558 22.1603 829.784 23.0003 829.944 23.8803C830.104 24.7603 830.184 25.6803 830.184 26.6403Z" fill="#1D1717"/>
<path d="M1018.97 20.9203C1018.97 22.2803 1018.66 23.5869 1018.05 24.8403C1017.44 26.0936 1016.52 27.1203 1015.29 27.9203C1014.04 28.7203 1012.48 29.1203 1010.61 29.1203C1009.12 29.1203 1007.76 28.9469 1006.53 28.6003C1005.3 28.2536 1004.22 27.8136 1003.29 27.2803C1002.33 26.7469 1001.52 26.2136 1000.85 25.6803C1000.16 25.1203 999.623 24.6536 999.25 24.2803C998.557 23.6136 997.783 22.7603 996.93 21.7203C996.077 20.6803 995.263 19.4803 994.49 18.1203C993.717 16.7336 993.117 15.2269 992.69 13.6003C992.637 13.3603 992.65 13.1736 992.73 13.0403C992.81 12.8803 992.89 12.8269 992.97 12.8803C993.21 12.9869 993.397 13.1603 993.53 13.4003C993.637 13.6136 993.717 13.7869 993.77 13.9203C994.543 15.7069 995.423 17.2536 996.41 18.5603C997.397 19.8403 998.623 20.9869 1000.09 22.0003C1000.73 22.4269 1001.61 22.9336 1002.73 23.5203C1003.82 24.1069 1005.05 24.6136 1006.41 25.0403C1007.77 25.4669 1009.14 25.6803 1010.53 25.6803C1012 25.6536 1013.25 25.3469 1014.29 24.7603C1015.3 24.1736 1016.08 23.4536 1016.61 22.6003C1017.14 21.7203 1017.42 20.8403 1017.45 19.9603C1017.48 18.8669 1017.1 17.9069 1016.33 17.0803C1015.53 16.2536 1014.3 15.8403 1012.65 15.8403C1011.82 15.8403 1011.06 16.0003 1010.37 16.3203C1009.65 16.6136 1009.06 17.0403 1008.61 17.6003C1008.16 18.1336 1007.93 18.7603 1007.93 19.4803C1007.93 20.1736 1007.97 20.7736 1008.05 21.2803C1008.13 21.7603 1008.29 22.2269 1008.53 22.6803C1008.64 22.9203 1008.64 23.0669 1008.53 23.1203C1008.4 23.1469 1008.25 23.0936 1008.09 22.9603C1007.88 22.7469 1007.7 22.5736 1007.57 22.4403C1007.44 22.2803 1007.29 22.0936 1007.13 21.8803C1006.92 21.5869 1006.65 21.0536 1006.33 20.2803C1005.98 19.4803 1005.81 18.7069 1005.81 17.9603C1005.81 17.0269 1006.02 16.1736 1006.45 15.4003C1006.88 14.6003 1007.46 13.9603 1008.21 13.4803C1008.93 12.9736 1009.77 12.7203 1010.73 12.7203C1011.98 12.7203 1013.12 12.9603 1014.13 13.4403C1015.14 13.9203 1016.01 14.5603 1016.73 15.3603C1017.45 16.1603 1018 17.0536 1018.37 18.0403C1018.77 19.0003 1018.97 19.9603 1018.97 20.9203Z" fill="#1D1717"/>
<path d="M1209.28 25.9203C1209.28 26.2136 1209.17 26.427 1208.96 26.5603C1208.77 26.6936 1208.53 26.7603 1208.24 26.7603C1208.16 26.7603 1207.94 26.667 1207.6 26.4803C1207.25 26.2936 1206.92 26.107 1206.6 25.9203L1186.36 14.6003C1186.28 14.5469 1186.2 14.5336 1186.12 14.5603C1186.04 14.5603 1185.98 14.7069 1185.96 15.0003V25.2403C1185.96 25.8803 1186.08 26.4403 1186.32 26.9203C1186.56 27.4003 1187.05 27.8669 1187.8 28.3203C1187.88 28.3736 1188 28.4536 1188.16 28.5603C1188.32 28.6403 1188.46 28.7469 1188.6 28.8803C1188.73 29.0136 1188.8 29.1469 1188.8 29.2803C1188.8 29.3869 1188.73 29.4669 1188.6 29.5203C1188.46 29.5469 1188.34 29.5603 1188.24 29.5603C1188.1 29.5603 1187.96 29.5469 1187.8 29.5203C1187.61 29.4669 1187.46 29.4269 1187.36 29.4003C1186.77 29.2669 1186.09 29.1469 1185.32 29.0403C1184.54 28.9069 1183.9 28.8136 1183.4 28.7603C1183.21 28.7336 1183.09 28.6803 1183.04 28.6003C1182.98 28.4936 1182.96 28.4136 1182.96 28.3603C1182.96 28.3069 1183.02 27.9469 1183.16 27.2803C1183.26 26.5869 1183.32 25.8269 1183.32 25.0003C1183.32 24.6003 1183.32 24.2269 1183.32 23.8803C1183.32 23.5069 1183.33 23.0936 1183.36 22.6403C1183.36 22.1869 1183.36 21.6536 1183.36 21.0403C1183.36 19.7336 1183.36 18.4269 1183.36 17.1203C1183.33 15.7869 1183.3 14.6403 1183.28 13.6803C1183.22 12.6936 1183.18 12.0803 1183.16 11.8403C1183.16 11.7869 1183.22 11.7336 1183.36 11.6803C1183.46 11.6269 1183.57 11.6003 1183.68 11.6003C1183.89 11.6003 1184.18 11.7069 1184.56 11.9203C1184.9 12.1069 1185.25 12.3203 1185.6 12.5603C1185.94 12.8003 1186.24 12.9869 1186.48 13.1203L1208.2 25.1603C1208.41 25.267 1208.64 25.4003 1208.88 25.5603C1209.14 25.7203 1209.28 25.8403 1209.28 25.9203Z" fill="#1D1717"/>
<path d="M1398.22 21.3205C1398.22 22.5472 1397.97 23.7072 1397.46 24.8005C1396.93 25.8672 1396.19 26.7339 1395.26 27.4005C1394.33 28.0672 1393.25 28.4005 1392.02 28.4005C1390.85 28.4005 1389.85 28.0939 1389.02 27.4805C1388.19 26.8672 1387.51 26.1472 1386.98 25.3205C1386.42 24.4672 1385.95 23.7072 1385.58 23.0405C1385.47 22.8539 1385.39 22.7872 1385.34 22.8405C1385.29 22.8939 1385.19 23.0005 1385.06 23.1605C1384.37 23.9605 1383.71 24.7205 1383.1 25.4405C1382.46 26.1338 1381.75 26.7072 1380.98 27.1605C1380.18 27.5872 1379.22 27.8005 1378.1 27.8005C1377.06 27.8005 1376.11 27.4405 1375.26 26.7205C1374.41 26.0005 1373.73 25.0805 1373.22 23.9605C1372.71 22.8405 1372.46 21.6938 1372.46 20.5205C1372.46 19.4538 1372.69 18.4405 1373.14 17.4805C1373.57 16.4938 1374.18 15.6938 1374.98 15.0805C1375.78 14.4672 1376.73 14.1605 1377.82 14.1605C1378.78 14.1605 1379.57 14.4005 1380.18 14.8805C1380.77 15.3605 1381.26 15.8272 1381.66 16.2805C1381.98 16.6538 1382.26 16.9872 1382.5 17.2805C1382.71 17.5738 1382.99 17.9472 1383.34 18.4005C1383.58 18.7472 1383.75 18.9205 1383.86 18.9205C1383.94 18.9205 1384.05 18.8138 1384.18 18.6005C1384.87 17.5872 1385.55 16.6938 1386.22 15.9205C1386.89 15.1472 1387.61 14.5472 1388.38 14.1205C1389.15 13.6672 1390.06 13.4405 1391.1 13.4405C1392.49 13.4405 1393.71 13.8272 1394.78 14.6005C1395.85 15.3739 1396.69 16.3605 1397.3 17.5605C1397.91 18.7605 1398.22 20.0139 1398.22 21.3205ZM1397.06 20.7605C1397.06 19.5872 1396.63 18.6139 1395.78 17.8405C1394.9 17.0405 1393.87 16.6405 1392.7 16.6405C1391.87 16.6405 1391.09 16.8805 1390.34 17.3605C1389.59 17.8139 1388.9 18.4005 1388.26 19.1205C1387.59 19.8405 1386.99 20.5872 1386.46 21.3605C1386.33 21.5205 1386.23 21.6672 1386.18 21.8005C1386.1 21.9072 1386.06 22.0272 1386.06 22.1605C1386.06 22.2672 1386.14 22.4272 1386.3 22.6405C1386.99 23.4939 1387.7 24.1339 1388.42 24.5605C1389.11 24.9872 1390.1 25.2005 1391.38 25.2005C1392.31 25.2005 1393.22 25.0272 1394.1 24.6805C1394.95 24.3339 1395.66 23.8272 1396.22 23.1605C1396.78 22.4939 1397.06 21.6939 1397.06 20.7605ZM1383.34 19.4805C1382.57 18.5472 1381.71 17.9472 1380.78 17.6805C1379.85 17.3872 1378.77 17.2405 1377.54 17.2405C1376.42 17.2405 1375.46 17.5338 1374.66 18.1205C1373.83 18.6805 1373.42 19.5472 1373.42 20.7205C1373.42 21.3338 1373.59 21.9472 1373.94 22.5605C1374.29 23.1738 1374.75 23.6938 1375.34 24.1205C1375.93 24.5205 1376.58 24.7205 1377.3 24.7205C1378.31 24.7205 1379.11 24.5338 1379.7 24.1605C1380.29 23.7605 1380.83 23.2138 1381.34 22.5205C1381.82 21.8005 1382.45 20.9738 1383.22 20.0405C1383.27 19.9605 1383.33 19.8672 1383.38 19.7605C1383.41 19.6538 1383.39 19.5605 1383.34 19.4805Z" fill="#1D1717"/>
<line y1="1.5" x2="1440" y2="1.5" stroke="#1D1717" stroke-width="3"/>
<line y1="41.5" x2="1440" y2="41.5" stroke="#1D1717" stroke-width="3"/>
</svg>
